<svg fill="none" xmlns="http://www.w3.org/2000/svg" viewBox="0 0 64 35.54"> <path d="M53.3385 14.2154H58.6692L62.2231 3.55383H56.8923L53.3385 14.2154Z" fill="#414042"></path> <path d="M51.5616 7.10769C51.5616 7.10769 46.2308 0 44.4539 0H28.4616L17.8 8.88461L6.99458 12.0298C5.89288 12.4154 4.41804 13.1599 4.22258 14.2154L0.03082 31.9846C-0.191295 33.1325 0.826881 33.7615 1.80774 33.7615H62.2231C63.2057 33.7615 64 32.9672 64 31.9846V10.6615C64 7.10769 51.5616 7.10769 51.5616 7.10769Z" fill="#F4900C"></path> <path d="M28.6286 8.88458L19.577 33.7615H40.9L49.7846 8.88458H28.6286Z" fill="#3B88C3"></path> <path d="M14.2462 35.5384C18.1717 35.5384 21.3539 32.3562 21.3539 28.4307C21.3539 24.5053 18.1717 21.3231 14.2462 21.3231C10.3207 21.3231 7.13851 24.5053 7.13851 28.4307C7.13851 32.3562 10.3207 35.5384 14.2462 35.5384Z" fill="#292F33"></path> <path d="M14.2462 31.9846C16.2089 31.9846 17.8 30.3935 17.8 28.4307C17.8 26.468 16.2089 24.8769 14.2462 24.8769C12.2835 24.8769 10.6924 26.468 10.6924 28.4307C10.6924 30.3935 12.2835 31.9846 14.2462 31.9846Z" fill="#58595B"></path> <path d="M51.5616 35.5384C55.487 35.5384 58.6692 32.3562 58.6692 28.4307C58.6692 24.5053 55.487 21.3231 51.5616 21.3231C47.6361 21.3231 44.4539 24.5053 44.4539 28.4307C44.4539 32.3562 47.6361 35.5384 51.5616 35.5384Z" fill="#292F33"></path> <path d="M51.5616 31.9846C53.5243 31.9846 55.1154 30.3935 55.1154 28.4307C55.1154 26.468 53.5243 24.8769 51.5616 24.8769C49.5988 24.8769 48.0077 26.468 48.0077 28.4307C48.0077 30.3935 49.5988 31.9846 51.5616 31.9846Z" fill="#58595B"></path> <path d="M34.6808 26.6538C38.1156 26.6538 40.9 23.8694 40.9 20.4346C40.9 16.9998 38.1156 14.2154 34.6808 14.2154C31.246 14.2154 28.4616 16.9998 28.4616 20.4346C28.4616 23.8694 31.246 26.6538 34.6808 26.6538Z" fill="white"></path> <path d="M37.4439 18.1992C37.4439 18.9828 37.1063 19.6669 36.4239 20.104C37.3195 20.5127 37.9414 21.3461 37.9414 22.3323C37.9414 23.8249 36.575 25.0812 34.8069 25.0812C32.9643 25.0812 31.8182 23.7236 31.8182 22.7427C31.8182 22.2576 32.3281 21.9094 32.7759 21.9094C33.6235 21.9094 33.4227 23.3629 34.83 23.3629C35.4751 23.3629 35.9993 22.8671 35.9993 22.2079C35.9993 20.4665 33.8829 21.7459 33.8829 20.2782C33.8829 18.9739 35.651 19.8552 35.651 18.4728C35.651 18.0001 35.3169 17.6394 34.7536 17.6394C33.572 17.6394 33.7337 18.8584 32.8879 18.8584C32.3761 18.8584 32.0776 18.3999 32.0776 17.9379C32.0776 16.966 33.4103 15.9211 34.791 15.9211C36.5839 15.9229 37.4439 17.2307 37.4439 18.1992Z" fill="#231F20"></path> <path d="M53.3385 5.33076L55.1154 3.55384L64 1.77692V5.33076H53.3385Z" fill="#F4900C"></path> <path d="M30.2385 1.77692H44.4539V8.8846H21.3539L30.2385 1.77692Z" fill="#88C9F9"></path> <path d="M10.6924 15.9923C10.6924 16.975 9.8963 17.7692 8.91544 17.7692H5.36159C4.38073 17.7692 3.58467 16.975 3.58467 15.9923C3.58467 15.0097 4.38073 14.2154 5.36159 14.2154H8.91544C9.8963 14.2154 10.6924 15.0097 10.6924 15.9923Z" fill="#FFCC4D"></path> <path d="M64 12.4385H62.2231C61.2405 12.4385 60.4462 13.2328 60.4462 14.2154V15.9923C60.4462 16.975 61.2405 17.7692 62.2231 17.7692H64V12.4385Z" fill="#DD2E44"></path>  </svg>