<svg width="64" height="64" viewBox="0 0 64 64" fill="none" xmlns="http://www.w3.org/2000/svg">
<path d="M51.2698 31.3545C49.5152 33.2104 48.3668 36.8067 48.7135 39.3418L50.2992 50.792C50.6494 53.3288 49.053 54.5021 46.7509 53.4035L36.3494 48.433C34.0473 47.3308 30.291 47.3468 27.9942 48.465L17.6372 53.5173C15.3422 54.6355 13.7387 53.4711 14.0693 50.936L15.5679 39.4715C15.8986 36.9347 14.7235 33.3491 12.9547 31.5056L4.96563 23.1717C3.19502 21.3282 3.80123 19.4349 6.30781 18.9674L17.6319 16.8554C20.1384 16.3879 23.1712 14.1569 24.3747 11.8974L29.7985 1.69862C30.9985 -0.56086 32.9789 -0.566193 34.1948 1.68262L39.6969 11.8387C40.9164 14.0875 43.9634 16.2954 46.4771 16.7417L57.8154 18.77C60.3255 19.218 60.9459 21.1059 59.1913 22.9637L51.2698 31.3545Z" fill="#FFAC33"/>
<path d="M17.3918 3.87634C19.2105 6.38826 21.7401 12.6174 20.4442 13.5596C19.15 14.5035 14.032 10.1641 12.2134 7.65221C10.3965 5.1403 10.5512 2.90927 11.9805 1.86752C13.4098 0.824005 15.5715 1.36621 17.3918 3.87634ZM51.7871 7.65221C49.9703 10.1641 44.8522 14.5053 43.5545 13.5578C42.2585 12.6156 44.79 6.38826 46.6104 3.87812C48.429 1.36443 50.5889 0.822227 52.02 1.86752C53.4475 2.90927 53.6022 5.1403 51.7871 7.65221ZM29.555 59.1811C29.5532 56.0772 31.1514 49.5441 32.7567 49.5441C34.3513 49.5441 35.953 56.0772 35.9512 59.1793C35.9512 62.285 34.5219 64.0005 32.7513 63.9969C30.9843 64.0005 29.555 62.2868 29.555 59.1811ZM58.3167 42.7159C55.3745 41.7577 49.6805 38.2129 50.1765 36.6805C50.6689 35.1553 57.3531 35.6477 60.2917 36.6077C63.2338 37.5676 64.4178 39.4609 63.8702 41.1515C63.3227 42.8403 61.2588 43.6759 58.3167 42.7159ZM3.70343 36.6094C6.64555 35.6495 13.328 35.157 13.8257 36.6877C14.3164 38.2112 8.6206 41.7613 5.68203 42.7177C2.74169 43.6776 0.672426 42.8421 0.130223 41.1533C-0.417314 39.4644 0.759534 37.5712 3.70343 36.6094Z" fill="#FFD983"/>
</svg>