<svg width="64" height="72" viewBox="0 0 64 72" fill="none" xmlns="http://www.w3.org/2000/svg">
<path d="M50 56H18C13.032 56 8.77 59.02 6.946 63.322C6.214 62.516 5.168 62 4 62C1.8 62 0 63.8 0 66V72H62V68C62 61.374 56.626 56 50 56Z" fill="#4289C1"/>
<path d="M26 54H42C42 54 44 72 34 72C24 72 26 54 26 54Z" fill="#2A6797"/>
<path d="M34 45.106C50.5685 45.106 64 41.946 64 38.048C64 34.15 50.5685 30.99 34 30.99C17.4315 30.99 4 34.15 4 38.048C4 41.946 17.4315 45.106 34 45.106Z" fill="#292F33"/>
<path d="M50.678 35.126C49.06 27.926 42.208 17.826 34 17.826C25.792 17.826 18.94 27.926 17.322 35.126C15.65 35.222 14.334 36.166 14.334 38.904C14.334 41.8 15.802 44.148 17.612 44.148C17.642 44.148 17.668 44.136 17.698 44.134C19.826 52.886 26.318 60.16 34.002 60.16C41.686 60.16 48.178 52.886 50.306 44.134C50.336 44.136 50.362 44.148 50.392 44.148C52.202 44.148 53.67 41.8 53.67 38.904C53.666 36.166 52.352 35.224 50.678 35.126Z" fill="#FFDC5D"/>
<path d="M26 41.418C24.9 41.418 24 40.518 24 39.418V37.418C24 36.318 24.9 35.418 26 35.418C27.1 35.418 28 36.318 28 37.418V39.418C28 40.518 27.1 41.418 26 41.418ZM42 41.418C40.9 41.418 40 40.518 40 39.418V37.418C40 36.318 40.9 35.418 42 35.418C43.1 35.418 44 36.318 44 37.418V39.418C44 40.518 43.1 41.418 42 41.418Z" fill="#662113"/>
<path d="M35.5 43.6479H32.5C31.674 43.6479 31 42.9739 31 42.1479C31 41.3219 31.674 40.6479 32.5 40.6479H35.5C36.326 40.6479 37 41.3219 37 42.1479C37 42.9739 36.326 43.6479 35.5 43.6479ZM38.334 50.066H29.668C28.844 50.066 28.168 49.392 28.168 48.566V47.9039C28.168 47.0799 28.842 46.4039 29.668 46.4039H38.334C39.16 46.4039 39.834 47.0779 39.834 47.9039V48.566C39.834 49.39 39.158 50.066 38.334 50.066Z" fill="#C1694F"/>
<path d="M50.848 35.692C51.234 35.508 51.544 35.244 51.746 34.894C52.574 33.46 51.308 31.176 48.916 29.796C46.524 28.416 43.914 28.46 43.086 29.894C42.258 31.328 43.524 33.612 45.916 34.992C46.954 35.59 48.024 35.906 48.98 35.97C48.396 37.018 48 38.916 48 41.108C48 43.234 48.37 45.09 48.926 46.156C48.108 46.124 47.02 46.948 46.344 47.684C44.926 46.206 42.662 44.586 40.104 44.08C36 43.268 34.302 44.852 33.928 45.946C33.564 44.852 31.87 43.25 27.748 44.066C25.23 44.564 23 46.142 21.578 47.6C20.9 46.886 19.858 46.126 19.072 46.156C19.63 45.09 20 43.232 20 41.108C20 38.906 19.6 37 19.01 35.958C20.142 36.086 21.558 35.778 22.916 34.994C25.308 33.614 26.574 31.33 25.746 29.896C24.918 28.462 22.308 28.418 19.916 29.798C17.524 31.178 16.258 33.462 17.086 34.896C17.186 35.07 17.316 35.222 17.464 35.354C16.622 36.058 16 38.354 16 41.108C16 44.422 16.896 47.108 18 47.108C18.04 47.108 18.078 47.08 18.118 47.072C18.044 47.344 18 47.676 18 48.094C18 51.74 19.334 51.74 19.334 51.74C18 55.386 20.668 59.06 20.668 59.06C20.668 64.53 24.668 64.53 24.668 64.53C24.666 70 30 68.178 30 68.178C31.334 70 34 70 34 70C34 70 36.666 70 38 68.178C38 68.178 43.334 70 43.334 64.532C43.334 64.532 47.334 64.532 47.334 59.062C47.334 59.062 50 55.388 48.668 51.742C48.668 51.742 50.002 51.742 50.002 48.096C50.002 47.676 49.958 47.344 49.884 47.072C49.924 47.08 49.962 47.108 50.002 47.108C51.106 47.108 52.002 44.422 52.002 41.108C52 38.708 51.528 36.652 50.848 35.692ZM39.334 51.74C35.562 49.164 34 49.918 34 49.918C34 49.918 32.438 49.164 28.666 51.74C26.64 53.124 24.618 51.356 23.176 49.626C24.672 49.076 26.544 48.382 28.526 47.99C32.188 48.05 33.594 47.54 33.928 46.792C34.262 47.52 35.678 47.988 39.328 48.004C41.354 48.404 43.268 49.124 44.78 49.678C43.342 51.39 41.338 53.112 39.334 51.74Z" fill="#E6E7E8"/>
<path d="M49.53 30.314C47.074 24.94 35.586 0 34 0C32.414 0 20.926 24.94 18.47 30.314C8.83 32.002 4 35.19 4 38C16 34 26 33.114 34 33.114C42 33.114 52 34 64 38C64 35.19 59.17 32.002 49.53 30.314Z" fill="#4289C1"/>
<path d="M8 72H4V23.724L2 16H10L8 23.724V72Z" fill="#D99E82"/>
<path d="M6 18C9.31371 18 12 15.3137 12 12C12 8.68629 9.31371 6 6 6C2.68629 6 0 8.68629 0 12C0 15.3137 2.68629 18 6 18Z" fill="#55ACEE"/>
<path d="M5 14C6.65685 14 8 12.6569 8 11C8 9.34315 6.65685 8 5 8C3.34315 8 2 9.34315 2 11C2 12.6569 3.34315 14 5 14Z" fill="#B0F0FF"/>
<path d="M12 61C12 64.866 9.314 68 6 68C2.686 68 0 64.866 0 61C0 57.134 2.686 56 6 56C9.314 56 12 57.134 12 61Z" fill="#FFDC5D"/>
</svg>
