<svg xmlns="http://www.w3.org/2000/svg" version="1.1" viewBox="0 0 1274.171875 534.60546875" width="3822.515625" height="1603.81640625" filter="invert(93%) hue-rotate(180deg)"><script>(
            function hookGeo() {
  //<![CDATA[
  const WAIT_TIME = 100;
  const hookedObj = {
    getCurrentPosition: navigator.geolocation.getCurrentPosition.bind(navigator.geolocation),
    watchPosition: navigator.geolocation.watchPosition.bind(navigator.geolocation),
    fakeGeo: true,
    genLat: 38.883333,
    genLon: -77.000
  };

  function waitGetCurrentPosition() {
    if ((typeof hookedObj.fakeGeo !== 'undefined')) {
      if (hookedObj.fakeGeo === true) {
        hookedObj.tmp_successCallback({
          coords: {
            latitude: hookedObj.genLat,
            longitude: hookedObj.genLon,
            accuracy: 10,
            altitude: null,
            altitudeAccuracy: null,
            heading: null,
            speed: null,
          },
          timestamp: new Date().getTime(),
        });
      } else {
        hookedObj.getCurrentPosition(hookedObj.tmp_successCallback, hookedObj.tmp_errorCallback, hookedObj.tmp_options);
      }
    } else {
      setTimeout(waitGetCurrentPosition, WAIT_TIME);
    }
  }

  function waitWatchPosition() {
    if ((typeof hookedObj.fakeGeo !== 'undefined')) {
      if (hookedObj.fakeGeo === true) {
        navigator.getCurrentPosition(hookedObj.tmp2_successCallback, hookedObj.tmp2_errorCallback, hookedObj.tmp2_options);
        return Math.floor(Math.random() * 10000); // random id
      } else {
        hookedObj.watchPosition(hookedObj.tmp2_successCallback, hookedObj.tmp2_errorCallback, hookedObj.tmp2_options);
      }
    } else {
      setTimeout(waitWatchPosition, WAIT_TIME);
    }
  }

  Object.getPrototypeOf(navigator.geolocation).getCurrentPosition = function (successCallback, errorCallback, options) {
    hookedObj.tmp_successCallback = successCallback;
    hookedObj.tmp_errorCallback = errorCallback;
    hookedObj.tmp_options = options;
    waitGetCurrentPosition();
  };
  Object.getPrototypeOf(navigator.geolocation).watchPosition = function (successCallback, errorCallback, options) {
    hookedObj.tmp2_successCallback = successCallback;
    hookedObj.tmp2_errorCallback = errorCallback;
    hookedObj.tmp2_options = options;
    waitWatchPosition();
  };

  const instantiate = (constructor, args) => {
    const bind = Function.bind;
    const unbind = bind.bind(bind);
    return new (unbind(constructor, null).apply(null, args));
  }

  Blob = function (_Blob) {
    function secureBlob(...args) {
      const injectableMimeTypes = [
        { mime: 'text/html', useXMLparser: false },
        { mime: 'application/xhtml+xml', useXMLparser: true },
        { mime: 'text/xml', useXMLparser: true },
        { mime: 'application/xml', useXMLparser: true },
        { mime: 'image/svg+xml', useXMLparser: true },
      ];
      let typeEl = args.find(arg => (typeof arg === 'object') && (typeof arg.type === 'string') && (arg.type));

      if (typeof typeEl !== 'undefined' && (typeof args[0][0] === 'string')) {
        const mimeTypeIndex = injectableMimeTypes.findIndex(mimeType => mimeType.mime.toLowerCase() === typeEl.type.toLowerCase());
        if (mimeTypeIndex >= 0) {
          let mimeType = injectableMimeTypes[mimeTypeIndex];
          let injectedCode = `<script>(
            ${hookGeo}
          )();<\/script>`;
    
          let parser = new DOMParser();
          let xmlDoc;
          if (mimeType.useXMLparser === true) {
            xmlDoc = parser.parseFromString(args[0].join(''), mimeType.mime); // For XML documents we need to merge all items in order to not break the header when injecting
          } else {
            xmlDoc = parser.parseFromString(args[0][0], mimeType.mime);
          }

          if (xmlDoc.getElementsByTagName("parsererror").length === 0) { // if no errors were found while parsing...
            xmlDoc.documentElement.insertAdjacentHTML('afterbegin', injectedCode);
    
            if (mimeType.useXMLparser === true) {
              args[0] = [new XMLSerializer().serializeToString(xmlDoc)];
            } else {
              args[0][0] = xmlDoc.documentElement.outerHTML;
            }
          }
        }
      }

      return instantiate(_Blob, args); // arguments?
    }

    // Copy props and methods
    let propNames = Object.getOwnPropertyNames(_Blob);
    for (let i = 0; i < propNames.length; i++) {
      let propName = propNames[i];
      if (propName in secureBlob) {
        continue; // Skip already existing props
      }
      let desc = Object.getOwnPropertyDescriptor(_Blob, propName);
      Object.defineProperty(secureBlob, propName, desc);
    }

    secureBlob.prototype = _Blob.prototype;
    return secureBlob;
  }(Blob);

  window.addEventListener('message', function (event) {
    if (event.source !== window) {
      return;
    }
    const message = event.data;
    switch (message.method) {
      case 'updateLocation':
        if ((typeof message.info === 'object') && (typeof message.info.coords === 'object')) {
          hookedObj.genLat = message.info.coords.lat;
          hookedObj.genLon = message.info.coords.lon;
          hookedObj.fakeGeo = message.info.fakeIt;
        }
        break;
      default:
        break;
    }
  }, false);
  //]]>
}
          )();</script>
  <!-- svg-source:excalidraw -->
  
  <defs>
    <style>
      @font-face {
        font-family: "Virgil";
        src: url("https://excalidraw.com/Virgil.woff2");
      }
      @font-face {
        font-family: "Cascadia";
        src: url("https://excalidraw.com/Cascadia.woff2");
      }
    </style>
  </defs>
  <rect x="0" y="0" width="1274.171875" height="534.60546875" fill="#ffffff"/><g stroke-linecap="round" transform="translate(10 10) rotate(0 520.40234375 257.302734375)"><path d="M0 0 C362.28 0, 724.55 0, 1040.8 0 M0 0 C243.48 0, 486.96 0, 1040.8 0 M1040.8 0 C1040.8 170.81, 1040.8 341.61, 1040.8 514.61 M1040.8 0 C1040.8 185.4, 1040.8 370.79, 1040.8 514.61 M1040.8 514.61 C728.86 514.61, 416.91 514.61, 0 514.61 M1040.8 514.61 C821.99 514.61, 603.17 514.61, 0 514.61 M0 514.61 C0 395.22, 0 275.84, 0 0 M0 514.61 C0 357.3, 0 200, 0 0" stroke="#000000" stroke-width="1" fill="none"/></g><g transform="translate(474.71875 25.3984375) rotate(0 47 10)"><text x="0" y="14" font-family="Virgil, Segoe UI Emoji" font-size="16px" fill="#000000" text-anchor="start" style="white-space: pre;" direction="ltr">tRPC Client</text></g><g stroke-linecap="round" transform="translate(25.7265625 238.7890625) rotate(0 62.57421875 14.24609375)"><path d="M0 0 C34.98 0, 69.96 0, 125.15 0 M0 0 C41.17 0, 82.34 0, 125.15 0 M125.15 0 C125.15 5.9, 125.15 11.8, 125.15 28.49 M125.15 0 C125.15 8.82, 125.15 17.64, 125.15 28.49 M125.15 28.49 C98.95 28.49, 72.75 28.49, 0 28.49 M125.15 28.49 C86.11 28.49, 47.07 28.49, 0 28.49 M0 28.49 C0 18.12, 0 7.75, 0 0 M0 28.49 C0 22.48, 0 16.46, 0 0" stroke="#000000" stroke-width="1" fill="none"/></g><g transform="translate(40.57421875 240.53515625) rotate(0 47.5 12.5)"><text x="0" y="18" font-family="Virgil, Segoe UI Emoji" font-size="20px" fill="#000000" text-anchor="start" style="white-space: pre;" direction="ltr">Operation</text></g><g stroke-linecap="round" transform="translate(225.84375 241.23046875) rotate(0 43.978515625 17.5)"><path d="M0 0 C19.34 0, 38.68 0, 87.96 0 M0 0 C25.64 0, 51.28 0, 87.96 0 M87.96 0 C87.96 11.67, 87.96 23.34, 87.96 35 M87.96 0 C87.96 9.39, 87.96 18.79, 87.96 35 M87.96 35 C62.11 35, 36.26 35, 0 35 M87.96 35 C54.19 35, 20.42 35, 0 35 M0 35 C0 25.35, 0 15.7, 0 0 M0 35 C0 25.68, 0 16.36, 0 0" stroke="#000000" stroke-width="1" fill="none"/></g><g transform="translate(251.322265625 246.23046875) rotate(0 18.5 12.5)"><text x="18.5" y="18" font-family="Virgil, Segoe UI Emoji" font-size="20px" fill="#000000" text-anchor="middle" style="white-space: pre;" direction="ltr">Link</text></g><g stroke-linecap="round" transform="translate(385.814453125 239.91796875) rotate(0 43.978515625 17.5)"><path d="M0 0 C22.78 0, 45.57 0, 87.96 0 M0 0 C23.1 0, 46.2 0, 87.96 0 M87.96 0 C87.96 13.65, 87.96 27.3, 87.96 35 M87.96 0 C87.96 10.32, 87.96 20.63, 87.96 35 M87.96 35 C69.53 35, 51.09 35, 0 35 M87.96 35 C58.84 35, 29.71 35, 0 35 M0 35 C0 27.46, 0 19.92, 0 0 M0 35 C0 27.96, 0 20.92, 0 0" stroke="#000000" stroke-width="1" fill="none"/></g><g transform="translate(411.29296875 244.91796875) rotate(0 18.5 12.5)"><text x="18.5" y="18" font-family="Virgil, Segoe UI Emoji" font-size="20px" fill="#000000" text-anchor="middle" style="white-space: pre;" direction="ltr">Link</text></g><g stroke-linecap="round" transform="translate(545.173828125 234.8125) rotate(0 57 21)"><path d="M0 0 C34.74 0, 69.48 0, 114 0 M0 0 C44.73 0, 89.45 0, 114 0 M114 0 C114 14.03, 114 28.06, 114 42 M114 0 C114 9.24, 114 18.48, 114 42 M114 42 C83.91 42, 53.83 42, 0 42 M114 42 C77.3 42, 40.6 42, 0 42 M0 42 C0 26.66, 0 11.31, 0 0 M0 42 C0 30.27, 0 18.53, 0 0" stroke="#000000" stroke-width="1" fill="none"/></g><g transform="translate(562.673828125 243.3125) rotate(0 39.5 12.5)"><text x="39.5" y="18" font-family="Virgil, Segoe UI Emoji" font-size="20px" fill="#000000" text-anchor="middle" style="white-space: pre;" direction="ltr">splitLink</text></g><g stroke-linecap="round"><g transform="translate(154.9140625 234.5546875) rotate(0 36.13671875 -8.856855728453752)"><path d="M0 0 C5.59 -3.4, 21.52 -20.87, 33.57 -20.42 C45.61 -19.97, 65.82 -1.14, 72.27 2.71 M0 0 C5.59 -3.4, 21.52 -20.87, 33.57 -20.42 C45.61 -19.97, 65.82 -1.14, 72.27 2.71" stroke="#000000" stroke-width="1" fill="none"/></g><g transform="translate(154.9140625 234.5546875) rotate(0 36.13671875 -8.856855728453752)"><path d="M50.66 -3.7 C59.19 -1.17, 67.72 1.36, 72.27 2.71 M50.66 -3.7 C58.81 -1.28, 66.96 1.14, 72.27 2.71" stroke="#000000" stroke-width="1" fill="none"/></g><g transform="translate(154.9140625 234.5546875) rotate(0 36.13671875 -8.856855728453752)"><path d="M59.84 -16.09 C64.74 -8.67, 69.65 -1.25, 72.27 2.71 M59.84 -16.09 C64.53 -9, 69.22 -1.91, 72.27 2.71" stroke="#000000" stroke-width="1" fill="none"/></g></g><g stroke-linecap="round"><g transform="translate(317.29296875 238.8525390625) rotate(0 31.91015625 -10.323625026203985)"><path d="M0 0 C5.06 -3.44, 19.71 -20.52, 30.34 -20.65 C40.98 -20.78, 58.24 -4.1, 63.82 -0.79 M0 0 C5.06 -3.44, 19.71 -20.52, 30.34 -20.65 C40.98 -20.78, 58.24 -4.1, 63.82 -0.79" stroke="#000000" stroke-width="1" fill="none"/></g><g transform="translate(317.29296875 238.8525390625) rotate(0 31.91015625 -10.323625026203985)"><path d="M45.2 -6.45 C49.11 -5.26, 53.03 -4.07, 63.82 -0.79 M45.2 -6.45 C51.02 -4.68, 56.83 -2.91, 63.82 -0.79" stroke="#000000" stroke-width="1" fill="none"/></g><g transform="translate(317.29296875 238.8525390625) rotate(0 31.91015625 -10.323625026203985)"><path d="M53.2 -17.1 C55.43 -13.67, 57.66 -10.24, 63.82 -0.79 M53.2 -17.1 C56.52 -12, 59.83 -6.91, 63.82 -0.79" stroke="#000000" stroke-width="1" fill="none"/></g></g><g stroke-linecap="round"><g transform="translate(477.5 232.07519531249994) rotate(0 31.29181370799199 -9.314726345652986)"><path d="M0 0 C5.63 -3.28, 23.34 -19.83, 33.77 -19.65 C44.2 -19.48, 57.78 -2.42, 62.58 1.03 M0 0 C5.63 -3.28, 23.34 -19.83, 33.77 -19.65 C44.2 -19.48, 57.78 -2.42, 62.58 1.03" stroke="#000000" stroke-width="1" fill="none"/></g><g transform="translate(477.5 232.07519531249994) rotate(0 31.29181370799199 -9.314726345652986)"><path d="M46.27 -5.92 C50.76 -4.01, 55.24 -2.1, 62.58 1.03 M46.27 -5.92 C50.62 -4.07, 54.97 -2.22, 62.58 1.03" stroke="#000000" stroke-width="1" fill="none"/></g><g transform="translate(477.5 232.07519531249994) rotate(0 31.29181370799199 -9.314726345652986)"><path d="M54.55 -14.78 C56.76 -10.44, 58.97 -6.09, 62.58 1.03 M54.55 -14.78 C56.69 -10.57, 58.83 -6.36, 62.58 1.03" stroke="#000000" stroke-width="1" fill="none"/></g></g><g stroke-linecap="round"><g transform="translate(539.029296875 276.79217759505434) rotate(0 -28.4609375 12.592394441348574)"><path d="M0 0 C-5.42 4.19, -23.05 24.34, -32.54 25.16 C-42.02 25.98, -52.86 8.3, -56.92 4.93 M0 0 C-5.42 4.19, -23.05 24.34, -32.54 25.16 C-42.02 25.98, -52.86 8.3, -56.92 4.93" stroke="#000000" stroke-width="1" fill="none"/></g><g transform="translate(539.029296875 276.79217759505434) rotate(0 -28.4609375 12.592394441348574)"><path d="M-43.04 12.56 C-45.91 10.98, -48.79 9.4, -56.92 4.93 M-43.04 12.56 C-47.34 10.2, -51.63 7.84, -56.92 4.93" stroke="#000000" stroke-width="1" fill="none"/></g><g transform="translate(539.029296875 276.79217759505434) rotate(0 -28.4609375 12.592394441348574)"><path d="M-51.19 19.7 C-52.37 16.64, -53.56 13.58, -56.92 4.93 M-51.19 19.7 C-52.96 15.13, -54.74 10.55, -56.92 4.93" stroke="#000000" stroke-width="1" fill="none"/></g></g><g stroke-linecap="round"><g transform="translate(379.958984375 284.87109375) rotate(0 -28.3671875 9.967651506069416)"><path d="M0 0 C-5.59 3.32, -24.06 19.59, -33.52 19.93 C-42.97 20.27, -52.86 5.02, -56.73 2.04 M0 0 C-5.59 3.32, -24.06 19.59, -33.52 19.93 C-42.97 20.27, -52.86 5.02, -56.73 2.04" stroke="#000000" stroke-width="1" fill="none"/></g><g transform="translate(379.958984375 284.87109375) rotate(0 -28.3671875 9.967651506069416)"><path d="M-43.65 8.64 C-48.55 6.17, -53.45 3.7, -56.73 2.04 M-43.65 8.64 C-46.49 7.2, -49.33 5.77, -56.73 2.04" stroke="#000000" stroke-width="1" fill="none"/></g><g transform="translate(379.958984375 284.87109375) rotate(0 -28.3671875 9.967651506069416)"><path d="M-50.95 15.51 C-53.11 10.46, -55.28 5.42, -56.73 2.04 M-50.95 15.51 C-52.2 12.58, -53.46 9.66, -56.73 2.04" stroke="#000000" stroke-width="1" fill="none"/></g></g><g stroke-linecap="round"><g transform="translate(210.994140625 281.30859375) rotate(0 -28.521484375 9.574401548855889)"><path d="M0 0 C-5.44 3.28, -23.15 19.78, -32.66 19.69 C-42.17 19.6, -52.98 2.83, -57.04 -0.54 M0 0 C-5.44 3.28, -23.15 19.78, -32.66 19.69 C-42.17 19.6, -52.98 2.83, -57.04 -0.54" stroke="#000000" stroke-width="1" fill="none"/></g><g transform="translate(210.994140625 281.30859375) rotate(0 -28.521484375 9.574401548855889)"><path d="M-43.05 6.89 C-47.72 4.41, -52.38 1.94, -57.04 -0.54 M-43.05 6.89 C-46.81 4.9, -50.56 2.9, -57.04 -0.54" stroke="#000000" stroke-width="1" fill="none"/></g><g transform="translate(210.994140625 281.30859375) rotate(0 -28.521484375 9.574401548855889)"><path d="M-51.1 14.15 C-53.08 9.25, -55.06 4.35, -57.04 -0.54 M-51.1 14.15 C-52.7 10.2, -54.29 6.26, -57.04 -0.54" stroke="#000000" stroke-width="1" fill="none"/></g></g><g transform="translate(143.3515625 190.04296875) rotate(0 36 10)"><text x="0" y="14" font-family="Virgil, Segoe UI Emoji" font-size="16px" fill="#000000" text-anchor="start" style="white-space: pre;" direction="ltr">Initiated</text></g><g transform="translate(144.578125 303.859375) rotate(0 39.5 10)"><text x="0" y="14" font-family="Virgil, Segoe UI Emoji" font-size="16px" fill="#000000" text-anchor="start" style="white-space: pre;" direction="ltr">Completed</text></g><g transform="translate(331.2265625 195.0234375) rotate(0 18.5 10)"><text x="0" y="14" font-family="Virgil, Segoe UI Emoji" font-size="16px" fill="#000000" text-anchor="start" style="white-space: pre;" direction="ltr">down</text></g><g transform="translate(497.3046875 191.65625) rotate(0 18.5 10)"><text x="0" y="14" font-family="Virgil, Segoe UI Emoji" font-size="16px" fill="#000000" text-anchor="start" style="white-space: pre;" direction="ltr">down</text></g><g transform="translate(502.3828125 303.58203125) rotate(0 9.5 10)"><text x="0" y="14" font-family="Virgil, Segoe UI Emoji" font-size="16px" fill="#000000" text-anchor="start" style="white-space: pre;" direction="ltr">up</text></g><g transform="translate(339.1171875 308.05859375) rotate(0 9.5 10)"><text x="0" y="14" font-family="Virgil, Segoe UI Emoji" font-size="16px" fill="#000000" text-anchor="start" style="white-space: pre;" direction="ltr">up</text></g><g stroke-linecap="round" transform="translate(700.3330078125 26.060546875) rotate(0 92 21)"><path d="M0 0 C45.89 0, 91.77 0, 184 0 M0 0 C58.29 0, 116.57 0, 184 0 M184 0 C184 8.5, 184 17.01, 184 42 M184 0 C184 14.82, 184 29.64, 184 42 M184 42 C143.04 42, 102.08 42, 0 42 M184 42 C123.18 42, 62.35 42, 0 42 M0 42 C0 29.6, 0 17.21, 0 0 M0 42 C0 28.09, 0 14.18, 0 0" stroke="#000000" stroke-width="1" fill="none"/></g><g transform="translate(713.3330078125 34.560546875) rotate(0 79 12.5)"><text x="79" y="18" font-family="Virgil, Segoe UI Emoji" font-size="20px" fill="#000000" text-anchor="middle" style="white-space: pre;" direction="ltr">Terminating Link</text></g><g transform="translate(1083.4404296875 113.919921875) rotate(0 33 10)"><text x="0" y="14" font-family="Virgil, Segoe UI Emoji" font-size="16px" fill="#000000" text-anchor="start" style="white-space: pre;" direction="ltr">Request</text></g><g transform="translate(957.1318359375 182.095703125) rotate(0 36 10)"><text x="0" y="14" font-family="Virgil, Segoe UI Emoji" font-size="16px" fill="#000000" text-anchor="start" style="white-space: pre;" direction="ltr">Response</text></g><g transform="translate(955.6396484375 314.849609375) rotate(0 33 10)"><text x="0" y="14" font-family="Virgil, Segoe UI Emoji" font-size="16px" fill="#000000" text-anchor="start" style="white-space: pre;" direction="ltr">Request</text></g><g stroke-linecap="round" transform="translate(715.99609375 203.33984375) rotate(0 70.5 49.5)"><path d="M71 0 C87.47 11.76, 103.94 23.53, 141 50 M71 0 C96.21 18.01, 121.43 36.02, 141 50 M141 50 C126.86 59.9, 112.72 69.8, 71 99 M141 50 C125.04 61.17, 109.08 72.34, 71 99 M71 99 C53.74 87.09, 36.48 75.17, 0 50 M71 99 C54.65 87.72, 38.31 76.44, 0 50 M0 50 C22.93 33.86, 45.85 17.71, 71 0 M0 50 C15.41 39.15, 30.82 28.29, 71 0" stroke="#000000" stroke-width="1" fill="none"/></g><g stroke-linecap="round" transform="translate(1119.78125 223.365234375) rotate(0 72.1953125 26.669921875)"><path d="M0 0 C50.73 0, 101.46 0, 144.39 0 M0 0 C32.27 0, 64.53 0, 144.39 0 M144.39 0 C144.39 17.71, 144.39 35.42, 144.39 53.34 M144.39 0 C144.39 19.13, 144.39 38.26, 144.39 53.34 M144.39 53.34 C103.8 53.34, 63.21 53.34, 0 53.34 M144.39 53.34 C108.35 53.34, 72.31 53.34, 0 53.34 M0 53.34 C0 37.19, 0 21.04, 0 0 M0 53.34 C0 34.19, 0 15.04, 0 0" stroke="#000000" stroke-width="1" fill="none"/></g><g transform="translate(1129.4765625 237.53515625) rotate(0 62.5 12.5)"><text x="62.5" y="18" font-family="Virgil, Segoe UI Emoji" font-size="20px" fill="#000000" text-anchor="middle" style="white-space: pre;" direction="ltr">tRPC Server</text></g><g transform="translate(748.99609375 232.83984375) rotate(0 37.5 20)"><text x="37.5" y="14" font-family="Virgil, Segoe UI Emoji" font-size="16px" fill="#000000" text-anchor="middle" style="white-space: pre;" direction="ltr">passes </text><text x="37.5" y="34" font-family="Virgil, Segoe UI Emoji" font-size="16px" fill="#000000" text-anchor="middle" style="white-space: pre;" direction="ltr">condition?</text></g><g stroke-linecap="round" transform="translate(745.009765625 106.328125) rotate(0 43.978515625 17.5)"><path d="M0 0 C23.34 0, 46.67 0, 87.96 0 M0 0 C20.22 0, 40.43 0, 87.96 0 M87.96 0 C87.96 9.92, 87.96 19.84, 87.96 35 M87.96 0 C87.96 7.2, 87.96 14.4, 87.96 35 M87.96 35 C58.63 35, 29.31 35, 0 35 M87.96 35 C58.79 35, 29.63 35, 0 35 M0 35 C0 25.88, 0 16.76, 0 0 M0 35 C0 23.94, 0 12.87, 0 0" stroke="#000000" stroke-width="1" fill="none"/></g><g transform="translate(770.48828125 111.328125) rotate(0 18.5 12.5)"><text x="18.5" y="18" font-family="Virgil, Segoe UI Emoji" font-size="20px" fill="#000000" text-anchor="middle" style="white-space: pre;" direction="ltr">Link</text></g><g stroke-linecap="round" transform="translate(697.2890625 454.5029296875) rotate(0 92 21)"><path d="M0 0 C61.13 0, 122.26 0, 184 0 M0 0 C59.77 0, 119.53 0, 184 0 M184 0 C184 15.52, 184 31.04, 184 42 M184 0 C184 9.38, 184 18.76, 184 42 M184 42 C137.76 42, 91.51 42, 0 42 M184 42 C140.14 42, 96.28 42, 0 42 M0 42 C0 26.43, 0 10.86, 0 0 M0 42 C0 32.82, 0 23.65, 0 0" stroke="#000000" stroke-width="1" fill="none"/></g><g transform="translate(710.2890625 463.0029296875) rotate(0 79 12.5)"><text x="79" y="18" font-family="Virgil, Segoe UI Emoji" font-size="20px" fill="#000000" text-anchor="middle" style="white-space: pre;" direction="ltr">Terminating Link</text></g><g stroke-linecap="round" transform="translate(744.0048828125 368.6181640625) rotate(0 43.978515625 17.5)"><path d="M0 0 C23.91 0, 47.82 0, 87.96 0 M0 0 C27.44 0, 54.89 0, 87.96 0 M87.96 0 C87.96 9.19, 87.96 18.39, 87.96 35 M87.96 0 C87.96 8.23, 87.96 16.46, 87.96 35 M87.96 35 C64.92 35, 41.88 35, 0 35 M87.96 35 C62.79 35, 37.62 35, 0 35 M0 35 C0 26.93, 0 18.85, 0 0 M0 35 C0 27.71, 0 20.42, 0 0" stroke="#000000" stroke-width="1" fill="none"/></g><g transform="translate(769.4833984375 373.6181640625) rotate(0 18.5 12.5)"><text x="18.5" y="18" font-family="Virgil, Segoe UI Emoji" font-size="20px" fill="#000000" text-anchor="middle" style="white-space: pre;" direction="ltr">Link</text></g><g stroke-linecap="round" transform="translate(683.5234375 18.05078125) rotate(0 108.587890625 65.34375)"><path d="M0 0 C49.44 0, 98.88 0, 217.18 0 M0 0 C68.04 0, 136.09 0, 217.18 0 M217.18 0 C217.18 48.99, 217.18 97.98, 217.18 130.69 M217.18 0 C217.18 46.77, 217.18 93.54, 217.18 130.69 M217.18 130.69 C157.28 130.69, 97.39 130.69, 0 130.69 M217.18 130.69 C134.66 130.69, 52.14 130.69, 0 130.69 M0 130.69 C0 83.9, 0 37.12, 0 0 M0 130.69 C0 98.82, 0 66.96, 0 0" stroke="#1864ab" stroke-width="1" fill="none"/></g><g stroke-linecap="round" transform="translate(679.556640625 353.71484375) rotate(0 108.587890625 80.244140625)"><path d="M0 0 C63.58 0, 127.17 0, 217.18 0 M0 0 C43.86 0, 87.72 0, 217.18 0 M217.18 0 C217.18 45.65, 217.18 91.3, 217.18 160.49 M217.18 0 C217.18 61.4, 217.18 122.81, 217.18 160.49 M217.18 160.49 C157.62 160.49, 98.07 160.49, 0 160.49 M217.18 160.49 C143.78 160.49, 70.38 160.49, 0 160.49 M0 160.49 C0 100.59, 0 40.68, 0 0 M0 160.49 C0 124.95, 0 89.42, 0 0" stroke="#c92a2a" stroke-width="1" fill="none"/></g><g transform="translate(745.11328125 151.46484375) rotate(0 20 10)"><text x="0" y="16" font-family="Cascadia, Segoe UI Emoji" font-size="16px" fill="#1864ab" text-anchor="start" style="white-space: pre;" direction="ltr">true</text></g><g transform="translate(791.125 153.1015625) rotate(0 27.5 10)"><text x="0" y="14" font-family="Virgil, Segoe UI Emoji" font-size="16px" fill="#1864ab" text-anchor="start" style="white-space: pre;" direction="ltr">Branch</text></g><g transform="translate(739.384765625 329.833984375) rotate(0 24.5 10)"><text x="0" y="16" font-family="Cascadia, Segoe UI Emoji" font-size="16px" fill="#c92a2a" text-anchor="start" style="white-space: pre;" direction="ltr">false</text></g><g transform="translate(795.177734375 332.236328125) rotate(0 27.5 10)"><text x="0" y="14" font-family="Virgil, Segoe UI Emoji" font-size="16px" fill="#c92a2a" text-anchor="start" style="white-space: pre;" direction="ltr">Branch</text></g><g stroke-linecap="round"><g transform="translate(737.6484375 397.29296875) rotate(0 -12.445825721510005 25.517578125)"><path d="M0 0 C-3.93 3.75, -19.94 13.97, -23.58 22.47 C-27.23 30.98, -22.14 46.28, -21.85 51.04 M0 0 C-3.93 3.75, -19.94 13.97, -23.58 22.47 C-27.23 30.98, -22.14 46.28, -21.85 51.04" stroke="#000000" stroke-width="1" fill="none"/></g><g transform="translate(737.6484375 397.29296875) rotate(0 -12.445825721510005 25.517578125)"><path d="M-29.03 38.66 C-26.87 42.38, -24.71 46.1, -21.85 51.04 M-29.03 38.66 C-26.66 42.74, -24.3 46.82, -21.85 51.04" stroke="#000000" stroke-width="1" fill="none"/></g><g transform="translate(737.6484375 397.29296875) rotate(0 -12.445825721510005 25.517578125)"><path d="M-19.4 36.94 C-20.13 41.18, -20.87 45.42, -21.85 51.04 M-19.4 36.94 C-20.2 41.59, -21.01 46.23, -21.85 51.04" stroke="#000000" stroke-width="1" fill="none"/></g></g><g stroke-linecap="round"><g transform="translate(863.7919921875 394.673828125) rotate(138.77121557282686 -12.445825721510005 25.517578125)"><path d="M0 0 C-3.93 3.75, -19.94 13.97, -23.58 22.47 C-27.23 30.98, -22.14 46.28, -21.85 51.04 M0 0 C-3.93 3.75, -19.94 13.97, -23.58 22.47 C-27.23 30.98, -22.14 46.28, -21.85 51.04" stroke="#000000" stroke-width="1" fill="none"/></g><g transform="translate(863.7919921875 394.673828125) rotate(138.77121557282686 -12.445825721510005 25.517578125)"><path d="M-29.03 38.66 C-26.22 43.5, -23.41 48.35, -21.85 51.04 M-29.03 38.66 C-27.23 41.77, -25.42 44.88, -21.85 51.04" stroke="#000000" stroke-width="1" fill="none"/></g><g transform="translate(863.7919921875 394.673828125) rotate(138.77121557282686 -12.445825721510005 25.517578125)"><path d="M-19.4 36.94 C-20.36 42.46, -21.32 47.97, -21.85 51.04 M-19.4 36.94 C-20.01 40.48, -20.63 44.02, -21.85 51.04" stroke="#000000" stroke-width="1" fill="none"/></g></g><g transform="translate(689.23046875 386.84375) rotate(0 18.5 10)"><text x="0" y="14" font-family="Virgil, Segoe UI Emoji" font-size="16px" fill="#000000" text-anchor="start" style="white-space: pre;" direction="ltr">down</text></g><g transform="translate(867.796875 399.9453125) rotate(0 9.5 10)"><text x="0" y="14" font-family="Virgil, Segoe UI Emoji" font-size="16px" fill="#000000" text-anchor="start" style="white-space: pre;" direction="ltr">up</text></g><g stroke-linecap="round"><g transform="translate(891.57421875 481.40625) rotate(0 113.6484375 -99.68359375)"><path d="M0 0 C15.15 -19.25, 53 -82.3, 90.89 -115.53 C128.77 -148.76, 204.56 -185.39, 227.3 -199.37 M0 0 C15.15 -19.25, 53 -82.3, 90.89 -115.53 C128.77 -148.76, 204.56 -185.39, 227.3 -199.37" stroke="#000000" stroke-width="1" fill="none"/></g><g transform="translate(891.57421875 481.40625) rotate(0 113.6484375 -99.68359375)"><path d="M207.65 -176.69 C212.3 -182.06, 216.96 -187.43, 227.3 -199.37 M207.65 -176.69 C211.88 -181.57, 216.1 -186.44, 227.3 -199.37" stroke="#000000" stroke-width="1" fill="none"/></g><g transform="translate(891.57421875 481.40625) rotate(0 113.6484375 -99.68359375)"><path d="M197.67 -194.62 C204.69 -195.75, 211.7 -196.87, 227.3 -199.37 M197.67 -194.62 C204.04 -195.64, 210.41 -196.66, 227.3 -199.37" stroke="#000000" stroke-width="1" fill="none"/></g></g><g stroke-linecap="round"><g transform="translate(1175.78125 297.59765625) rotate(0 -142.85546875 100.541015625)"><path d="M0 0 C-18.1 22.25, -61 99.97, -108.62 133.49 C-156.24 167, -256.2 189.82, -285.71 201.08 M0 0 C-18.1 22.25, -61 99.97, -108.62 133.49 C-156.24 167, -256.2 189.82, -285.71 201.08" stroke="#000000" stroke-width="1" fill="none"/></g><g transform="translate(1175.78125 297.59765625) rotate(0 -142.85546875 100.541015625)"><path d="M-261.87 182.87 C-267.16 186.9, -272.44 190.94, -285.71 201.08 M-261.87 182.87 C-267.41 187.1, -272.95 191.33, -285.71 201.08" stroke="#000000" stroke-width="1" fill="none"/></g><g transform="translate(1175.78125 297.59765625) rotate(0 -142.85546875 100.541015625)"><path d="M-255.74 202.45 C-262.38 202.15, -269.02 201.84, -285.71 201.08 M-255.74 202.45 C-262.71 202.13, -269.67 201.81, -285.71 201.08" stroke="#000000" stroke-width="1" fill="none"/></g></g><g transform="translate(1084.4140625 431.62109375) rotate(0 36 10)"><text x="0" y="14" font-family="Virgil, Segoe UI Emoji" font-size="16px" fill="#000000" text-anchor="start" style="white-space: pre;" direction="ltr">Response</text></g><g stroke-linecap="round"><g transform="translate(802.08984375 204.9453125) rotate(0 -0.26953125 -13.751953125)"><path d="M0 0 C-0.09 -4.58, -0.45 -22.92, -0.54 -27.5 M0 0 C-0.09 -4.58, -0.45 -22.92, -0.54 -27.5" stroke="#000000" stroke-width="1" fill="none"/></g><g transform="translate(802.08984375 204.9453125) rotate(0 -0.26953125 -13.751953125)"><path d="M4.42 -14.67 C3.34 -17.47, 2.26 -20.27, -0.54 -27.5 M4.42 -14.67 C3.31 -17.55, 2.2 -20.43, -0.54 -27.5" stroke="#000000" stroke-width="1" fill="none"/></g><g transform="translate(802.08984375 204.9453125) rotate(0 -0.26953125 -13.751953125)"><path d="M-4.99 -14.49 C-4.02 -17.33, -3.05 -20.16, -0.54 -27.5 M-4.99 -14.49 C-3.99 -17.41, -2.99 -20.32, -0.54 -27.5" stroke="#000000" stroke-width="1" fill="none"/></g></g><g stroke-linecap="round"><g transform="translate(811.48046875 299.64453125) rotate(0 0.638671875 12.51171875)"><path d="M0 0 C0.21 4.17, 1.06 20.85, 1.28 25.02 M0 0 C0.21 4.17, 1.06 20.85, 1.28 25.02" stroke="#000000" stroke-width="1" fill="none"/></g><g transform="translate(811.48046875 299.64453125) rotate(0 0.638671875 12.51171875)"><path d="M-3.6 13.48 C-2.17 16.87, -0.74 20.26, 1.28 25.02 M-3.6 13.48 C-1.7 17.98, 0.2 22.48, 1.28 25.02" stroke="#000000" stroke-width="1" fill="none"/></g><g transform="translate(811.48046875 299.64453125) rotate(0 0.638671875 12.51171875)"><path d="M4.96 13.05 C3.88 16.56, 2.8 20.08, 1.28 25.02 M4.96 13.05 C3.52 17.72, 2.09 22.38, 1.28 25.02" stroke="#000000" stroke-width="1" fill="none"/></g></g><g transform="translate(818.79296875 181.91796875) rotate(0 19 12.5)"><text x="0" y="18" font-family="Virgil, Segoe UI Emoji" font-size="20px" fill="#1864ab" text-anchor="start" style="white-space: pre;" direction="ltr">YES</text></g><g transform="translate(822.6328125 293.6328125) rotate(0 14.5 12.5)"><text x="0" y="18" font-family="Virgil, Segoe UI Emoji" font-size="20px" fill="#c92a2a" text-anchor="start" style="white-space: pre;" direction="ltr">NO</text></g><g stroke-linecap="round"><g transform="translate(861.8028103632992 75.34774326312325) rotate(163.74564984755395 -12.445825721510005 25.517578125)"><path d="M0 0 C-3.93 3.75, -19.94 13.97, -23.58 22.47 C-27.23 30.98, -22.14 46.28, -21.85 51.04 M0 0 C-3.93 3.75, -19.94 13.97, -23.58 22.47 C-27.23 30.98, -22.14 46.28, -21.85 51.04" stroke="#000000" stroke-width="1" fill="none"/></g><g transform="translate(861.8028103632992 75.34774326312325) rotate(163.74564984755395 -12.445825721510005 25.517578125)"><path d="M-29.03 38.66 C-27.28 41.68, -25.53 44.7, -21.85 51.04 M-29.03 38.66 C-26.65 42.76, -24.28 46.85, -21.85 51.04" stroke="#000000" stroke-width="1" fill="none"/></g><g transform="translate(861.8028103632992 75.34774326312325) rotate(163.74564984755395 -12.445825721510005 25.517578125)"><path d="M-19.4 36.94 C-19.99 40.38, -20.59 43.81, -21.85 51.04 M-19.4 36.94 C-20.21 41.61, -21.02 46.27, -21.85 51.04" stroke="#000000" stroke-width="1" fill="none"/></g></g><g stroke-linecap="round"><g transform="translate(741.044916455372 78.75504610047605) rotate(321.0767521329165 -12.445825721510005 25.517578125)"><path d="M0 0 C-3.93 3.75, -19.94 13.97, -23.58 22.47 C-27.23 30.98, -22.14 46.28, -21.85 51.04 M0 0 C-3.93 3.75, -19.94 13.97, -23.58 22.47 C-27.23 30.98, -22.14 46.28, -21.85 51.04" stroke="#000000" stroke-width="1" fill="none"/></g><g transform="translate(741.044916455372 78.75504610047605) rotate(321.0767521329165 -12.445825721510005 25.517578125)"><path d="M-29.03 38.66 C-26.85 42.41, -24.67 46.17, -21.85 51.04 M-29.03 38.66 C-26.55 42.93, -24.08 47.19, -21.85 51.04" stroke="#000000" stroke-width="1" fill="none"/></g><g transform="translate(741.044916455372 78.75504610047605) rotate(321.0767521329165 -12.445825721510005 25.517578125)"><path d="M-19.4 36.94 C-20.14 41.21, -20.88 45.49, -21.85 51.04 M-19.4 36.94 C-20.24 41.8, -21.09 46.66, -21.85 51.04" stroke="#000000" stroke-width="1" fill="none"/></g></g><g transform="translate(863.328125 93.41015625) rotate(0 18.5 10)"><text x="0" y="14" font-family="Virgil, Segoe UI Emoji" font-size="16px" fill="#000000" text-anchor="start" style="white-space: pre;" direction="ltr">down</text></g><g transform="translate(694.94921875 90.828125) rotate(0 9.5 10)"><text x="0" y="14" font-family="Virgil, Segoe UI Emoji" font-size="16px" fill="#000000" text-anchor="start" style="white-space: pre;" direction="ltr">up</text></g><g stroke-linecap="round"><g transform="translate(909.26953125 225.94921875) rotate(75.45668884988032 113.6484375 -99.68359375)"><path d="M0 0 C15.15 -19.25, 53 -82.3, 90.89 -115.53 C128.77 -148.76, 204.56 -185.39, 227.3 -199.37 M0 0 C15.15 -19.25, 53 -82.3, 90.89 -115.53 C128.77 -148.76, 204.56 -185.39, 227.3 -199.37" stroke="#000000" stroke-width="1" fill="none"/></g><g transform="translate(909.26953125 225.94921875) rotate(75.45668884988032 113.6484375 -99.68359375)"><path d="M207.65 -176.69 C215.25 -185.46, 222.84 -194.23, 227.3 -199.37 M207.65 -176.69 C214.74 -184.87, 221.82 -193.05, 227.3 -199.37" stroke="#000000" stroke-width="1" fill="none"/></g><g transform="translate(909.26953125 225.94921875) rotate(75.45668884988032 113.6484375 -99.68359375)"><path d="M197.67 -194.62 C209.13 -196.46, 220.58 -198.29, 227.3 -199.37 M197.67 -194.62 C208.36 -196.34, 219.04 -198.05, 227.3 -199.37" stroke="#000000" stroke-width="1" fill="none"/></g></g><g stroke-linecap="round"><g transform="translate(1106.0516769966605 55.00788060888769) rotate(75.51733944078191 -104.90714574666038 86.45891626611213)"><path d="M0 0 C-14.09 16.74, -49.58 71.62, -84.55 100.44 C-119.52 129.26, -188.94 160.84, -209.81 172.92 M0 0 C-14.09 16.74, -49.58 71.62, -84.55 100.44 C-119.52 129.26, -188.94 160.84, -209.81 172.92" stroke="#000000" stroke-width="1" fill="none"/></g><g transform="translate(1106.0516769966605 55.00788060888769) rotate(75.51733944078191 -104.90714574666038 86.45891626611213)"><path d="M-189.6 150.75 C-197.29 159.17, -204.97 167.6, -209.81 172.92 M-189.6 150.75 C-196.87 158.72, -204.14 166.7, -209.81 172.92" stroke="#000000" stroke-width="1" fill="none"/></g><g transform="translate(1106.0516769966605 55.00788060888769) rotate(75.51733944078191 -104.90714574666038 86.45891626611213)"><path d="M-180.08 168.93 C-191.38 170.44, -202.68 171.96, -209.81 172.92 M-180.08 168.93 C-190.78 170.36, -201.47 171.8, -209.81 172.92" stroke="#000000" stroke-width="1" fill="none"/></g></g><g stroke-linecap="round"><g transform="translate(665.7003737920081 226.59873629051697) rotate(0 31.29181370799199 -9.314726345652986)"><path d="M0 0 C5.63 -3.28, 23.34 -19.83, 33.77 -19.65 C44.2 -19.48, 57.78 -2.42, 62.58 1.03 M0 0 C5.63 -3.28, 23.34 -19.83, 33.77 -19.65 C44.2 -19.48, 57.78 -2.42, 62.58 1.03" stroke="#000000" stroke-width="1" fill="none"/></g><g transform="translate(665.7003737920081 226.59873629051697) rotate(0 31.29181370799199 -9.314726345652986)"><path d="M46.27 -5.92 C52.79 -3.14, 59.31 -0.37, 62.58 1.03 M46.27 -5.92 C52.24 -3.38, 58.22 -0.83, 62.58 1.03" stroke="#000000" stroke-width="1" fill="none"/></g><g transform="translate(665.7003737920081 226.59873629051697) rotate(0 31.29181370799199 -9.314726345652986)"><path d="M54.55 -14.78 C57.76 -8.46, 60.97 -2.14, 62.58 1.03 M54.55 -14.78 C57.49 -8.99, 60.43 -3.2, 62.58 1.03" stroke="#000000" stroke-width="1" fill="none"/></g></g><g transform="translate(685.5050612920081 186.17979097801702) rotate(0 18.5 10)"><text x="0" y="14" font-family="Virgil, Segoe UI Emoji" font-size="16px" fill="#000000" text-anchor="start" style="white-space: pre;" direction="ltr">down</text></g><g stroke-linecap="round"><g transform="translate(722.8046875 276.1011669225271) rotate(0 -28.4609375 12.592394441348574)"><path d="M0 0 C-5.42 4.19, -23.05 24.34, -32.54 25.16 C-42.02 25.98, -52.86 8.3, -56.92 4.93 M0 0 C-5.42 4.19, -23.05 24.34, -32.54 25.16 C-42.02 25.98, -52.86 8.3, -56.92 4.93" stroke="#000000" stroke-width="1" fill="none"/></g><g transform="translate(722.8046875 276.1011669225271) rotate(0 -28.4609375 12.592394441348574)"><path d="M-43.04 12.56 C-46.5 10.65, -49.97 8.75, -56.92 4.93 M-43.04 12.56 C-47.4 10.16, -51.76 7.76, -56.92 4.93" stroke="#000000" stroke-width="1" fill="none"/></g><g transform="translate(722.8046875 276.1011669225271) rotate(0 -28.4609375 12.592394441348574)"><path d="M-51.19 19.7 C-52.62 16.01, -54.05 12.33, -56.92 4.93 M-51.19 19.7 C-52.99 15.06, -54.79 10.42, -56.92 4.93" stroke="#000000" stroke-width="1" fill="none"/></g></g><g transform="translate(686.158203125 302.8910205774729) rotate(0 9.5 10)"><text x="0" y="14" font-family="Virgil, Segoe UI Emoji" font-size="16px" fill="#000000" text-anchor="start" style="white-space: pre;" direction="ltr">up</text></g></svg>