<svg width="100" height="39" xmlns="http://www.w3.org/2000/svg">
    <path d="M19.25 9v19.24H16v-2.37a9.63 9.63 0 1 1 0-14.51V9ZM16 18.63A6.32 6.32 0 1 0 9.64 25 6.32 6.32 0 0 0 16 18.63ZM22.29 0h3.29v28.24h-3.29ZM47.6 34.27v.07a5.41 5.41 0 0 1-.69 2.52 4.78 4.78 0 0 1-1.39 1.54 5.61 5.61 0 0 1-3.25 1H34a5.21 5.21 0 0 1-3.88-1.5 6.25 6.25 0 0 1-1.53-4.2l3.29.11a2.58 2.58 0 0 0 .62 1.83 2 2 0 0 0 1.5.47h8.29c1.68 0 2-1.1 2-1.75a2 2 0 0 0-2-1.76h-8.2a5.35 5.35 0 0 1-5.52-5.51 6.07 6.07 0 0 1 1.24-3.62 9.5 9.5 0 0 1-1.31-4.86A9.62 9.62 0 0 1 38.11 9a9.72 9.72 0 0 1 5.37 1.61A5.78 5.78 0 0 1 47.53 9v3.28a2.54 2.54 0 0 0-1.72.63 9.67 9.67 0 0 1 1.86 5.7 9.79 9.79 0 0 1-5.44 8.7 10 10 0 0 1-4.16.91 9.75 9.75 0 0 1-6.07-2.1 3 3 0 0 0-.18.95 2.08 2.08 0 0 0 2.23 2.27h8.18a5.61 5.61 0 0 1 3.25 1.05 5.45 5.45 0 0 1 2.12 3.88ZM31.78 18.63a6.46 6.46 0 0 0 .84 3.15 5.88 5.88 0 0 0 1.43 1.71A6.34 6.34 0 0 0 38.11 25a6.26 6.26 0 0 0 6.32-6.32 6.27 6.27 0 0 0-2.16-4.71 6.2 6.2 0 0 0-4.16-1.61 6.35 6.35 0 0 0-6.33 6.27Zm36.76 0A9.63 9.63 0 1 1 58.93 9a9.62 9.62 0 0 1 9.61 9.63Zm-9.61-6.32a6.32 6.32 0 1 0 6.32 6.32 6.35 6.35 0 0 0-6.32-6.32Zm21.42 1.79h-3.28a1.9 1.9 0 0 0-.4-1.31 2 2 0 0 0-1.28-.48 1.83 1.83 0 0 0-2 1.57v14.36h-3.27V9h3.29v.4a5.24 5.24 0 0 1 1.9-.4 5.47 5.47 0 0 1 3.62 1.35 5 5 0 0 1 1.42 3.75ZM100.14 9v19.24h-3.29v-2.37a9.63 9.63 0 1 1 0-14.51V9Zm-3.29 9.64A6.32 6.32 0 1 0 90.53 25a6.32 6.32 0 0 0 6.32-6.37Z"/>
</svg>
