<svg width="164" height="24" viewBox="0 0 164 24" fill="none" xmlns="http://www.w3.org/2000/svg">
  <g clip-path="url(#clip0_60_549)">
    <path
      d="M28.3155 10.7107C28.2254 10.6205 28.1366 10.5336 28.0425 10.4499C26.6311 9.23203 25.2551 7.95338 23.9146 6.61401C22.4953 5.19473 21.1465 3.72693 19.8635 2.22701C19.7487 2.09067 19.627 1.95819 19.4986 1.82959C18.9186 1.24954 18.23 0.789421 17.4722 0.475498C16.7144 0.161575 15.9022 0 15.0819 0C14.2617 0 13.4494 0.161575 12.6916 0.475498C11.9338 0.789421 11.2452 1.24954 10.6653 1.82959C10.5368 1.958 10.4152 2.09048 10.3003 2.22701C9.01742 3.72693 7.6686 5.19473 6.24932 6.61401C4.90998 7.95338 3.53404 9.23203 2.12151 10.4499C2.02734 10.5336 1.93867 10.6205 1.84845 10.7107C0.767366 11.7921 0.116 13.2295 0.0155763 14.7553C-0.0848479 16.2811 0.37251 17.7914 1.30253 19.0052C2.23256 20.2189 3.5719 21.0535 5.07129 21.3534C6.57068 21.6534 8.128 21.3984 9.45341 20.6359C9.62011 20.5401 9.78669 20.4496 9.95672 20.3624C11.5439 19.5529 13.3003 19.1308 15.082 19.1308C16.8637 19.1308 18.6201 19.5529 20.2072 20.3624C20.3773 20.4496 20.5439 20.5401 20.7106 20.6359C22.036 21.3984 23.5933 21.6534 25.0927 21.3535C26.5921 21.0535 27.9314 20.219 28.8615 19.0052C29.7915 17.7914 30.2489 16.2811 30.1484 14.7553C30.048 13.2295 29.3966 11.7921 28.3155 10.7107Z"
      fill="black" />
    <path
      d="M45.9817 9.22856H61.1256L61.1258 12.5666H45.9817V19.022H42.6172V2.55481H61.9959V5.93979H45.9817V9.22856Z"
      fill="black" />
    <path d="M68.0675 5.93945H64.3711V19.0216H68.0675V5.93945Z" fill="black" />
    <path
      d="M106.015 15.5217L105.992 18.5514C104.231 19.1182 102.389 19.3998 100.539 19.3855C98.4157 19.3855 96.8398 18.9122 95.8547 17.9787C94.994 17.1632 94.5574 15.9662 94.5574 14.4215V9.22835H90.5918V5.93955H94.5574V2.14062H97.9221V5.93955H105.703V9.22835H97.922V13.6813C97.922 14.7235 98.1387 15.3761 98.6254 15.7963C99.1177 16.2212 99.8891 16.4105 101.128 16.4105C102.215 16.4106 103.747 16.3073 106.015 15.5217Z"
      fill="black" />
    <path
      d="M124.723 7.48087C122.908 6.2704 120.328 5.60449 117.46 5.60449C114.567 5.60449 111.961 6.28213 110.123 7.51373C108.236 8.77821 107.238 10.5286 107.238 12.5763C107.238 14.6217 108.243 16.3643 110.144 17.6163C111.974 18.822 114.554 19.4855 117.41 19.4855C120.283 19.4855 122.871 18.8251 124.7 17.6256C126.602 16.3776 127.608 14.6319 127.608 12.5763C127.608 10.5005 126.611 8.73832 124.723 7.48087ZM122.067 15.5083C120.91 16.164 119.3 16.5106 117.41 16.5106C115.529 16.5106 113.923 16.1608 112.767 15.4981C111.532 14.7916 110.878 13.7633 110.878 12.5262C110.878 11.3244 111.492 10.3244 112.651 9.63266C113.792 8.95193 115.438 8.59199 117.41 8.59199C119.381 8.59199 121.028 8.948 122.173 9.6225C123.347 10.3134 123.968 11.3181 123.968 12.5262C123.968 13.772 123.31 14.8032 122.067 15.5083Z"
      fill="black" />
    <path
      d="M140.592 9.61346C139.941 9.436 139.269 9.34808 138.595 9.35213C137.658 9.35792 136.727 9.49969 135.83 9.77299C133.825 10.3803 132.675 11.8028 132.675 13.6768V19.0219H129.348V5.93977H132.675V7.96247L132.949 7.64478C133.937 6.50081 136.299 5.73242 138.826 5.73242C139.409 5.73278 139.991 5.77147 140.569 5.84824L140.592 9.61346Z"
      fill="black" />
    <path
      d="M162.337 5.93994L151.979 23.0001H147.828L150.094 19.4094L150.146 19.3265L150.094 19.2427L141.801 5.93994H146.159L152.169 15.634L152.303 15.8516L152.435 15.6323L158.293 5.93994H162.337Z"
      fill="black" />
    <path d="M68.3926 0.94043H64.1016V4.00694H68.3926V0.94043Z" fill="black" />
    <path
      d="M90.0692 16.8113C90.0575 17.5319 90.0442 18.2745 90.0426 19.0217H86.0958C86.0958 18.5264 86.0974 18.0491 86.0982 17.5796C86.1005 16.4545 86.1021 15.3926 86.0943 14.2228C86.081 12.3246 85.685 10.9764 84.8846 10.1C84.0896 9.22912 82.865 8.79012 81.1412 8.7566C81.0684 8.75503 80.9957 8.75503 80.9237 8.75503C79.0536 8.75503 77.5974 9.23624 76.5982 10.187C75.6099 11.1259 75.0677 12.5226 74.9863 14.3356C74.9338 15.5007 74.9456 16.4358 74.9597 17.5195C74.9651 17.993 74.9714 18.4804 74.973 19.0187H71.0137V5.93961H74.8188L75.0684 7.57887L75.106 7.82457L75.3118 7.6845C77.2652 6.3129 79.5979 5.58502 81.9847 5.60235C82.7781 5.60531 83.5698 5.67414 84.3517 5.80815C85.9675 6.08124 87.3384 6.7604 88.3157 7.77215C89.3347 8.85717 89.9349 10.2691 90.009 11.7557C90.1279 13.4185 90.0997 15.0664 90.0692 16.8113Z"
      fill="black" />
  </g>
  <defs>
    <clipPath id="clip0_60_549">
      <rect width="162.335" height="24" fill="black" />
    </clipPath>
  </defs>
</svg>