<svg width="97" height="43" xmlns="http://www.w3.org/2000/svg">
    <path fill-rule="evenodd" d="M81.272 5.624c.583-.788 1.058-1.312 1.533-1.525l.011-.01c1.269-.732-1.375-5.565-6.239-1.626-2.948 2.415-4.755 7.813-4.98 12.506a.159.159 0 0 0-.008.026c-1.058 5.096-5.18 7.408-7.032 7.565 2.592-4.41 5.498-14.232 1.8-18.646l-.322-.315c-1.16-1.103-4.174-2.363-6.607-1.312a6.36 6.36 0 0 0-2.069 1.575c-1.272-2.154-6.187-2.362-6.294-.945-.311 3.369-.898 7.57-1.562 12.008-1.92 6.443-4.614 8.277-5.51 6.338-1.154-2.56.013-8.012.919-12.246.34-1.59.644-3.009.774-4.038.485-3.52-6.601-4.045-6.55-2.363l.004.004c-.009.615-.062 1.23-.159 1.838a4.176 4.176 0 0 0-.69-.945c-1.723-1.945-5.018-2.051-6.549-1.524l-.478.158c-3.18 1.561-5.55 7.523-6.153 12.783-1.92 6.446-4.613 8.28-5.512 6.34-1.158-2.566.009-8.037.785-11.676.146-.683.277-1.3.378-1.823.689-3.52-.952-5.99-4.654-6.147a4.633 4.633 0 0 0-3.065.945c-1.64 1.316-3.543 5.309-4.709 8.353.425-2.168.793-4.202 1.007-5.934h.007c.485-3.522-6.442-4.045-6.55-2.364C2.6 5.061 2.185 7.97 1.766 10.92 1.299 14.2.824 17.534.63 20.327c-.369 5.304 5.288 5.25 5.288 4.304v-.21c.201-.628.433-1.38.692-2.22 1.644-5.338 4.37-14.19 7.295-17.004.475-.472.583 0 .528.788-.127 1.499-.45 3.092-.779 4.717-.766 3.783-1.567 7.74-.014 11.094 1.323 2.942 4.918 3.938 7.773 2.783 1.538-.619 2.834-1.88 3.911-3.899.106.403.235.775.39 1.11 1.375 2.943 4.915 3.94 7.773 2.785a3.977 3.977 0 0 0 1.585-1.102 14.008 14.008 0 0 0 2.379-3.573c.122.65.317 1.284.582 1.89 1.324 2.943 4.92 3.94 7.773 2.785.927-.373 1.758-.964 2.505-1.804-.925 6.096-1.78 11.995-2.071 16.231-.318 4.675 6.82 3.887 6.77 2.415-.266-6.144.42-12.921 1.32-18.962.025.027.052.067.079.106.027.04.053.079.08.106 1.426 2.637 4.387 2.898 7.086 2.74 4.434-.288 8.19-2.126 10.445-5.766 1.512 5.204 7.027 7.544 11.258 5.199 2.644-1.524 4.495-4.938 5.553-8.774 3.292.107 6.98-1.986 7.773-4.726.159-.527-1.954-1.103-1.954-1.103-.53 2.1-3.123 3.624-5.236 3.517.49-2.364.686-4.78.582-7.191a14.817 14.817 0 0 0-.213-1.681c-.21-1.155-.476-2.049-.952-2.627-.9-1.37-4.178-1.668-5.288 3.424-.58 2.792-.523 6.507 1.324 8.664a6.3 6.3 0 0 0 1.483 1.154c-1.072 4.045-3.013 7.408-4.865 7.301-4.76-.26-3.119-13.064-.213-17.173Zm-43.67.913c.531 2.908-.475 8.42-3.12 14.04l.012-.017c-1.07 1.733-2.07 2.312-2.759.685-1.482-3.205.263-10.191 2.22-14.342 1.058-2.363 3.12-3.36 3.648-.366Zm20.22 15.088c2.378-2.153 3.86-8.51 4.136-13.078.159-3.466-1.586-6.462-3.647-2.312-1.85 3.679-3.543 12.328-2.327 15.182.318.787.952.996 1.851.208h-.013Z" clip-rule="evenodd"/>
</svg>
