<svg width="97" height="43" viewBox="0 0 97 43" fill="none" xmlns="http://www.w3.org/2000/svg">
<path fill-rule="evenodd" clip-rule="evenodd" d="M81.2719 5.62417C81.8547 4.83648 82.3296 4.31191 82.8053 4.09907L82.8163 4.08985C84.0849 3.35663 81.4406 -1.47593 76.577 2.46252C73.6287 4.87764 71.8217 10.2761 71.5966 14.9692C71.5935 14.9772 71.591 14.9858 71.5891 14.9952C70.5305 20.0909 66.4084 22.4028 64.5569 22.5604C67.1489 18.1493 70.0548 8.32751 66.3561 3.91393L66.0355 3.59886C64.8741 2.49609 61.8611 1.23579 59.4276 2.2866C58.6362 2.66437 57.932 3.20074 57.3594 3.86198C56.0874 1.7084 51.1723 1.49975 51.0652 2.91675C50.7535 6.28569 50.1665 10.4868 49.5032 14.9251C47.5837 21.3684 44.8888 23.2024 43.993 21.2627C42.8385 18.7031 44.0056 13.2509 44.9119 9.01715C45.2523 7.42656 45.556 6.00795 45.6859 4.97931C46.1709 1.45817 39.0847 0.934444 39.1362 2.61624L39.1396 2.6196C39.1311 3.23466 39.078 3.84973 38.981 4.4581C38.7971 4.11285 38.5652 3.79443 38.2919 3.51287C36.5678 1.56795 33.2731 1.46153 31.7421 1.98944L31.2639 2.14698C28.0844 3.70804 25.7133 9.67019 25.111 14.9303C23.1907 21.3761 20.4984 23.2109 19.5991 21.2709C18.4413 18.7044 19.608 13.2331 20.3841 9.59372C20.5296 8.91145 20.6613 8.29357 20.7615 7.77127C21.4506 4.25097 19.81 1.78149 16.1079 1.62395C15.0055 1.5645 13.9182 1.89989 13.0435 2.56917C11.4021 3.88478 9.49999 7.8777 8.33428 10.922C8.75856 8.75421 9.12717 6.71963 9.34141 4.98755H9.34816C9.83317 1.46641 2.90556 0.94268 2.79843 2.62448C2.59917 5.06111 2.18532 7.96916 1.76554 10.919C1.29862 14.1999 0.824355 17.5326 0.629812 20.3257C0.261206 25.63 5.91767 25.5756 5.91767 24.6303V24.4208C6.11933 23.7922 6.35124 23.0392 6.60997 22.1991C8.25382 16.8617 10.9801 8.00968 13.9047 5.1962C14.3804 4.72359 14.4876 5.1962 14.4327 5.98389C14.306 7.48296 13.9835 9.07576 13.6544 10.7007C12.8882 14.4838 12.0868 18.4411 13.6399 21.7947C14.9633 24.7368 18.5583 25.7331 21.4127 24.5784C22.951 23.9595 24.2466 22.6973 25.3244 20.6792C25.4299 21.0821 25.5593 21.4543 25.7137 21.7898C27.0886 24.7319 30.6287 25.7282 33.4865 24.5743C34.0984 24.3421 34.6431 23.9633 35.0722 23.4716C36.0447 22.4089 36.8469 21.2041 37.4509 19.8993C37.5731 20.5491 37.7683 21.1832 38.0329 21.7898C39.3572 24.7319 42.9522 25.7282 45.8065 24.5743C46.7331 24.2013 47.5643 23.6099 48.3109 22.7698C47.3858 28.8658 46.5319 34.765 46.2396 39.0013C45.9224 43.6755 53.0609 42.8878 53.0095 41.4155C52.7438 35.2715 53.4295 28.4949 54.3295 22.454C54.3553 22.4812 54.382 22.5206 54.4088 22.56C54.4356 22.5993 54.4624 22.6387 54.4881 22.666C55.9153 25.303 58.876 25.5637 61.5751 25.4061C66.0094 25.1184 69.7641 23.2801 72.02 19.6402C73.5321 24.8438 79.0469 27.1843 83.2777 24.8388C85.922 23.3145 87.7727 19.9006 88.8313 16.0652C92.1234 16.1717 95.8112 14.0793 96.6041 11.3391C96.7626 10.812 94.6497 10.2363 94.6497 10.2363C94.1191 12.3354 91.5271 13.8597 89.4141 13.7533C89.9043 11.3889 90.0998 8.97364 89.9961 6.56185C89.9573 5.9979 89.8856 5.43646 89.7827 4.88089C89.5727 3.72617 89.307 2.83206 88.8313 2.25386C87.9312 0.884626 84.6534 0.586309 83.5434 5.6778C82.9639 8.4699 83.0196 12.1855 84.8668 14.3424C85.3002 14.7986 85.8 15.1876 86.3497 15.4963C85.2776 19.5411 83.3367 22.9039 81.4853 22.7975C76.7254 22.5377 78.366 9.73272 81.2719 5.62417ZM37.6027 6.53709C38.1333 9.44484 37.127 14.9578 34.4826 20.5772L34.4936 20.5605C33.4241 22.2925 32.4245 22.8724 31.7354 21.2451C30.2525 18.0399 31.9977 11.0537 33.9555 6.90328C35.0132 4.54022 37.0747 3.54387 37.6027 6.53709ZM57.8216 21.6252C60.2002 19.4716 61.6823 13.1157 61.9581 8.54705C62.1167 5.08122 60.3723 2.08465 58.3108 6.2351C56.4602 9.91378 54.7682 18.5633 55.9845 21.4166C56.3016 22.2042 56.9359 22.4129 57.8351 21.6252H57.8216Z" fill="#0061FF"/>
</svg>
