<svg width="72" height="24" viewBox="0 0 72 24" fill="none" xmlns="http://www.w3.org/2000/svg">
<path d="M29.8152 16.1315C31.1269 17.9829 33.2238 19.1726 35.647 19.1726L35.6438 19.1694C38.8554 19.1694 41.5403 17.1224 42.3933 14.1464V14.0812L45.6048 18.3773C43.4433 21.6825 39.7051 23.8631 35.5792 23.8631C31.4533 23.8631 28.1092 21.7477 25.686 18.5077C23.3953 15.4013 17.431 7.40242 17.431 7.40242C16.187 5.74657 14.1548 4.69048 11.8608 4.69048C7.92874 4.69048 4.71718 7.93046 4.71718 11.8973C4.71718 15.8642 7.92874 19.1042 11.8608 19.1042C15.0724 19.1042 17.7573 16.9887 18.6749 14.1464V14.0812L21.8864 18.3773C19.7249 21.7509 16.0546 23.9315 11.8608 23.9315C5.30844 23.9315 0 18.5761 0 11.9658C0 5.35542 5.30844 0 11.8608 0C15.99 0 19.5925 2.11544 21.754 5.29023L29.8152 16.1315Z" fill="#F028B8"/>
<path d="M49.4072 5.48581C51.5687 2.18063 55.2391 0 59.4329 0C65.9852 0 71.2258 5.42388 71.2258 12.0342C71.2258 18.6446 65.9174 24 59.365 24C55.4329 24 51.8951 21.9497 49.7336 19.0422C47.572 16.1347 41.5431 8.00217 41.5431 8.00217C40.2992 6.08556 38.0698 4.83064 35.6466 4.83064C32.4351 4.83064 29.7502 6.94608 28.8326 9.85359L25.621 5.55752C27.7825 2.18389 31.4529 0.00325954 35.6466 0.00325954C39.4462 0.00325954 42.8549 1.78949 45.0164 4.63181L53.4685 16.0011C54.7803 17.9177 56.9418 19.1726 59.4329 19.1726C63.3649 19.1726 66.5765 15.9326 66.5765 11.9658C66.5765 7.99891 63.3649 4.75893 59.4329 4.75893C56.2213 4.75893 53.5364 6.87437 52.6188 9.78188L49.4072 5.48581Z" fill="#F028B8"/>
</svg>
