<svg width="79" height="29" xmlns="http://www.w3.org/2000/svg">
    <path d="M13.9 13.1a3.5 3.5 0 0 1-1 2.5 3.5 3.5 0 0 1-2.5 1H4.8v-7h5.6c1 0 1.8.4 2.5 1a3.5 3.5 0 0 1 1 2.5zm5 0a8.4 8.4 0 0 0-2.5-5.9 8.2 8.2 0 0 0-5.8-2.4H0v23.7h4.8v-7h5.8a8.2 8.2 0 0 0 5.8-2.5 8.4 8.4 0 0 0 2.4-5.9zm17.8 15.4h17.2v-4.8H41.4V21c2.2-.6 4.4-1.6 6.6-3l2-1.3-2.5-4-2 1.2a23.5 23.5 0 0 1-4 2V9.7h12.4V4.8H36.7V17c-2.3.1-4.2-.5-5.5-1.3-2.7-1.5-6-5-6-13.3V0h-4.7v2.4c0 8.4 3 14.4 8.4 17.5a14.7 14.7 0 0 0 7.3 2h.5v6.6zm37.6-11.8a9.5 9.5 0 0 1-.5 3 7 7 0 0 1-1.3 2.4 6.1 6.1 0 0 1-2 1.5 6.3 6.3 0 0 1-2.7.6 6.4 6.4 0 0 1-2.8-.6 6 6 0 0 1-2-1.5 7 7 0 0 1-1.4-2.4 10 10 0 0 1 0-6 7 7 0 0 1 1.4-2.4 6 6 0 0 1 2-1.6 6.4 6.4 0 0 1 2.8-.6 6.3 6.3 0 0 1 2.7.6 6 6 0 0 1 2 1.6 7 7 0 0 1 1.3 2.4 9.5 9.5 0 0 1 .5 3zm4.7 0a15 15 0 0 0-.8-5A11.5 11.5 0 0 0 76 7.9a10.3 10.3 0 0 0-3.6-2.5 11.4 11.4 0 0 0-9.3 0 10.3 10.3 0 0 0-3.6 2.5 11.5 11.5 0 0 0-2.2 4 15.8 15.8 0 0 0 0 9.8 11.3 11.3 0 0 0 2.2 4 10.4 10.4 0 0 0 3.6 2.5 12 12 0 0 0 9.3-.1 10.4 10.4 0 0 0 3.6-2.5 11.3 11.3 0 0 0 2.2-3.9c.5-1.6.8-3.2.8-5"/>
</svg>
