<svg id="Layer_1" data-name="Layer 1" xmlns="http://www.w3.org/2000/svg" viewBox="0 0 204.73 243.53"><path d="M22.85,195.53H40.43v8.92H22.85v20.24a13.5,13.5,0,0,0,.59,4.29,6.52,6.52,0,0,0,1.67,2.72,6.25,6.25,0,0,0,2.64,1.48,12.75,12.75,0,0,0,3.46.43c.92,0,1.87,0,2.85-.13s1.9-.2,2.8-.35,1.69-.24,2.46-.39,1.43-.29,2-.43l1.18,8.31a14.8,14.8,0,0,1-3,1.28,28.87,28.87,0,0,1-3.61.89c-1.28.24-2.61.42-4,.55s-2.73.19-4.07.19a22.71,22.71,0,0,1-7-1,13.46,13.46,0,0,1-5.38-3.2A13.87,13.87,0,0,1,12,233.85a23.35,23.35,0,0,1-1.22-8V204.45H0v-8.92H10.75V184h12.1Z" style="fill:#398ccb"/><path d="M65.94,218.94v23.68H53.71V179.25H75a34,34,0,0,1,9.53,1.24,21.33,21.33,0,0,1,7.31,3.64,15.9,15.9,0,0,1,4.63,6,19.65,19.65,0,0,1,1.64,8.27,21.37,21.37,0,0,1-.81,6.11,16.26,16.26,0,0,1-5.92,8.64,24.07,24.07,0,0,1-4.72,2.79l13.62,26.15v.57H87.13L75.21,218.94ZM75,209a14.29,14.29,0,0,0,5-.8,8.69,8.69,0,0,0,3.51-2.33A8.42,8.42,0,0,0,85.2,203a11.55,11.55,0,0,0,.58-3.79,12.08,12.08,0,0,0-.76-4.46,7.89,7.89,0,0,0-2.28-3.2,9.65,9.65,0,0,0-3.31-1.74,15.31,15.31,0,0,0-4.48-.61h-9V209Z" style="fill:#398ccb"/><path d="M120.21,242.62H108V179.25h21.67a27.52,27.52,0,0,1,9.36,1.5,21.3,21.3,0,0,1,7.14,4.16,18.64,18.64,0,0,1,4.5,6.44,21.08,21.08,0,0,1,1.59,8.31,19.33,19.33,0,0,1-1.59,7.88,18,18,0,0,1-4.5,6.22A21.09,21.09,0,0,1,139,217.9a27.77,27.77,0,0,1-9.36,1.48h-9.44Zm9.44-33.16a12,12,0,0,0,4.53-.79,9.24,9.24,0,0,0,3.22-2.13,8.94,8.94,0,0,0,1.89-3.11,10.87,10.87,0,0,0,.64-3.68,13.09,13.09,0,0,0-.64-4.13,9.57,9.57,0,0,0-1.89-3.36,9.27,9.27,0,0,0-3.22-2.26,11.41,11.41,0,0,0-4.53-.83h-9.44v20.29Z" style="fill:#398ccb"/><path d="M202.62,231.39a20.24,20.24,0,0,1-4.72,6.53,20.83,20.83,0,0,1-7.05,4.16,26.91,26.91,0,0,1-9.06,1.45,24.6,24.6,0,0,1-7.24-1,20.27,20.27,0,0,1-6-2.94,20.56,20.56,0,0,1-4.33-4.31,26.93,26.93,0,0,1-3.2-5.57,33.25,33.25,0,0,1-1.93-6.7,42.66,42.66,0,0,1-.68-7.75v-8.53a42.67,42.67,0,0,1,.61-7.29,31.52,31.52,0,0,1,1.83-6.42,24.32,24.32,0,0,1,3.66-6.44,23.41,23.41,0,0,1,5.13-4.78,20.92,20.92,0,0,1,5.64-2.55,23.28,23.28,0,0,1,6.59-.89,27,27,0,0,1,9.29,1.48,19,19,0,0,1,11.47,10.92,29.92,29.92,0,0,1,2.09,8.92H192.54a20.48,20.48,0,0,0-.84-5,9.88,9.88,0,0,0-1.94-3.57,8.33,8.33,0,0,0-3.24-2.11,13.38,13.38,0,0,0-4.64-.72,11.39,11.39,0,0,0-2.68.31,8.77,8.77,0,0,0-2.28.91,9.06,9.06,0,0,0-3,3,17.57,17.57,0,0,0-2,4.51,27.2,27.2,0,0,0-.82,4.42,47,47,0,0,0-.26,5.2v8.61a49,49,0,0,0,.41,6.77,23.13,23.13,0,0,0,1.28,5.2,12.79,12.79,0,0,0,1.46,2.7,8.6,8.6,0,0,0,1.94,2,8,8,0,0,0,2.63,1.28,11.67,11.67,0,0,0,3.24.42,14.33,14.33,0,0,0,4.31-.61,8.24,8.24,0,0,0,3.27-1.92,9,9,0,0,0,2.13-3.35,16.77,16.77,0,0,0,1-4.92h12.23A24.31,24.31,0,0,1,202.62,231.39Z" style="fill:#398ccb"/><path d="M101.76,0,71,17.77V53.31l30.78,17.77,30.78-17.77V17.77Zm18.78,20.08L101.76,30.92,83,20.08,101.76,9.24ZM79,27,97.76,37.85V59.53L79,48.69Zm26.78,32.52V37.85L124.54,27V48.69Z" style="fill:#398ccb"/><path d="M149.06,73.9,118.28,91.67V127.2L149.06,145l30.78-17.77V91.67ZM167.84,94l-18.78,10.85L130.28,94l18.78-10.84Zm-41.56,6.93,18.78,10.84v21.69l-18.78-10.84Zm26.78,32.53V111.74l18.78-10.84v21.69Z" style="fill:#398ccb"/><path d="M55.67,73.9,24.89,91.67V127.2L55.67,145,86.45,127.2V91.67ZM74.45,94,55.67,104.82,36.89,94,55.67,83.13ZM32.89,100.9l18.78,10.84v21.69L32.89,122.59Zm26.78,32.53V111.74L78.45,100.9v21.69Z" style="fill:#398ccb"/><path d="M132.54,27.53v9.24l29.3,16.92V81.27l8,4.62V49.07Z" style="fill:#398ccb"/><polygon points="127.41 132.47 102.17 147.04 77.13 132.58 69.13 137.2 102.17 156.28 135.41 137.09 133.67 136.09 127.41 132.47" style="fill:#398ccb"/><polygon points="42.5 53.69 70.98 37.24 70.98 28.01 34.5 49.07 34.5 86.12 42.5 81.5 42.5 53.69" style="fill:#398ccb"/><line x1="77.13" y1="132.58" x2="69.13" y2="137.2" style="fill:#398ccb"/><line x1="42.5" y1="81.5" x2="34.5" y2="86.12" style="fill:#398ccb"/></svg>
