<?xml version="1.0" standalone="no"?>
<!DOCTYPE svg PUBLIC "-//W3C//DTD SVG 20010904//EN"
 "http://www.w3.org/TR/2001/REC-SVG-20010904/DTD/svg10.dtd">
<svg version="1.0" xmlns="http://www.w3.org/2000/svg"
 width="2190.000000pt" height="516.000000pt" viewBox="0 0 2190.000000 516.000000"
 preserveAspectRatio="xMidYMid meet">

<g transform="translate(0.000000,516.000000) scale(0.100000,-0.100000)"
fill="#000000" stroke="none">
<path d="M0 2580 l0 -2580 10950 0 10950 0 0 2580 0 2580 -10950 0 -10950 0 0
-2580z m16590 1636 l0 -465 58 -11 c336 -65 712 -191 1515 -505 164 -64 300
-115 302 -113 1 2 -87 80 -196 173 -183 157 -212 185 -191 185 4 0 110 -89
236 -197 l230 -198 -304 -3 c-196 -1 -307 1 -314 8 -7 7 77 10 259 11 204 0
263 3 240 11 -16 6 -194 75 -395 153 -554 217 -826 312 -1105 389 -103 28
-311 76 -331 76 -2 0 -4 -473 -4 -1051 l0 -1051 43 7 c226 36 699 154 1327
334 480 136 537 151 526 133 -3 -6 -21 -14 -39 -17 -17 -4 -228 -64 -467 -132
-496 -142 -1026 -278 -1242 -318 l-148 -28 -2 -531 -3 -531 -8120 0 -8120 0
-3 2068 -2 2067 8125 0 8125 0 0 -464z m300 -39 c52 -15 100 -47 100 -67 0 -9
-43 -46 -63 -53 -7 -3 1 -17 21 -35 32 -31 41 -52 22 -52 -6 0 -37 21 -70 48
-41 32 -58 53 -57 67 2 12 8 18 17 16 44 -11 57 -11 75 3 19 14 19 15 -17 30
-21 9 -50 16 -66 16 l-28 0 1 -87 c0 -74 -3 -88 -17 -91 -14 -3 -17 9 -20 82
-2 46 0 91 4 98 4 7 9 21 12 32 4 10 12 16 19 13 6 -2 37 -11 67 -20z m1070
-23 c0 -9 12 -14 34 -14 19 0 38 -5 41 -10 6 -10 -1 -14 -47 -24 -26 -6 -28
-10 -28 -57 0 -60 22 -76 51 -38 17 23 18 23 25 5 14 -37 -72 -87 -93 -53 -4
6 -10 37 -13 67 -5 53 -6 55 -35 55 -37 0 -41 26 -6 35 18 4 27 15 33 39 8 27
11 31 23 21 8 -7 15 -19 15 -26z m-133 -58 c-2 -6 -17 -13 -32 -16 -38 -7 -32
-20 24 -50 75 -41 67 -80 -17 -80 -49 0 -82 14 -82 35 0 17 21 20 37 4 6 -6
26 -9 44 -7 l34 3 -62 33 c-70 36 -82 62 -35 80 55 22 97 21 89 -2z m-693 -12
c36 -35 -2 -80 -59 -71 -29 5 -35 3 -35 -12 0 -31 26 -43 79 -39 60 4 68 -12
15 -30 -46 -16 -97 -1 -120 34 -43 65 66 173 120 118z m530 0 c36 -35 -2 -80
-59 -71 -29 5 -35 3 -35 -12 0 -32 26 -44 80 -38 77 9 78 -17 2 -34 -43 -9
-95 9 -112 41 -35 66 73 166 124 114z m-269 -34 c0 -21 7 -37 18 -44 15 -9 22
-6 43 17 13 15 24 35 24 43 0 8 6 14 14 14 10 0 15 -16 18 -52 5 -62 3 -66
-21 -51 -11 7 -23 8 -32 2 -22 -14 -61 -10 -81 8 -18 16 -26 82 -11 97 14 14
28 -2 28 -34z m-73 -43 c-3 -45 0 -63 14 -78 20 -23 14 -33 -15 -24 -12 4 -24
19 -29 38 -8 31 -10 32 -54 29 -38 -3 -48 0 -57 17 -17 31 -14 40 22 61 22 14
46 20 77 18 l45 -3 -3 -58z m4211 -796 c4 -1 7 -244 7 -541 l0 -540 -1455 0
-1455 0 0 539 c0 497 1 540 17 543 13 2 2852 1 2886 -1z m-4481 -1811 c104
-32 124 -74 54 -109 l-28 -13 31 -32 c28 -29 40 -56 26 -56 -3 0 -35 23 -70
52 -78 62 -87 92 -25 82 82 -13 89 21 10 45 -59 17 -65 9 -65 -89 0 -69 -3
-85 -15 -85 -12 0 -15 17 -15 95 0 95 6 130 24 130 5 0 38 -9 73 -20z m406
-78 c2 -7 -9 -15 -27 -18 -43 -9 -46 -19 -10 -34 68 -28 102 -79 63 -94 -33
-12 -92 -6 -115 13 -29 24 -18 38 16 23 29 -13 75 -16 75 -4 0 4 -26 21 -58
37 -68 36 -76 61 -22 81 42 15 72 14 78 -4z m658 7 c8 -14 -14 -29 -43 -29
-35 0 -27 -13 24 -40 57 -30 72 -52 54 -74 -26 -31 -141 -13 -141 22 0 10 6
12 23 7 41 -13 87 -17 87 -8 0 5 -27 22 -59 37 -63 29 -79 47 -56 66 30 25
100 37 111 19z m-818 -21 c34 -34 -8 -84 -63 -74 -41 8 -48 -9 -16 -38 16 -15
30 -17 70 -11 56 8 71 -8 25 -25 -107 -41 -187 47 -118 129 28 33 78 43 102
19z m326 -9 c28 -22 36 -75 14 -97 -15 -15 -53 -15 -80 -1 -20 11 -21 9 -15
-37 3 -27 7 -58 9 -68 6 -35 -20 -27 -32 10 -17 51 -8 169 15 194 23 26 56 25
89 -1z m193 -14 c19 -21 21 -29 12 -49 -20 -44 -111 -63 -143 -30 -24 24 -20
80 7 99 32 24 96 13 124 -20z m142 18 c5 -10 12 -40 16 -67 6 -39 5 -48 -6
-44 -7 2 -16 19 -20 37 -4 17 -9 35 -13 38 -8 8 -44 -25 -51 -48 -4 -11 -13
-19 -21 -19 -10 0 -14 14 -14 55 0 42 3 55 15 55 8 0 15 -8 15 -17 0 -15 3
-14 22 5 27 27 44 28 57 5z m353 -9 c11 -23 10 -29 -11 -45 -26 -21 -44 -24
-71 -9 -27 15 -34 -16 -9 -41 18 -18 28 -20 75 -14 58 7 75 -8 28 -25 -56 -22
-122 -6 -144 35 -15 27 -7 55 27 95 34 41 88 43 105 4z"/>
<path d="M360 2610 l0 -2050 8105 0 8105 0 0 521 0 520 -82 -8 c-157 -15 -392
-8 -518 17 -160 31 -402 113 -619 209 -101 45 -188 80 -193 79 -5 -2 76 -82
181 -178 171 -156 212 -199 181 -188 -16 5 -440 399 -440 409 0 11 -5 11 295
-2 267 -11 323 -16 309 -28 -5 -4 -119 -2 -254 4 -135 7 -247 11 -249 9 -6 -6
-4 -6 79 -43 348 -153 486 -203 690 -246 154 -33 376 -42 520 -23 l95 13 3
1052 2 1053 -27 7 c-52 13 -294 6 -373 -11 -269 -59 -491 -174 -885 -456 -179
-128 -254 -175 -263 -165 -4 4 1 12 12 19 10 6 68 46 130 88 557 385 737 481
1011 535 83 17 318 23 368 10 l27 -7 0 455 0 455 -8105 0 -8105 0 0 -2050z
m8412 1739 c2 -77 1 -143 -1 -145 -2 -2 -10 1 -18 7 -10 9 -13 44 -13 139 0
120 3 140 21 140 4 0 9 -63 11 -141z m-952 72 c104 -33 132 -79 64 -107 l-37
-15 32 -33 c28 -28 40 -56 26 -56 -3 0 -35 23 -71 52 -80 64 -81 84 -6 80 41
-3 52 -1 52 11 0 15 -12 22 -63 38 -51 15 -57 6 -57 -92 0 -69 -3 -89 -14 -89
-7 0 -16 10 -20 23 -8 32 -7 152 2 161 4 4 8 12 8 17 1 5 2 14 3 19 1 14 10
13 81 -9z m280 -38 c59 -34 42 -67 -42 -78 -74 -10 -91 -21 -83 -52 6 -26 -11
-57 -26 -47 -12 7 -11 68 2 124 7 33 7 50 -3 68 -10 19 -10 25 1 31 14 9 106
-19 151 -46z m-488 25 c2 -19 10 -24 41 -26 45 -4 46 -24 1 -32 -28 -5 -29 -8
-32 -63 -3 -51 -1 -57 17 -57 11 0 22 9 26 20 7 22 20 26 30 10 10 -17 -21
-57 -50 -64 -39 -10 -55 9 -55 63 0 57 -9 72 -40 69 -38 -5 -38 29 -1 37 23 5
31 12 31 29 0 40 27 51 32 14z m1660 0 c2 -19 10 -24 41 -26 45 -4 46 -24 1
-32 -28 -5 -29 -8 -32 -63 -3 -51 -1 -57 17 -57 11 0 22 9 26 20 7 22 20 26
30 10 10 -17 -21 -57 -50 -64 -39 -10 -55 9 -55 63 0 57 -9 72 -40 69 -38 -5
-38 29 -1 37 23 5 31 12 31 29 0 40 27 51 32 14z m-977 -25 c16 -38 14 -63 -5
-63 -6 0 -15 11 -20 24 -5 13 -14 27 -21 32 -15 9 -69 -49 -69 -75 0 -30 36
-54 90 -59 54 -5 65 -18 25 -28 -65 -16 -145 29 -145 81 0 30 21 75 44 95 9 7
31 16 49 20 17 4 33 8 34 9 2 1 10 -16 18 -36z m360 7 c18 -35 20 -73 3 -68
-7 3 -19 17 -26 31 -17 34 -35 34 -61 1 -45 -58 -9 -114 74 -114 50 0 41 -24
-11 -28 -46 -3 -99 25 -116 63 -9 20 -8 33 7 65 22 48 35 60 78 70 17 4 33 8
34 9 1 1 9 -12 18 -29z m183 -2 c19 -19 14 -37 -8 -31 -24 6 -34 19 -25 33 8
13 18 13 33 -2z m170 -60 c17 -17 15 -44 -5 -63 -12 -13 -26 -15 -55 -11 -44
7 -51 -9 -18 -39 16 -14 29 -16 70 -11 31 4 50 3 50 -3 0 -17 -36 -31 -78 -31
-87 0 -123 80 -63 141 31 31 77 39 99 17z m158 -19 c20 -42 25 -99 9 -99 -8 0
-17 12 -21 28 -14 65 -23 68 -54 17 -33 -53 -52 -46 -48 17 2 30 8 53 16 56 6
2 12 -3 12 -12 0 -22 12 -20 33 5 22 25 38 21 53 -12z m-322 -21 c10 -40 7
-80 -6 -76 -15 5 -24 98 -10 98 5 0 12 -10 16 -22z m-4316 -585 c-1 -54 1
-110 6 -125 11 -36 -10 -38 -26 -3 l-11 24 -34 -29 c-53 -47 -93 -36 -93 27 0
55 56 93 88 61 19 -19 14 -30 -8 -23 -25 8 -50 -10 -50 -36 0 -28 35 -24 58 6
13 16 22 49 26 92 9 87 14 103 32 103 13 0 15 -16 12 -97z m-902 42 c5 -20 12
-25 39 -25 19 0 37 -5 40 -10 6 -10 -1 -14 -48 -24 -27 -6 -28 -9 -25 -59 2
-41 7 -53 21 -55 12 -3 20 4 24 17 7 26 33 28 33 2 0 -23 -45 -61 -71 -61 -26
0 -39 30 -39 91 l0 52 -30 -6 c-19 -4 -32 -2 -37 7 -4 7 -18 18 -30 25 -26 13
-31 41 -9 41 8 0 22 -10 30 -21 21 -31 61 -19 69 21 8 36 24 39 33 5z m462 -3
c3 -18 10 -22 43 -22 21 0 39 -5 39 -10 0 -11 -7 -14 -52 -24 -25 -6 -28 -11
-28 -45 0 -72 23 -93 53 -48 18 26 32 17 23 -16 -5 -23 -42 -47 -72 -47 -19 0
-34 41 -34 96 0 44 0 44 -32 42 -24 -2 -33 1 -33 12 0 8 15 18 33 24 27 7 32
14 32 38 0 34 23 34 28 0z m6308 3 c4 -15 1 -52 -5 -85 -10 -49 -9 -65 4 -96
18 -43 5 -71 -15 -33 -7 13 -14 26 -16 28 -2 2 -17 -8 -34 -23 -50 -41 -100
-31 -100 22 0 49 42 89 80 77 29 -9 24 -33 -6 -37 -34 -4 -56 -34 -35 -47 37
-23 78 43 84 136 3 34 8 66 12 72 11 19 24 12 31 -14z m-7086 -10 c0 -10 -10
-15 -30 -15 -26 0 -30 -4 -35 -37 -4 -21 -9 -50 -11 -65 -5 -26 -3 -28 30 -28
81 0 38 -36 -56 -47 -41 -5 -48 -3 -48 12 0 9 9 19 19 22 22 6 31 31 31 91 0
34 -3 42 -18 42 -24 0 -32 8 -25 26 8 21 143 20 143 -1z m464 -17 c5 -9 7 -20
4 -23 -10 -10 -48 14 -48 31 0 20 29 14 44 -8z m3300 -48 c3 -17 1 -53 -5 -81
-10 -47 -9 -61 16 -121 12 -30 -20 -21 -34 9 -12 26 -12 26 -26 6 -21 -30 -68
-47 -94 -33 -30 16 -28 70 3 99 28 26 69 25 74 -2 3 -15 0 -18 -16 -13 -22 7
-52 -16 -52 -40 0 -26 39 -14 64 19 18 23 26 47 26 73 0 98 29 154 44 84z
m-3630 -12 c18 -30 30 -108 16 -108 -10 0 -19 18 -35 65 -6 18 -10 16 -41 -19
-42 -48 -57 -40 -48 27 7 49 17 58 32 32 7 -14 11 -13 27 5 23 26 31 25 49 -2z
m884 10 c19 -19 14 -56 -9 -69 -12 -6 -36 -8 -55 -4 -40 7 -46 -11 -14 -40 16
-14 29 -16 70 -11 40 5 50 4 50 -7 0 -17 -30 -27 -81 -27 -46 0 -89 32 -89 66
0 32 25 80 47 93 24 14 66 14 81 -1z m-391 -24 c10 -14 29 -39 42 -55 33 -41
15 -59 -25 -26 -29 25 -30 25 -53 6 -13 -10 -35 -19 -50 -19 -55 0 -68 47 -24
92 36 37 85 38 110 2z m6922 -13 c31 26 46 12 60 -52 14 -62 14 -59 -4 -59 -8
0 -17 14 -21 35 -9 50 -20 51 -51 6 -16 -22 -32 -39 -38 -37 -5 2 -10 23 -9
47 l1 43 -41 -47 c-41 -47 -62 -57 -82 -37 -8 8 -15 6 -24 -5 -31 -37 -50 -12
-50 67 0 42 3 49 18 46 13 -3 16 -12 15 -43 -3 -39 -3 -40 13 -17 21 28 42 28
52 1 8 -20 12 -17 52 31 l44 52 20 -25 c21 -26 21 -26 45 -6z m-7335 -12 c9
-49 7 -69 -8 -69 -12 0 -26 46 -26 88 0 26 28 10 34 -19z m250 0 c9 -49 7 -69
-8 -69 -12 0 -26 46 -26 88 0 26 28 10 34 -19z m6783 6 c15 -10 23 -25 23 -45
0 -38 -39 -65 -93 -65 -46 0 -67 23 -67 72 0 58 75 78 137 38z m-3058 -61 l12
-27 20 22 c12 12 26 20 32 18 16 -5 33 -43 41 -89 9 -52 -19 -53 -31 -1 -11
49 -26 51 -53 8 -30 -49 -53 -47 -48 5 2 22 3 40 1 40 -1 0 -22 -21 -47 -47
-38 -41 -48 -46 -64 -37 -14 9 -22 8 -37 -2 -29 -22 -45 0 -45 62 0 48 2 54
21 54 19 0 20 -4 15 -42 -6 -42 -6 -42 10 -20 19 25 42 29 50 7 10 -24 21 -18
55 30 37 52 51 56 68 19z m-258 -10 c30 -27 25 -70 -11 -89 -38 -19 -94 -19
-114 1 -24 24 -20 80 7 99 27 20 90 14 118 -11z m3382 -185 c94 -31 199 -91
335 -191 68 -50 125 -89 126 -87 2 2 -32 55 -75 117 -75 107 -89 133 -71 132
9 -1 202 -286 202 -299 0 -6 -2 -11 -5 -11 -17 0 -342 94 -349 101 -18 17 28
9 149 -26 66 -19 121 -32 123 -31 4 5 -158 124 -237 175 -116 74 -232 121
-301 121 -109 0 -268 -85 -543 -292 -116 -88 -153 -111 -146 -91 5 14 229 180
344 256 214 140 318 170 448 126z m-6443 -46 c117 -43 269 -140 485 -307 54
-42 100 -74 102 -72 3 2 -41 72 -97 156 -56 83 -99 157 -97 163 2 6 63 -77
135 -185 72 -108 128 -199 124 -201 -4 -3 -43 6 -87 20 -44 13 -140 42 -214
64 -74 21 -137 41 -139 44 -19 19 28 10 178 -35 94 -29 173 -50 176 -48 4 4
-138 115 -261 204 -93 67 -206 134 -282 167 -195 86 -326 40 -653 -233 -136
-113 -170 -137 -170 -123 0 11 284 245 358 297 83 57 194 107 254 115 68 9
108 4 188 -26z m3222 -95 c93 -44 198 -114 341 -226 60 -46 110 -83 111 -81 2
2 -34 62 -81 133 -46 70 -82 133 -80 140 4 12 217 -306 217 -324 0 -5 -3 -10
-7 -10 -14 0 -365 108 -371 114 -17 17 15 13 101 -13 52 -16 119 -37 149 -45
l53 -15 -35 30 c-71 61 -217 169 -303 223 -252 157 -374 127 -704 -173 -135
-122 -160 -143 -166 -134 -5 8 162 163 278 258 206 170 333 201 497 123z
m7476 -715 l-3 -428 -1845 0 -1845 0 -3 428 -2 427 1850 0 1850 0 -2 -427z
m-11568 52 l0 -295 -1257 2 -1258 3 -3 293 -2 292 1260 0 1260 0 0 -295z
m6460 -85 l0 -360 -887 2 -888 3 -3 345 c-1 190 0 351 3 357 3 10 188 13 890
13 l885 0 0 -360z m-3202 -27 l-3 -358 -885 0 -885 0 -3 358 -2 357 890 0 890
0 -2 -357z m-3063 -504 c74 -39 137 -75 141 -80 12 -20 -23 -7 -113 42 -52 28
-96 49 -98 47 -7 -7 147 -180 205 -230 30 -26 80 -61 113 -79 50 -27 67 -31
112 -27 99 8 236 87 498 286 75 58 140 102 144 98 9 -8 15 -3 -179 -149 -247
-186 -381 -257 -481 -257 -90 0 -214 89 -358 256 -45 52 -83 93 -85 91 -3 -2
17 -54 42 -116 26 -61 44 -114 40 -118 -9 -9 -9 -10 -74 149 -52 128 -61 158
-45 158 2 0 64 -32 138 -71z m6564 -20 c154 -81 147 -77 138 -86 -4 -3 -52 17
-108 47 -127 66 -122 53 44 -114 189 -190 250 -210 413 -132 97 46 201 115
369 245 72 55 134 101 138 101 19 0 -3 -22 -98 -96 -338 -264 -498 -342 -616
-303 -77 26 -208 140 -334 292 -21 26 -43 47 -47 47 -4 0 13 -48 37 -106 43
-102 56 -150 36 -129 -11 12 -121 280 -121 295 0 5 3 10 7 10 3 0 67 -32 142
-71z m-2179 2 c0 -4 -19 -21 -42 -36 -24 -16 -86 -61 -139 -101 -138 -104
-256 -179 -355 -226 -145 -67 -229 -54 -363 57 -36 30 -95 88 -131 129 -36 41
-66 71 -68 67 -1 -4 16 -49 38 -99 40 -94 47 -118 31 -108 -13 8 -125 275
-119 282 7 6 264 -121 273 -136 12 -19 -15 -10 -105 35 -49 25 -92 45 -95 45
-13 0 124 -145 184 -196 190 -158 291 -133 705 172 164 120 186 134 186 115z
m-3913 -521 c-1 -97 -5 -140 -13 -140 -21 0 -25 34 -18 157 5 90 10 123 19
123 10 0 13 -32 12 -140z m721 13 c-2 -54 1 -110 6 -125 11 -36 -10 -38 -26
-3 l-11 24 -29 -24 c-55 -47 -118 -22 -102 39 9 35 38 58 70 54 37 -4 43 -26
8 -30 -15 -2 -33 -13 -42 -25 -13 -21 -13 -23 3 -30 13 -4 26 3 45 24 22 24
28 43 34 103 7 81 11 90 32 90 13 0 15 -16 12 -97z m-440 39 c3 -18 10 -22 43
-22 45 0 52 -17 12 -26 -16 -3 -34 -7 -40 -10 -14 -4 -17 -53 -7 -91 8 -28 34
-30 41 -3 7 25 33 26 33 2 0 -22 -25 -47 -57 -56 -31 -10 -53 27 -53 87 0 44
-2 48 -22 47 -39 -3 -48 -1 -48 15 0 8 14 18 33 23 25 6 33 14 35 36 4 32 25
30 30 -2z m-928 -22 c13 -32 7 -65 -11 -55 -5 4 -14 18 -19 31 -12 30 -31 31
-57 2 -34 -37 -37 -64 -11 -88 24 -22 49 -30 87 -27 33 3 38 -21 6 -29 -59
-15 -145 37 -145 88 0 48 48 104 95 110 39 5 40 4 55 -32z m821 -61 c20 -39
-23 -76 -74 -64 -34 9 -42 -10 -16 -36 18 -18 28 -20 76 -14 44 5 54 4 51 -7
-3 -7 -26 -17 -52 -22 -59 -12 -112 10 -122 50 -20 79 100 160 137 93z m347 8
c37 -29 -14 -84 -68 -72 -36 8 -41 -12 -11 -39 16 -15 30 -17 70 -11 56 8 71
-8 25 -25 -103 -39 -186 44 -123 124 34 43 71 51 107 23z m6137 -2 c27 -26 33
-73 13 -93 -16 -16 -70 -15 -87 1 -10 10 -12 3 -8 -38 3 -27 6 -59 8 -69 2
-10 -1 -21 -8 -23 -36 -13 -44 187 -9 226 25 28 61 26 91 -4z m-7104 -11 c44
-39 10 -93 -64 -101 -55 -6 -77 13 -77 66 0 29 5 41 23 49 30 16 94 8 118 -14z
m354 1 c31 -30 34 -80 6 -95 -27 -14 -64 -13 -80 3 -11 10 -12 0 -7 -60 4 -48
3 -73 -4 -73 -19 0 -30 50 -30 131 0 66 3 82 20 99 27 27 66 25 95 -5z m6495
-9 c0 -66 56 -70 79 -5 16 45 34 31 37 -29 3 -52 -3 -61 -23 -41 -8 8 -17 8
-31 0 -31 -16 -53 -13 -79 11 -32 30 -30 98 3 98 9 0 14 -12 14 -34z m-6651
10 c6 -7 14 -35 18 -61 5 -38 3 -47 -8 -43 -8 3 -16 13 -17 24 -7 37 -22 40
-47 9 -23 -28 -26 -29 -39 -12 -13 16 -14 16 -28 -5 -21 -31 -38 -14 -38 38 0
32 4 44 15 44 8 0 15 -6 15 -12 1 -8 6 -6 14 5 16 21 46 23 46 2 0 -21 13 -19
28 5 14 23 25 25 41 6z m3642 -85 c55 -55 27 -110 -49 -97 l-35 5 6 -64 c4
-38 2 -65 -3 -65 -20 0 -30 42 -30 124 0 73 3 89 20 106 28 28 57 25 91 -9z
m-255 -15 c-5 -23 -2 -37 9 -46 21 -17 42 -6 66 35 12 19 24 35 29 35 8 0 21
-102 13 -110 -2 -2 -12 1 -22 7 -11 7 -23 8 -32 2 -45 -29 -99 4 -99 61 0 40
6 50 28 50 11 0 13 -8 8 -34z"/>
<path d="M7997 4374 c-4 -4 -7 -16 -7 -27 0 -18 5 -19 47 -13 52 7 61 12 47
25 -13 13 -78 24 -87 15z"/>
<path d="M8945 4301 c-3 -5 -1 -12 5 -16 12 -7 30 2 30 16 0 12 -27 12 -35 0z"/>
<path d="M4265 3641 c-3 -5 -1 -12 4 -15 13 -8 42 4 35 15 -7 12 -31 12 -39 0z"/>
<path d="M3845 3620 c-13 -15 -15 -24 -8 -31 16 -16 48 -2 61 26 11 23 9 25
-12 25 -12 0 -31 -9 -41 -20z"/>
<path d="M10467 3592 c-22 -24 -21 -29 4 -42 27 -15 79 5 79 30 0 33 -57 41
-83 12z"/>
<path d="M7150 3530 c-29 -29 -20 -45 25 -45 40 0 69 25 50 44 -23 21 -54 22
-75 1z"/>
<path d="M11200 2510 l0 -410 1830 0 1830 0 0 410 0 410 -1830 0 -1830 0 0
-410z m1880 125 c0 -21 4 -23 48 -22 36 2 47 -2 47 -13 0 -10 -16 -18 -47 -23
l-48 -9 0 -48 c0 -27 4 -60 10 -75 8 -22 13 -24 29 -15 11 5 23 19 26 30 8 26
35 26 35 1 0 -33 -11 -51 -41 -66 -65 -34 -86 -14 -96 91 l-6 65 -36 -3 c-28
-2 -36 1 -39 16 -5 23 14 36 51 36 24 0 27 4 27 33 0 19 3 37 7 40 11 11 33
-14 33 -38z m900 13 c0 -12 -12 -59 -27 -105 -33 -101 -29 -106 68 -99 71 5
105 -7 94 -34 -4 -12 -24 -14 -102 -12 -54 2 -103 8 -110 14 -20 16 -16 55 13
148 15 47 29 91 30 98 6 21 34 13 34 -10z m460 -54 c0 -30 3 -54 8 -54 4 0 30
9 59 20 43 16 53 17 62 6 9 -11 2 -18 -34 -36 -25 -12 -45 -27 -45 -34 0 -19
23 -44 45 -48 25 -4 32 -43 10 -52 -19 -7 -61 19 -76 45 -13 24 -29 24 -29 0
0 -25 -19 -38 -54 -37 -30 1 -35 9 -50 79 -9 38 -20 34 -57 -20 -18 -27 -34
-50 -36 -52 -2 -3 -9 2 -16 10 -9 9 -12 33 -9 72 3 48 7 57 23 57 13 0 19 -7
19 -22 1 -22 1 -22 23 5 26 31 62 35 76 10 5 -10 12 -40 16 -67 12 -80 29 -27
26 81 -3 101 2 121 25 102 9 -7 14 -31 14 -65z m-2652 35 c2 -13 -10 -17 -63
-22 -36 -4 -71 -9 -77 -13 -7 -5 -9 -37 -4 -101 6 -81 4 -94 -10 -100 -26 -10
-34 17 -33 105 1 45 -1 85 -5 89 -3 3 -27 1 -54 -6 -74 -19 -87 -19 -87 4 0
23 49 40 159 54 105 13 170 10 174 -10z m707 -9 c25 -28 8 -45 -28 -29 -26 12
-34 29 -20 42 12 12 30 7 48 -13z m769 -2 c20 -28 7 -42 -27 -29 -17 7 -27 18
-27 31 0 27 34 26 54 -2z m908 5 c21 -19 24 -43 4 -43 -22 0 -60 35 -52 48 10
17 26 15 48 -5z m-1996 -72 c15 -12 32 -21 39 -21 7 0 16 -10 19 -22 6 -23 7
-23 22 5 17 32 50 36 59 6 7 -20 8 -20 36 7 26 24 31 26 43 14 18 -18 38 -122
26 -134 -14 -14 -29 3 -36 39 -3 19 -10 35 -15 35 -4 0 -20 -16 -35 -35 -32
-42 -54 -45 -54 -7 l-1 27 -28 -34 c-35 -43 -51 -34 -51 28 0 44 -2 48 -33 59
-78 28 -112 6 -102 -65 7 -49 -6 -73 -30 -53 -27 22 -16 122 16 156 20 21 30
25 61 21 21 -3 49 -14 64 -26z m-214 2 c22 -20 24 -66 2 -84 -15 -12 -58 -16
-98 -8 -30 6 -30 -18 -1 -47 25 -25 30 -26 91 -19 54 5 64 4 64 -9 0 -18 -57
-36 -113 -36 -31 0 -46 7 -73 34 -37 37 -42 62 -19 105 35 68 108 100 147 64z
m715 -16 c6 -13 14 -50 18 -82 6 -47 5 -57 -6 -53 -8 3 -18 18 -23 34 -22 74
-25 78 -45 60 -10 -9 -27 -32 -37 -51 -18 -34 -37 -44 -48 -26 -3 5 -3 36 0
70 7 64 27 82 42 40 8 -21 9 -21 25 5 22 33 60 35 74 3z m762 9 c14 -16 36
-134 27 -143 -9 -10 -36 18 -36 38 0 10 -5 30 -11 46 l-10 28 -27 -32 c-15
-17 -34 -42 -44 -55 -12 -17 -19 -20 -28 -11 -17 16 -3 133 16 133 8 0 14 -7
14 -15 0 -21 13 -19 35 5 21 23 48 26 64 6z m-533 -49 c18 -27 42 -55 53 -64
12 -8 19 -19 16 -24 -12 -18 -54 -9 -73 16 l-20 26 -38 -26 c-43 -29 -80 -32
-106 -8 -28 25 -23 70 12 104 26 26 36 30 77 27 45 -3 50 -6 79 -51z m712 21
c3 -14 -3 -18 -25 -18 -35 0 -69 -22 -59 -38 17 -28 83 -10 97 24 9 26 37 32
45 10 3 -8 -1 -27 -9 -43 -8 -15 -20 -57 -27 -93 -15 -82 -28 -117 -46 -124
-21 -8 -96 44 -92 63 4 22 42 26 58 6 19 -22 28 -19 34 15 3 17 9 44 12 60 6
30 5 30 -39 30 -37 0 -49 5 -66 26 -23 29 -19 50 18 82 32 28 94 27 99 0z
m-1123 -10 c13 -60 9 -108 -9 -108 -15 0 -26 42 -26 96 0 39 26 48 35 12z
m769 -9 c11 -55 7 -99 -8 -99 -19 0 -26 22 -26 81 0 57 23 69 34 18z m920 -27
c6 -37 6 -56 -3 -65 -18 -18 -30 3 -37 67 -6 53 -6 58 12 54 14 -2 21 -16 28
-56z"/>
<path d="M11891 2517 c-9 -12 -8 -16 4 -21 20 -7 47 4 42 18 -6 17 -32 19 -46
3z"/>
<path d="M12780 2496 c-24 -27 -22 -56 5 -56 20 0 65 44 65 65 0 24 -44 18
-70 -9z"/>
<path d="M810 2565 l0 -275 1240 0 1240 0 0 275 0 275 -1240 0 -1240 0 0 -275z
m1532 138 c3 -26 7 -28 51 -31 62 -4 64 -27 2 -36 -25 -4 -45 -13 -46 -19 -3
-42 4 -123 11 -130 11 -12 50 10 50 28 0 32 39 24 40 -8 0 -21 -60 -67 -89
-67 -39 0 -45 11 -51 95 l-5 70 -40 0 c-33 0 -40 3 -40 20 0 14 10 22 38 28
34 8 37 12 37 43 0 27 4 34 19 34 14 0 21 -8 23 -27z m-1032 2 c16 -8 38 -29
50 -46 59 -82 -43 -209 -159 -196 -85 10 -122 91 -78 175 38 74 118 103 187
67z m1209 -27 c11 -11 18 -25 15 -30 -15 -23 -71 9 -61 36 9 22 22 20 46 -6z
m-568 -59 c22 -11 43 -38 35 -46 -3 -3 -24 0 -47 7 -58 20 -73 7 -79 -66 -4
-51 -8 -59 -25 -59 -17 0 -20 8 -23 47 -4 57 19 115 50 127 23 9 59 5 89 -10z
m-196 -14 c14 -13 25 -29 25 -35 0 -6 -11 -22 -25 -35 -25 -26 -63 -32 -95
-15 -28 15 -33 -14 -8 -46 21 -26 24 -26 90 -20 62 6 69 4 66 -11 -4 -20 -36
-31 -96 -32 -56 -1 -96 20 -112 59 -12 28 -11 37 8 76 22 44 71 84 105 84 10
0 29 -11 42 -25z m-235 0 c50 -26 67 -90 33 -127 -18 -20 -87 -25 -98 -8 -24
39 -34 -33 -13 -102 9 -30 9 -41 -1 -51 -50 -49 -68 216 -19 278 22 29 55 32
98 10z m1200 0 c83 -43 56 -131 -44 -142 -25 -3 -56 -3 -70 1 -25 6 -30 15
-41 78 -5 35 -3 39 27 58 39 24 88 26 128 5z m200 1 c18 -23 40 -129 29 -141
-13 -13 -39 20 -39 49 0 12 -4 28 -10 36 -7 12 -12 11 -30 -5 -12 -11 -29 -33
-37 -48 -15 -31 -49 -34 -47 -4 0 9 1 40 2 67 2 38 6 50 17 50 9 0 19 -9 23
-20 8 -20 8 -20 32 5 27 28 42 31 60 11z m-765 -35 c11 -19 35 -50 54 -69 27
-27 31 -36 20 -43 -21 -13 -25 -12 -61 20 l-33 29 -28 -24 c-33 -28 -88 -32
-111 -8 -26 26 -19 63 19 101 30 30 39 34 77 31 37 -3 46 -8 63 -37z m365 -7
c15 -39 13 -104 -4 -104 -19 0 -26 22 -26 81 0 53 15 64 30 23z"/>
<path d="M1200 2654 c-43 -31 -50 -41 -50 -81 0 -36 32 -73 63 -73 51 0 127
64 127 108 0 22 -60 72 -84 71 -11 0 -37 -12 -56 -25z"/>
<path d="M1684 2576 c-12 -9 -14 -15 -5 -20 13 -9 51 2 51 14 0 15 -28 19 -46
6z"/>
<path d="M1470 2550 c-9 -16 -8 -25 1 -36 27 -33 75 -2 52 35 -15 24 -40 25
-53 1z"/>
<path d="M2627 2562 c-20 -22 -22 -43 -5 -60 16 -16 43 -15 78 3 36 18 38 38
8 59 -30 21 -61 20 -81 -2z"/>
<path d="M2065 2570 c-46 -18 -59 -70 -17 -70 23 0 62 40 62 63 0 18 -13 20
-45 7z"/>
<path d="M8010 2480 l0 -340 870 0 870 0 0 340 0 340 -870 0 -870 0 0 -340z
m620 147 c0 -8 -14 -56 -30 -107 -23 -73 -27 -96 -18 -102 7 -5 45 -8 84 -7
77 2 97 -4 92 -29 -3 -14 -18 -16 -103 -13 -55 1 -106 7 -112 13 -20 16 -16
44 18 143 17 49 33 96 35 103 5 16 34 16 34 -1z m454 -19 c3 -13 6 -40 6 -60
0 -43 3 -44 53 -23 20 8 46 15 57 15 27 0 26 -26 -2 -34 -13 -3 -33 -14 -46
-24 l-23 -18 21 -27 c12 -15 27 -24 35 -21 21 9 31 -25 13 -43 -19 -19 -44 -7
-82 38 -26 30 -26 30 -26 6 0 -27 -26 -55 -39 -41 -4 5 -6 64 -3 132 3 90 7
122 17 122 7 0 15 -10 19 -22z m-260 -23 c14 -22 15 -26 2 -31 -18 -7 -56 13
-56 30 0 34 32 34 54 1z m175 -69 c14 -16 36 -134 27 -143 -12 -12 -34 19 -40
57 -3 21 -10 42 -16 45 -5 3 -26 -17 -46 -45 -53 -74 -70 -66 -59 31 5 41 11
59 21 59 8 0 14 -10 14 -22 0 -22 1 -22 27 5 30 30 54 34 72 13z m-175 -47
c11 -55 7 -99 -8 -99 -19 0 -26 22 -26 81 0 57 23 69 34 18z"/>
<path d="M4810 2450 l0 -340 870 0 870 0 0 340 0 340 -870 0 -870 0 0 -340z
m619 148 c0 -7 -13 -53 -29 -103 -35 -112 -30 -120 69 -110 65 6 91 -3 91 -31
0 -22 -193 -20 -214 2 -22 21 -20 36 15 139 17 49 33 96 35 103 2 6 10 12 19
12 8 0 15 -6 14 -12z m451 -7 c5 -11 10 -40 10 -65 0 -25 2 -46 5 -46 2 0 27
9 55 20 28 11 55 20 60 20 6 0 10 -9 10 -20 0 -11 -6 -20 -12 -20 -7 0 -28 -9
-46 -20 -32 -20 -33 -22 -19 -43 8 -12 25 -24 38 -27 32 -8 33 -44 1 -48 -16
-3 -33 7 -56 31 l-33 35 -9 -32 c-11 -39 -39 -42 -38 -3 0 15 1 74 2 132 2
103 10 126 32 86z m-255 -33 c17 -26 8 -33 -30 -24 -16 4 -25 13 -25 26 0 28
35 26 55 -2z m182 -81 c6 -13 14 -50 18 -82 6 -47 5 -57 -6 -53 -8 2 -21 25
-29 51 -8 25 -18 48 -21 52 -7 6 -40 -30 -71 -75 -12 -19 -19 -22 -28 -13 -17
16 -3 133 16 133 8 0 14 -7 14 -15 0 -21 13 -19 35 5 25 27 59 26 72 -3z
m-183 -38 c11 -55 7 -99 -8 -99 -19 0 -26 22 -26 81 0 57 23 69 34 18z"/>
<path d="M4075 1360 c-4 -6 5 -10 19 -10 14 0 26 5 26 10 0 6 -9 10 -19 10
-11 0 -23 -4 -26 -10z"/>
<path d="M4435 1360 c-3 -5 3 -10 14 -10 12 0 21 5 21 10 0 6 -6 10 -14 10 -8
0 -18 -4 -21 -10z"/>
<path d="M10581 1352 c-7 -13 -6 -23 1 -30 28 -28 63 3 38 33 -16 20 -27 19
-39 -3z"/>
<path d="M3435 1350 c-9 -10 -15 -26 -12 -35 12 -29 97 -12 97 20 0 15 -30 35
-53 35 -8 0 -22 -9 -32 -20z"/>
<path d="M3826 1344 c-7 -19 10 -44 31 -44 19 0 28 27 13 45 -16 20 -36 19
-44 -1z"/>
<path d="M7320 1265 c-16 -20 -6 -45 19 -45 27 0 34 15 19 40 -15 24 -22 25
-38 5z"/>
<path d="M17075 4059 c-10 -15 1 -23 20 -15 9 3 13 10 10 16 -8 13 -22 13 -30
-1z"/>
<path d="M17605 4059 c-10 -15 1 -23 20 -15 9 3 13 10 10 16 -8 13 -22 13 -30
-1z"/>
<path d="M17233 4030 c-27 -11 -30 -30 -5 -30 19 0 42 18 42 32 0 10 -9 9 -37
-2z"/>
<path d="M18655 3192 c-3 -3 -5 -239 -5 -524 l0 -518 1435 0 1435 0 0 519 0
519 -27 5 c-36 7 -2831 5 -2838 -1z m555 -363 c113 -25 160 -84 104 -128 -15
-11 -36 -21 -48 -21 -18 0 -15 -6 22 -41 23 -22 42 -49 42 -60 0 -10 -2 -19
-5 -19 -11 0 -163 130 -168 144 -9 23 18 39 42 27 28 -16 76 -14 91 3 9 12 4
18 -29 35 -22 12 -59 21 -82 21 l-42 0 5 -105 c3 -57 1 -110 -3 -116 -12 -20
-39 -1 -40 28 -4 124 -3 186 4 190 4 2 7 14 7 27 0 30 10 38 35 31 11 -3 40
-10 65 -16z m-248 -32 c3 -19 9 -22 48 -22 64 0 62 -27 -2 -38 l-48 -9 0 -55
c0 -30 5 -63 10 -73 13 -24 38 -16 51 16 12 32 39 31 39 -1 0 -30 -30 -62 -66
-71 -52 -13 -71 18 -73 114 l-1 54 -37 -4 c-33 -3 -38 0 -41 19 -3 17 3 24 25
28 50 11 53 14 53 43 0 16 3 32 7 35 10 10 31 -12 35 -36z m508 23 c80 -24
134 -58 138 -87 4 -29 -23 -42 -116 -56 l-77 -12 -3 -52 c-3 -54 -21 -74 -42
-48 -9 11 -8 38 4 116 11 70 13 106 6 113 -16 16 -12 46 6 46 9 0 47 -9 84
-20z m840 -10 c0 -14 -7 -20 -24 -20 -27 0 -116 -37 -116 -48 0 -4 25 -20 55
-35 92 -45 105 -96 35 -132 -60 -31 -180 -8 -180 34 0 23 28 29 48 9 15 -15
108 -16 123 -1 17 17 1 33 -60 60 -94 41 -118 80 -63 102 15 6 47 19 72 30 25
10 60 19 78 20 26 1 32 -3 32 -19z m-505 -21 c18 -34 17 -80 -2 -86 -7 -3 -19
12 -27 31 -19 45 -45 47 -80 5 -56 -66 -18 -133 77 -135 64 -2 67 -3 67 -14 0
-18 -53 -32 -98 -25 -27 4 -56 18 -77 37 -29 25 -35 37 -35 70 0 71 49 133
110 141 19 2 38 5 42 5 4 1 15 -12 23 -29z m954 -61 c5 -13 14 -42 20 -65 7
-26 18 -43 26 -43 16 0 70 69 81 102 6 20 35 21 41 2 5 -16 -75 -132 -104
-151 -23 -15 -26 -15 -43 3 -11 10 -25 37 -33 58 -10 30 -20 40 -38 42 -13 2
-39 6 -57 10 -47 9 -63 -8 -61 -68 3 -49 -10 -76 -30 -64 -6 4 -11 36 -11 72
0 56 4 68 25 89 27 28 67 32 105 10 33 -19 37 -19 43 5 7 27 25 25 36 -2z
m529 -8 c38 -23 45 -56 10 -45 -87 27 -110 15 -107 -57 3 -49 -10 -76 -30 -64
-6 4 -11 36 -11 72 0 56 4 68 25 89 29 30 68 32 113 5z m-800 -6 c30 -21 28
-58 -5 -84 -27 -21 -50 -22 -95 -5 -28 11 -23 -27 6 -54 23 -21 31 -23 90 -16
40 4 66 3 66 -3 0 -19 -30 -33 -82 -39 -111 -11 -169 59 -123 148 18 33 69 69
100 69 11 0 31 -7 43 -16z m600 0 c30 -21 28 -58 -5 -84 -27 -21 -50 -22 -95
-5 -28 11 -23 -27 6 -54 23 -21 31 -23 90 -16 40 4 66 3 66 -3 0 -19 -30 -33
-82 -39 -111 -11 -169 59 -123 148 18 33 69 69 100 69 11 0 31 -7 43 -16z"/>
<path d="M19430 2755 c-15 -39 -4 -48 49 -40 104 14 102 36 -6 60 -29 6 -34 4
-43 -20z"/>
<path d="M20416 2677 c-18 -13 -18 -14 -2 -20 21 -8 59 10 51 24 -9 13 -28 11
-49 -4z"/>
<path d="M21016 2677 c-18 -13 -18 -14 -2 -20 21 -8 59 10 51 24 -9 13 -28 11
-49 -4z"/>
<path d="M17235 1281 c-3 -5 -1 -12 5 -16 12 -7 30 2 30 16 0 12 -27 12 -35 0z"/>
<path d="M17574 1265 c-9 -21 3 -45 21 -45 21 0 30 27 15 45 -16 19 -29 19
-36 0z"/>
<path d="M17719 1269 c-28 -28 -19 -44 26 -44 48 0 71 28 41 51 -27 19 -42 18
-67 -7z"/>
<path d="M18236 1281 c-7 -11 22 -23 35 -15 5 3 9 9 9 15 0 12 -37 12 -44 0z"/>
</g>
</svg>
