<svg width="464" height="265" viewBox="0 0 464 265" fill="none" xmlns="http://www.w3.org/2000/svg">
<mask id="mask0" style="mask-type:alpha" maskUnits="userSpaceOnUse" x="0" y="0" width="199" height="265">
<rect width="199" height="265" fill="#C4C4C4"/>
</mask>
<g mask="url(#mask0)">
<rect x="55" y="25" width="414" height="215" rx="107.5" stroke="#60B2CF" stroke-width="50"/>
</g>
<rect x="25" y="25" width="414" height="215" rx="107.5" stroke="#BADDEA" stroke-width="50"/>
<path d="M153.805 155.203C155.523 155.203 156.734 155.086 157.438 154.852C158.219 154.539 159.039 154.383 159.898 154.383C160.758 154.383 161.539 154.734 162.242 155.438C162.945 156.062 163.297 157.039 163.297 158.367C163.297 159.617 162.672 160.516 161.422 161.062C158.688 162.312 156.344 162.938 154.391 162.938C152.438 162.938 150.641 162.82 149 162.586C147.438 162.43 145.914 161.922 144.43 161.062C140.914 159.031 139.156 155.438 139.156 150.281V120.516H132.359C131.188 120.516 130.562 119.891 130.484 118.641C130.484 118.094 130.797 117.586 131.422 117.117L144.43 104.344C144.977 103.797 145.523 103.523 146.07 103.523C146.617 103.445 147.047 103.602 147.359 103.992C147.672 104.383 147.828 104.852 147.828 105.398V113.016H158.727C159.82 113.016 160.719 113.367 161.422 114.07C162.125 114.773 162.477 115.672 162.477 116.766C162.477 117.859 162.125 118.758 161.422 119.461C160.719 120.164 159.82 120.516 158.727 120.516H147.828V149.578C147.828 152 148.57 153.641 150.055 154.5C150.836 154.969 152.086 155.203 153.805 155.203ZM226.695 158.133C226.695 159.305 226.266 160.32 225.406 161.18C224.625 162.039 223.57 162.469 222.242 162.469C220.992 162.469 219.938 162.078 219.078 161.297C218.297 160.516 217.906 159.461 217.906 158.133V155.203C217.906 150.047 217.32 146.258 216.148 143.836C215.055 141.414 213.492 139.5 211.461 138.094C209.508 136.609 206.695 135.867 203.023 135.867H183.219V158.133C183.219 159.305 182.789 160.32 181.93 161.18C181.07 162.039 180.016 162.469 178.766 162.469C177.594 162.469 176.578 162.039 175.719 161.18C174.859 160.32 174.43 159.305 174.43 158.133V99.4219C174.43 98.25 174.859 97.2344 175.719 96.375C176.578 95.4375 177.594 94.9688 178.766 94.9688H201.148C209.898 94.9688 216.539 96.8438 221.07 100.594C225.289 104.109 227.359 108.719 227.281 114.422C227.281 118.094 226.227 121.57 224.117 124.852C222.086 128.055 218.922 130.359 214.625 131.766C219.234 132.938 222.594 136.297 224.703 141.844C226.109 145.438 226.773 149.422 226.695 153.797V158.133ZM200.562 127.547C205.953 127.547 210.289 126.531 213.57 124.5C216.852 122.391 218.492 119.266 218.492 115.125C218.492 111.297 217.203 108.406 214.625 106.453C211.578 104.266 206.734 103.172 200.094 103.172H183.219V127.547H200.562ZM269 94.9688C277.906 94.9688 284.586 97.2734 289.039 101.883C292.711 105.555 294.586 110.359 294.664 116.297C294.664 122.156 292.789 126.961 289.039 130.711C284.508 135.32 277.828 137.625 269 137.625H251.539V158.133C251.539 159.305 251.109 160.32 250.25 161.18C249.391 162.039 248.336 162.469 247.086 162.469C245.914 162.469 244.898 162.039 244.039 161.18C243.18 160.32 242.75 159.305 242.75 158.133V99.4219C242.75 98.25 243.18 97.2344 244.039 96.375C244.898 95.4375 245.914 94.9688 247.086 94.9688H269ZM268.18 129.422C274.742 129.422 279.508 128.016 282.477 125.203C284.82 123.016 285.953 120.047 285.875 116.297C285.875 110.359 282.906 106.414 276.969 104.461C274.625 103.68 271.695 103.25 268.18 103.172H251.539V129.422H268.18ZM355.133 150.047C355.602 149.812 356.305 149.695 357.242 149.695C358.18 149.695 359 150.086 359.703 150.867C360.406 151.57 360.758 152.391 360.758 153.328C360.758 155.047 360.016 156.297 358.531 157.078C355.562 158.797 352.359 160.203 348.922 161.297C345.562 162.391 341.461 162.938 336.617 162.938C331.852 162.938 327.398 162.156 323.258 160.594C319.195 159.031 315.68 156.766 312.711 153.797C306.305 147.547 303.102 139.109 303.102 128.484C303.102 117.938 306.305 109.5 312.711 103.172C318.883 97.0781 326.891 94.0312 336.734 94.0312C341.5 94.0312 345.562 94.6172 348.922 95.7891C352.359 96.9609 354.977 98.0547 356.773 99.0703C358.57 100.008 359.664 100.789 360.055 101.414C360.523 101.961 360.758 102.703 360.758 103.641C360.758 104.578 360.406 105.438 359.703 106.219C359 106.922 358.18 107.273 357.242 107.273C356.383 107.273 355.68 107.156 355.133 106.922C352.555 105.516 349.898 104.422 347.164 103.641C344.508 102.781 341.188 102.352 337.203 102.352C333.219 102.352 329.586 103.055 326.305 104.461C323.102 105.789 320.406 107.625 318.219 109.969C313.922 114.656 311.812 120.828 311.891 128.484C311.891 136.141 314 142.312 318.219 147C322.906 152.078 329.352 154.617 337.555 154.617C341.305 154.617 344.508 154.227 347.164 153.445C349.898 152.586 352.555 151.453 355.133 150.047Z" fill="#BADDEA"/>
</svg>
