<?xml version="1.0" encoding="UTF-8"?>
<!-- Created with Inkscape (http://www.inkscape.org/) -->
<svg width="24" height="24" version="1.1" viewBox="0 0 24 24" xmlns="http://www.w3.org/2000/svg">
 <g fill="none" stroke="#2596be">
  <ellipse cx="12" cy="12" rx="11.395" ry="11.395" stroke-width="1.211"/>
  <g transform="translate(-1.1558 1.9053)" stroke-linejoin="round" stroke-width=".5">
   <g transform="translate(-.019411 .36852)">
    <path d="m15.337 7.6007-2.1618 1.2481-2.1618-1.2481v-2.4963l2.1618-1.2481 2.1618 1.2481z"/>
    <path d="m13.175 8.8488v-2.5009l-2.1618-1.2435"/>
    <path d="m13.175 6.3479 2.1618-1.2435"/>
   </g>
   <g transform="translate(-3.698 6.2401)">
    <path d="m15.337 7.6007-2.1618 1.2481-2.1618-1.2481v-2.4963l2.1618-1.2481 2.1618 1.2481z"/>
    <path d="m13.175 8.8488v-2.5009l-2.1618-1.2435"/>
    <path d="m13.175 6.3479 2.1618-1.2435"/>
   </g>
   <g transform="translate(3.6592 6.2401)">
    <path d="m15.337 7.6007-2.1618 1.2481-2.1618-1.2481v-2.4963l2.1618-1.2481 2.1618 1.2481z"/>
    <path d="m13.175 8.8488v-2.5009l-2.1618-1.2435"/>
    <path d="m13.175 6.3479 2.1618-1.2435"/>
   </g>
   <g>
    <path d="m10.994 6.7211-2.5977 1.4998v2.4996"/>
    <path d="m15.318 6.7211 2.5977 1.4998v2.4996"/>
    <path d="m15.753 14.465-2.5972 1.5-2.5982-1.5"/>
   </g>
  </g>
 </g>
</svg>
