<svg width="429" height="128" viewBox="0 0 429 128" fill="none" xmlns="http://www.w3.org/2000/svg">
<g clip-path="url(#clip0_1_9)">
<path d="M90.5 0H37.5C16.7893 0 0 16.7893 0 37.5V90.5C0 111.211 16.7893 128 37.5 128H90.5C111.211 128 128 111.211 128 90.5V37.5C128 16.7893 111.211 0 90.5 0Z" fill="#398CCB"/>
<path fill-rule="evenodd" clip-rule="evenodd" d="M63.8615 18.75L81.6307 29.002V34.639L103.138 47.0595V68.306L108.908 71.6365V92.152L91.15 102.404L83.2662 97.8445L64.098 108.912L45.0445 97.9085L37.2713 102.404L19.5135 92.1345V71.6365L25.0578 68.4358V47.0595L46.1038 34.9095L46.1155 34.909V29.002L63.8615 18.75ZM81.6307 39.9698V49.5058L63.873 59.7578L46.1155 49.5058V40.234L46.1038 40.2345L29.673 49.725V65.771L37.2713 61.3845L55.0288 71.6365V92.1345L49.6565 95.2413L64.098 103.581L78.6545 95.178L73.3922 92.1345V71.6365L91.15 61.3845L98.523 65.6413V49.725L81.6307 39.9698ZM78.0077 89.4923V76.9788L88.8422 83.2328V95.7463L78.0077 89.4923ZM104.292 76.9615L93.4577 83.2155V95.7463L104.292 89.475V76.9615ZM24.1289 89.475V76.9615L34.9635 83.2155V95.7288L24.1289 89.475ZM50.4135 76.9615L39.5788 83.2155V95.7288L50.4135 89.475V76.9615ZM80.3155 72.9808L91.15 66.727L101.984 72.9808L91.15 79.2405L80.3155 72.9808ZM37.2713 66.7095L26.4365 72.9808L37.2713 79.223L48.1058 72.9808L37.2713 66.7095ZM50.7308 46.8405V34.327L61.5537 40.5865V53.0943L50.7308 46.8405ZM77.0038 34.327L66.1807 40.5865V53.0885L77.0038 46.8405V34.327ZM53.0385 30.3345L63.8615 24.0808L74.6962 30.3345L63.8615 36.5885L53.0385 30.3345Z" fill="white"/>
<path d="M191.551 42.5455V57.8864H150.259V42.5455H191.551ZM158.909 26.8636H179.747V87.4176C179.747 88.696 179.946 89.733 180.344 90.5284C180.77 91.2955 181.381 91.8494 182.176 92.1903C182.972 92.5028 183.923 92.6591 185.031 92.6591C185.827 92.6591 186.665 92.5881 187.545 92.446C188.455 92.2756 189.136 92.1335 189.591 92.0199L192.744 107.062C191.75 107.347 190.344 107.702 188.526 108.128C186.736 108.554 184.591 108.824 182.091 108.938C177.205 109.165 173.014 108.597 169.52 107.233C166.054 105.841 163.398 103.682 161.551 100.756C159.733 97.8295 158.852 94.1506 158.909 89.7188V26.8636ZM198.789 108V20.7273H234.841C241.375 20.7273 247.014 21.9062 251.758 24.2642C256.531 26.5937 260.21 29.946 262.795 34.321C265.38 38.6676 266.673 43.8239 266.673 49.7898C266.673 55.8409 265.352 60.983 262.71 65.2159C260.068 69.4205 256.318 72.6307 251.46 74.8466C246.602 77.0341 240.849 78.1278 234.201 78.1278H211.403V61.5085H230.281C233.463 61.5085 236.119 61.0966 238.25 60.2727C240.409 59.4205 242.042 58.142 243.15 56.4375C244.258 54.7045 244.812 52.4886 244.812 49.7898C244.812 47.0909 244.258 44.8608 243.15 43.0994C242.042 41.3097 240.409 39.9744 238.25 39.0938C236.091 38.1847 233.434 37.7301 230.281 37.7301H219.883V108H198.789ZM247.923 68.1136L269.656 108H246.645L225.338 68.1136H247.923ZM273.443 108V20.7273H309.494C316.028 20.7273 321.667 22.0057 326.411 24.5625C331.184 27.0909 334.863 30.6278 337.448 35.1733C340.034 39.6903 341.326 44.946 341.326 50.9403C341.326 56.9631 340.005 62.233 337.363 66.75C334.749 71.2386 331.014 74.7187 326.156 77.1903C321.298 79.6619 315.531 80.8977 308.855 80.8977H286.61V64.2784H304.934C308.116 64.2784 310.772 63.7244 312.903 62.6165C315.062 61.5085 316.695 59.9602 317.803 57.9716C318.911 55.9545 319.465 53.6108 319.465 50.9403C319.465 48.2415 318.911 45.9119 317.803 43.9517C316.695 41.9631 315.062 40.429 312.903 39.3494C310.744 38.2699 308.088 37.7301 304.934 37.7301H294.536V108H273.443ZM426.143 52.3466H404.836C404.552 50.1591 403.969 48.1847 403.089 46.4233C402.208 44.6619 401.043 43.1562 399.594 41.9062C398.145 40.6563 396.427 39.7045 394.438 39.0511C392.478 38.3693 390.305 38.0284 387.918 38.0284C383.685 38.0284 380.035 39.0653 376.966 41.1392C373.927 43.2131 371.583 46.2102 369.935 50.1307C368.316 54.0511 367.506 58.7955 367.506 64.3636C367.506 70.1591 368.33 75.017 369.978 78.9375C371.654 82.8295 373.998 85.7699 377.009 87.7585C380.049 89.7187 383.643 90.6989 387.79 90.6989C390.12 90.6989 392.236 90.4006 394.14 89.804C396.072 89.2074 397.762 88.3409 399.211 87.2045C400.688 86.0398 401.895 84.6335 402.833 82.9858C403.799 81.3097 404.466 79.4205 404.836 77.3182L426.143 77.446C425.773 81.3097 424.651 85.1165 422.776 88.8665C420.93 92.6165 418.387 96.0398 415.148 99.1364C411.91 102.205 407.961 104.648 403.302 106.466C398.671 108.284 393.359 109.193 387.364 109.193C379.466 109.193 372.393 107.46 366.143 103.994C359.921 100.5 355.006 95.4148 351.398 88.7386C347.79 82.0625 345.986 73.9375 345.986 64.3636C345.986 54.7614 347.819 46.6222 351.484 39.946C355.148 33.2699 360.106 28.1989 366.356 24.733C372.606 21.267 379.609 19.5341 387.364 19.5341C392.648 19.5341 397.535 20.2727 402.023 21.75C406.512 23.1989 410.461 25.3295 413.87 28.142C417.279 30.9261 420.049 34.3494 422.18 38.4119C424.31 42.4744 425.631 47.1193 426.143 52.3466Z" fill="black"/>
</g>
<defs>
<clipPath id="clip0_1_9">
<rect width="429" height="128" fill="white"/>
</clipPath>
</defs>
</svg>
