<svg width="429" height="128" viewBox="0 0 429 128" fill="none" xmlns="http://www.w3.org/2000/svg">
<g clip-path="url(#clip0_1_10)">
<path d="M91.5 0H38.5C17.7893 0 1 16.7893 1 37.5V90.5C1 111.211 17.7893 128 38.5 128H91.5C112.211 128 129 111.211 129 90.5V37.5C129 16.7893 112.211 0 91.5 0Z" fill="#398CCB"/>
<path fill-rule="evenodd" clip-rule="evenodd" d="M64.8615 18.75L82.6307 29.002V34.639L104.138 47.0595V68.306L109.908 71.6365V92.152L92.15 102.404L84.2662 97.8445L65.098 108.912L46.0445 97.9085L38.2713 102.404L20.5135 92.1345V71.6365L26.0578 68.4358V47.0595L47.1038 34.9095L47.1155 34.909V29.002L64.8615 18.75ZM82.6307 39.9698V49.5058L64.873 59.7578L47.1155 49.5058V40.234L47.1038 40.2345L30.673 49.725V65.771L38.2713 61.3845L56.0288 71.6365V92.1345L50.6565 95.2413L65.098 103.581L79.6545 95.178L74.3922 92.1345V71.6365L92.15 61.3845L99.523 65.6413V49.725L82.6307 39.9698ZM79.0077 89.4923V76.9788L89.8422 83.2328V95.7463L79.0077 89.4923ZM105.292 76.9615L94.4577 83.2155V95.7463L105.292 89.475V76.9615ZM25.1289 89.475V76.9615L35.9635 83.2155V95.7288L25.1289 89.475ZM51.4135 76.9615L40.5788 83.2155V95.7288L51.4135 89.475V76.9615ZM81.3155 72.9808L92.15 66.727L102.984 72.9808L92.15 79.2405L81.3155 72.9808ZM38.2713 66.7095L27.4365 72.9808L38.2713 79.223L49.1058 72.9808L38.2713 66.7095ZM51.7308 46.8405V34.327L62.5537 40.5865V53.0943L51.7308 46.8405ZM78.0038 34.327L67.1807 40.5865V53.0885L78.0038 46.8405V34.327ZM54.0385 30.3345L64.8615 24.0808L75.6962 30.3345L64.8615 36.5885L54.0385 30.3345Z" fill="white"/>
<path d="M192.551 42.5455V57.8864H151.259V42.5455H192.551ZM159.909 26.8636H180.747V87.4176C180.747 88.696 180.946 89.733 181.344 90.5284C181.77 91.2955 182.381 91.8494 183.176 92.1903C183.972 92.5028 184.923 92.6591 186.031 92.6591C186.827 92.6591 187.665 92.5881 188.545 92.446C189.455 92.2756 190.136 92.1335 190.591 92.0199L193.744 107.062C192.75 107.347 191.344 107.702 189.526 108.128C187.736 108.554 185.591 108.824 183.091 108.938C178.205 109.165 174.014 108.597 170.52 107.233C167.054 105.841 164.398 103.682 162.551 100.756C160.733 97.8295 159.852 94.1506 159.909 89.7188V26.8636ZM199.789 108V20.7273H235.841C242.375 20.7273 248.014 21.9062 252.758 24.2642C257.531 26.5937 261.21 29.946 263.795 34.321C266.38 38.6676 267.673 43.8239 267.673 49.7898C267.673 55.8409 266.352 60.983 263.71 65.2159C261.068 69.4205 257.318 72.6307 252.46 74.8466C247.602 77.0341 241.849 78.1278 235.201 78.1278H212.403V61.5085H231.281C234.463 61.5085 237.119 61.0966 239.25 60.2727C241.409 59.4205 243.042 58.142 244.15 56.4375C245.258 54.7045 245.812 52.4886 245.812 49.7898C245.812 47.0909 245.258 44.8608 244.15 43.0994C243.042 41.3097 241.409 39.9744 239.25 39.0938C237.091 38.1847 234.434 37.7301 231.281 37.7301H220.883V108H199.789ZM248.923 68.1136L270.656 108H247.645L226.338 68.1136H248.923ZM274.443 108V20.7273H310.494C317.028 20.7273 322.667 22.0057 327.411 24.5625C332.184 27.0909 335.863 30.6278 338.448 35.1733C341.034 39.6903 342.326 44.946 342.326 50.9403C342.326 56.9631 341.005 62.233 338.363 66.75C335.749 71.2386 332.014 74.7187 327.156 77.1903C322.298 79.6619 316.531 80.8977 309.855 80.8977H287.61V64.2784H305.934C309.116 64.2784 311.772 63.7244 313.903 62.6165C316.062 61.5085 317.695 59.9602 318.803 57.9716C319.911 55.9545 320.465 53.6108 320.465 50.9403C320.465 48.2415 319.911 45.9119 318.803 43.9517C317.695 41.9631 316.062 40.429 313.903 39.3494C311.744 38.2699 309.088 37.7301 305.934 37.7301H295.536V108H274.443ZM427.143 52.3466H405.836C405.552 50.1591 404.969 48.1847 404.089 46.4233C403.208 44.6619 402.043 43.1562 400.594 41.9062C399.145 40.6563 397.427 39.7045 395.438 39.0511C393.478 38.3693 391.305 38.0284 388.918 38.0284C384.685 38.0284 381.035 39.0653 377.966 41.1392C374.927 43.2131 372.583 46.2102 370.935 50.1307C369.316 54.0511 368.506 58.7955 368.506 64.3636C368.506 70.1591 369.33 75.017 370.978 78.9375C372.654 82.8295 374.998 85.7699 378.009 87.7585C381.049 89.7187 384.643 90.6989 388.79 90.6989C391.12 90.6989 393.236 90.4006 395.14 89.804C397.072 89.2074 398.762 88.3409 400.211 87.2045C401.688 86.0398 402.895 84.6335 403.833 82.9858C404.799 81.3097 405.466 79.4205 405.836 77.3182L427.143 77.446C426.773 81.3097 425.651 85.1165 423.776 88.8665C421.93 92.6165 419.387 96.0398 416.148 99.1364C412.91 102.205 408.961 104.648 404.302 106.466C399.671 108.284 394.359 109.193 388.364 109.193C380.466 109.193 373.393 107.46 367.143 103.994C360.921 100.5 356.006 95.4148 352.398 88.7386C348.79 82.0625 346.986 73.9375 346.986 64.3636C346.986 54.7614 348.819 46.6222 352.484 39.946C356.148 33.2699 361.106 28.1989 367.356 24.733C373.606 21.267 380.609 19.5341 388.364 19.5341C393.648 19.5341 398.535 20.2727 403.023 21.75C407.512 23.1989 411.461 25.3295 414.87 28.142C418.279 30.9261 421.049 34.3494 423.18 38.4119C425.31 42.4744 426.631 47.1193 427.143 52.3466Z" fill="white"/>
</g>
<defs>
<clipPath id="clip0_1_10">
<rect width="429" height="128" fill="white"/>
</clipPath>
</defs>
</svg>
