<svg width="1280" height="640" viewBox="0 0 1280 640" fill="none" xmlns="http://www.w3.org/2000/svg">
<g clip-path="url(#clip0_405_1829)">
<rect width="1280" height="640" fill="url(#paint0_radial_405_1829)"/>
<mask id="mask0_405_1829" style="mask-type:alpha" maskUnits="userSpaceOnUse" x="-240" y="-326" width="1777" height="1328">
<g clip-path="url(#clip1_405_1829)">
<path fill-rule="evenodd" clip-rule="evenodd" d="M658 123C658 370.976 456.976 572 209 572C-38.9759 572 -240 370.976 -240 123C-240 -124.976 -38.9759 -326 209 -326C456.976 -326 658 -124.976 658 123ZM205.408 -201.952L339.852 -126.543V-72.3495L471.216 -6.0354V116.308L521.504 144.515V297.111L387.06 372.52L355.278 354.694L205.156 441.187L59.3911 354.835L27.8605 372.52L-106.583 297.111V144.515L-60.4 118.611V-6.0354L70.9645 -72.3495V-126.543L205.408 -201.952ZM11.44 38.1735L70.9645 8.12497V26.0533L205.408 101.462L339.852 26.0533V8.12497L399.376 38.1735V76.013L387.06 69.1057L252.617 144.515V297.111L282.36 313.794L205.66 357.984L131.792 314.226L162.304 297.111V144.515L27.8605 69.1049L11.44 78.3155V38.1735ZM361.963 165.552L387.06 151.475L412.158 165.552L387.06 179.629L361.963 165.552ZM422.98 241.85L449.664 226.884V255.038L422.98 270.004V241.85ZM351.14 241.85V270.004L324.457 255.038V226.884L351.14 241.85ZM90.464 255.038L63.7805 270.004V241.85L90.464 226.884V255.038ZM52.9578 165.552L27.8605 179.629L2.76315 165.552L27.8605 151.475L52.9578 165.552ZM-34.7431 226.884L-8.05952 241.85V270.004L-34.7431 255.038V226.884ZM169.488 -1.05405L142.804 -16.0204V-44.1746L169.488 -29.2081V-1.05405ZM205.408 -91.4295L180.311 -105.507L205.408 -119.584L230.505 -105.507L205.408 -91.4295ZM241.328 -29.2081L268.012 -44.1746V-16.0204L241.328 -1.05405V-29.2081Z" fill="#8FCE0B"/>
<path fill-rule="evenodd" clip-rule="evenodd" d="M205.408 -173.123L314.708 -111.818V-56.8766L446.072 9.4375V131.034L496.36 159.24V282.386L387.06 343.691L355.112 325.771L205.333 412.063L59.7338 325.814L27.8606 343.691L-81.439 282.386V159.24L-35.2559 133.336V9.4375L96.1086 -56.8766V-111.818L205.408 -173.123ZM96.1086 -32.734L-13.7039 22.7006V121.248L27.8606 97.9343L137.16 159.24V282.386L81.4539 313.631L205.484 387.104L333.237 313.502L277.761 282.386V159.24L387.06 97.9343L424.52 118.945V22.7006L314.708 -32.734V11.3276L205.408 72.6337L96.1086 11.3276V-32.734ZM117.661 -87.1068L194.632 -43.9339V41.8783L117.661 -1.29468V-87.1068ZM216.184 41.8783L293.156 -1.29468V-87.1068L216.184 -43.9339V41.8783ZM205.408 -62.6001L281.903 -105.507L205.408 -148.413L128.913 -105.507L205.408 -62.6001ZM-59.887 183.951L17.0846 227.124V312.936L-59.887 269.763V183.951ZM38.6366 312.936L115.608 269.763V183.951L38.6366 227.124V312.936ZM27.8606 208.457L104.357 165.552L27.8606 122.645L-48.6347 165.552L27.8606 208.457ZM299.313 183.951L376.285 227.124V312.936L299.313 269.763V183.951ZM397.836 312.936L474.808 269.763V183.951L397.836 227.124V312.936ZM387.06 208.457L463.556 165.552L387.06 122.645L310.565 165.552L387.06 208.457Z" fill="#4B5A30" stroke="#4B5A30" stroke-width="1.5"/>
</g>
<g clip-path="url(#clip2_405_1829)">
<path fill-rule="evenodd" clip-rule="evenodd" d="M1537 553C1537 800.976 1335.98 1002 1088 1002C840.024 1002 639 800.976 639 553C639 305.024 840.024 104 1088 104C1335.98 104 1537 305.024 1537 553ZM1084.41 228.048L1218.85 303.457V357.651L1350.22 423.965V546.308L1400.5 574.515V727.111L1266.06 802.52L1234.28 784.694L1084.16 871.187L938.391 784.835L906.86 802.52L772.417 727.111V574.515L818.6 548.611V423.965L949.964 357.651V303.457L1084.41 228.048ZM890.44 468.173L949.964 438.125V456.053L1084.41 531.462L1218.85 456.053V438.125L1278.38 468.173V506.013L1266.06 499.106L1131.62 574.515V727.111L1161.36 743.794L1084.66 787.984L1010.79 744.226L1041.3 727.111V574.515L906.86 499.105L890.44 508.316V468.173ZM1240.96 595.552L1266.06 581.475L1291.16 595.552L1266.06 609.629L1240.96 595.552ZM1301.98 671.85L1328.66 656.884V685.038L1301.98 700.004V671.85ZM1230.14 671.85V700.004L1203.46 685.038V656.884L1230.14 671.85ZM969.464 685.038L942.78 700.004V671.85L969.464 656.884V685.038ZM931.958 595.552L906.86 609.629L881.763 595.552L906.86 581.475L931.958 595.552ZM844.257 656.884L870.94 671.85V700.004L844.257 685.038V656.884ZM1048.49 428.946L1021.8 413.98V385.825L1048.49 400.792V428.946ZM1084.41 338.571L1059.31 324.493L1084.41 310.416L1109.51 324.493L1084.41 338.571ZM1120.33 400.792L1147.01 385.825V413.98L1120.33 428.946V400.792Z" fill="#8FCE0B"/>
<path fill-rule="evenodd" clip-rule="evenodd" d="M1084.41 256.877L1193.71 318.182V373.123L1325.07 439.438V561.034L1375.36 589.24V712.386L1266.06 773.691L1234.11 755.771L1084.33 842.063L938.734 755.814L906.86 773.691L797.561 712.386V589.24L843.744 563.336V439.438L975.108 373.123V318.182L1084.41 256.877ZM975.108 397.266L865.296 452.701V551.248L906.86 527.934L1016.16 589.24V712.386L960.454 743.631L1084.48 817.104L1212.24 743.502L1156.76 712.386V589.24L1266.06 527.934L1303.52 548.945V452.701L1193.71 397.266V441.328L1084.41 502.634L975.108 441.328V397.266ZM996.66 342.893L1073.63 386.066V471.878L996.66 428.705V342.893ZM1095.18 471.878L1172.16 428.705V342.893L1095.18 386.066V471.878ZM1084.41 367.4L1160.9 324.493L1084.41 281.587L1007.91 324.493L1084.41 367.4ZM819.113 613.951L896.084 657.124V742.936L819.113 699.763V613.951ZM917.636 742.936L994.608 699.763V613.951L917.636 657.124V742.936ZM906.86 638.457L983.356 595.552L906.86 552.645L830.365 595.552L906.86 638.457ZM1178.31 613.951L1255.28 657.124V742.936L1178.31 699.763V613.951ZM1276.84 742.936L1353.81 699.763V613.951L1276.84 657.124V742.936ZM1266.06 638.457L1342.56 595.552L1266.06 552.645L1189.57 595.552L1266.06 638.457Z" fill="#4B5A30" stroke="#4B5A30" stroke-width="1.5"/>
</g>
</mask>
<g mask="url(#mask0_405_1829)">
<rect x="-22.7305" y="-15.585" width="10" height="40" rx="5" transform="rotate(-38.0081 -22.7305 -15.585)" fill="#CEE9FD"/>
<rect x="-23.5315" y="54.8447" width="10" height="40" rx="5" transform="rotate(-38.0081 -23.5315 54.8447)" fill="#CEE9FD"/>
<rect x="-24.24" y="89.6658" width="10" height="40" rx="5" transform="rotate(-38.0081 -24.24 89.6658)" fill="#CEE9FD"/>
<rect x="11.137" y="27.751" width="10" height="40" rx="5" transform="rotate(-38.0081 11.137 27.751)" fill="#CEE9FD"/>
<rect x="10.4285" y="62.5718" width="10" height="40" rx="5" transform="rotate(-38.0081 10.4285 62.5718)" fill="#CEE9FD"/>
<rect x="-22.8232" y="20.0239" width="10" height="40" rx="5" transform="rotate(-38.0081 -22.8232 20.0239)" fill="#CEE9FD"/>
<rect x="45.8057" y="0.656738" width="10" height="40" rx="5" transform="rotate(-38.0081 45.8057 0.656738)" fill="#CEE9FD"/>
<rect x="11.8455" y="-7.07007" width="10" height="40" rx="5" transform="rotate(-38.0081 11.8455 -7.07007)" fill="#CEE9FD"/>
<rect x="45.0972" y="35.4778" width="10" height="40" rx="5" transform="rotate(-38.0081 45.0972 35.4778)" fill="#CEE9FD"/>
<rect x="80.4744" y="-26.437" width="10" height="40" rx="5" transform="rotate(-38.0081 80.4744 -26.437)" fill="#CEE9FD"/>
<rect x="79.7659" y="8.38379" width="10" height="40" rx="5" transform="rotate(-38.0081 79.7659 8.38379)" fill="#CEE9FD"/>
<rect x="114.435" y="-18.7102" width="10" height="40" rx="5" transform="rotate(-38.0081 114.435 -18.7102)" fill="#CEE9FD"/>
<rect x="-25.0413" y="160.096" width="10" height="40" rx="5" transform="rotate(-38.0081 -25.0413 160.096)" fill="#CEE9FD"/>
<rect x="-25.7498" y="194.917" width="10" height="40" rx="5" transform="rotate(-38.0081 -25.7498 194.917)" fill="#CEE9FD"/>
<rect x="9.62744" y="133.001" width="10" height="40" rx="5" transform="rotate(-38.0081 9.62744 133.001)" fill="#CEE9FD"/>
<rect x="-24.3328" y="125.275" width="10" height="40" rx="5" transform="rotate(-38.0081 -24.3328 125.275)" fill="#CEE9FD"/>
<rect x="8.91895" y="167.823" width="10" height="40" rx="5" transform="rotate(-38.0081 8.91895 167.823)" fill="#CEE9FD"/>
<rect x="44.2961" y="105.908" width="10" height="40" rx="5" transform="rotate(-38.0081 44.2961 105.908)" fill="#CEE9FD"/>
<rect x="43.5876" y="140.729" width="10" height="40" rx="5" transform="rotate(-38.0081 43.5876 140.729)" fill="#CEE9FD"/>
<rect x="10.3359" y="98.1807" width="10" height="40" rx="5" transform="rotate(-38.0081 10.3359 98.1807)" fill="#CEE9FD"/>
<rect x="78.9648" y="78.8135" width="10" height="40" rx="5" transform="rotate(-38.0081 78.9648 78.8135)" fill="#CEE9FD"/>
<rect x="45.0046" y="71.0867" width="10" height="40" rx="5" transform="rotate(-38.0081 45.0046 71.0867)" fill="#CEE9FD"/>
<rect x="78.2563" y="113.635" width="10" height="40" rx="5" transform="rotate(-38.0081 78.2563 113.635)" fill="#CEE9FD"/>
<rect x="113.633" y="51.7197" width="10" height="40" rx="5" transform="rotate(-38.0081 113.633 51.7197)" fill="#CEE9FD"/>
<rect x="112.925" y="86.5405" width="10" height="40" rx="5" transform="rotate(-38.0081 112.925 86.5405)" fill="#CEE9FD"/>
<rect x="79.6731" y="43.9927" width="10" height="40" rx="5" transform="rotate(-38.0081 79.6731 43.9927)" fill="#CEE9FD"/>
<rect x="148.302" y="24.6255" width="10" height="40" rx="5" transform="rotate(-38.0081 148.302 24.6255)" fill="#CEE9FD"/>
<rect x="114.342" y="16.8987" width="10" height="40" rx="5" transform="rotate(-38.0081 114.342 16.8987)" fill="#CEE9FD"/>
<rect x="147.594" y="59.4465" width="10" height="40" rx="5" transform="rotate(-38.0081 147.594 59.4465)" fill="#CEE9FD"/>
<rect x="182.971" y="-2.46826" width="10" height="40" rx="5" transform="rotate(-38.0081 182.971 -2.46826)" fill="#CEE9FD"/>
<rect x="182.262" y="32.3525" width="10" height="40" rx="5" transform="rotate(-38.0081 182.262 32.3525)" fill="#CEE9FD"/>
<rect x="149.01" y="-10.1953" width="10" height="40" rx="5" transform="rotate(-38.0081 149.01 -10.1953)" fill="#CEE9FD"/>
<rect x="217.639" y="-29.5625" width="10" height="40" rx="5" transform="rotate(-38.0081 217.639 -29.5625)" fill="#CEE9FD"/>
<rect x="216.931" y="5.25854" width="10" height="40" rx="5" transform="rotate(-38.0081 216.931 5.25854)" fill="#CEE9FD"/>
<rect x="251.599" y="-21.8354" width="10" height="40" rx="5" transform="rotate(-38.0081 251.599 -21.8354)" fill="#CEE9FD"/>
<rect x="-26.5508" y="265.346" width="10" height="40" rx="5" transform="rotate(-38.0081 -26.5508 265.346)" fill="#CEE9FD"/>
<rect x="-27.2593" y="300.167" width="10" height="40" rx="5" transform="rotate(-38.0081 -27.2593 300.167)" fill="#CEE9FD"/>
<rect x="8.11792" y="238.252" width="10" height="40" rx="5" transform="rotate(-38.0081 8.11792 238.252)" fill="#CEE9FD"/>
<rect x="-25.8423" y="230.525" width="10" height="40" rx="5" transform="rotate(-38.0081 -25.8423 230.525)" fill="#CEE9FD"/>
<rect x="7.40942" y="273.073" width="10" height="40" rx="5" transform="rotate(-38.0081 7.40942 273.073)" fill="#CEE9FD"/>
<rect x="42.7866" y="211.158" width="10" height="40" rx="5" transform="rotate(-38.0081 42.7866 211.158)" fill="#CEE9FD"/>
<rect x="42.0781" y="245.979" width="10" height="40" rx="5" transform="rotate(-38.0081 42.0781 245.979)" fill="#CEE9FD"/>
<rect x="8.82642" y="203.431" width="10" height="40" rx="5" transform="rotate(-38.0081 8.82642 203.431)" fill="#CEE9FD"/>
<rect x="77.4553" y="184.064" width="10" height="40" rx="5" transform="rotate(-38.0081 77.4553 184.064)" fill="#CEE9FD"/>
<rect x="43.4951" y="176.337" width="10" height="40" rx="5" transform="rotate(-38.0081 43.4951 176.337)" fill="#CEE9FD"/>
<rect x="76.7468" y="218.885" width="10" height="40" rx="5" transform="rotate(-38.0081 76.7468 218.885)" fill="#CEE9FD"/>
<rect x="112.124" y="156.97" width="10" height="40" rx="5" transform="rotate(-38.0081 112.124 156.97)" fill="#CEE9FD"/>
<rect x="111.415" y="191.791" width="10" height="40" rx="5" transform="rotate(-38.0081 111.415 191.791)" fill="#CEE9FD"/>
<rect x="78.1636" y="149.243" width="10" height="40" rx="5" transform="rotate(-38.0081 78.1636 149.243)" fill="#CEE9FD"/>
<rect x="146.792" y="129.876" width="10" height="40" rx="5" transform="rotate(-38.0081 146.792 129.876)" fill="#CEE9FD"/>
<rect x="112.832" y="122.149" width="10" height="40" rx="5" transform="rotate(-38.0081 112.832 122.149)" fill="#CEE9FD"/>
<rect x="146.084" y="164.697" width="10" height="40" rx="5" transform="rotate(-38.0081 146.084 164.697)" fill="#CEE9FD"/>
<rect x="181.461" y="102.782" width="10" height="40" rx="5" transform="rotate(-38.0081 181.461 102.782)" fill="#CEE9FD"/>
<rect x="180.753" y="137.603" width="10" height="40" rx="5" transform="rotate(-38.0081 180.753 137.603)" fill="#CEE9FD"/>
<rect x="147.501" y="95.0554" width="10" height="40" rx="5" transform="rotate(-38.0081 147.501 95.0554)" fill="#CEE9FD"/>
<rect x="216.13" y="75.6882" width="10" height="40" rx="5" transform="rotate(-38.0081 216.13 75.6882)" fill="#CEE9FD"/>
<rect x="182.17" y="67.9614" width="10" height="40" rx="5" transform="rotate(-38.0081 182.17 67.9614)" fill="#CEE9FD"/>
<rect x="215.421" y="110.509" width="10" height="40" rx="5" transform="rotate(-38.0081 215.421 110.509)" fill="#CEE9FD"/>
<rect x="250.798" y="48.5942" width="10" height="40" rx="5" transform="rotate(-38.0081 250.798 48.5942)" fill="#CEE9FD"/>
<rect x="250.09" y="83.415" width="10" height="40" rx="5" transform="rotate(-38.0081 250.09 83.415)" fill="#CEE9FD"/>
<rect x="216.838" y="40.8672" width="10" height="40" rx="5" transform="rotate(-38.0081 216.838 40.8672)" fill="#CEE9FD"/>
<rect x="285.467" y="21.5" width="10" height="40" rx="5" transform="rotate(-38.0081 285.467 21.5)" fill="#CEE9FD"/>
<rect x="251.507" y="13.7732" width="10" height="40" rx="5" transform="rotate(-38.0081 251.507 13.7732)" fill="#CEE9FD"/>
<rect x="284.759" y="56.321" width="10" height="40" rx="5" transform="rotate(-38.0081 284.759 56.321)" fill="#CEE9FD"/>
<rect x="320.136" y="-5.59375" width="10" height="40" rx="5" transform="rotate(-38.0081 320.136 -5.59375)" fill="#CEE9FD"/>
<rect x="319.427" y="29.2271" width="10" height="40" rx="5" transform="rotate(-38.0081 319.427 29.2271)" fill="#CEE9FD"/>
<rect x="286.175" y="-13.3208" width="10" height="40" rx="5" transform="rotate(-38.0081 286.175 -13.3208)" fill="#CEE9FD"/>
<rect x="354.096" y="2.13306" width="10" height="40" rx="5" transform="rotate(-38.0081 354.096 2.13306)" fill="#CEE9FD"/>
<rect x="388.764" y="-24.9609" width="10" height="40" rx="5" transform="rotate(-38.0081 388.764 -24.9609)" fill="#CEE9FD"/>
<rect x="-28.0603" y="370.597" width="10" height="40" rx="5" transform="rotate(-38.0081 -28.0603 370.597)" fill="#CEE9FD"/>
<rect x="-28.7688" y="405.418" width="10" height="40" rx="5" transform="rotate(-38.0081 -28.7688 405.418)" fill="#CEE9FD"/>
<rect x="6.6084" y="343.503" width="10" height="40" rx="5" transform="rotate(-38.0081 6.6084 343.503)" fill="#CEE9FD"/>
<rect x="5.8999" y="378.324" width="10" height="40" rx="5" transform="rotate(-38.0081 5.8999 378.324)" fill="#CEE9FD"/>
<rect x="-27.3518" y="335.776" width="10" height="40" rx="5" transform="rotate(-38.0081 -27.3518 335.776)" fill="#CEE9FD"/>
<rect x="41.2771" y="316.409" width="10" height="40" rx="5" transform="rotate(-38.0081 41.2771 316.409)" fill="#CEE9FD"/>
<rect x="7.31689" y="308.682" width="10" height="40" rx="5" transform="rotate(-38.0081 7.31689 308.682)" fill="#CEE9FD"/>
<rect x="40.5686" y="351.23" width="10" height="40" rx="5" transform="rotate(-38.0081 40.5686 351.23)" fill="#CEE9FD"/>
<rect x="75.9456" y="289.315" width="10" height="40" rx="5" transform="rotate(-38.0081 75.9456 289.315)" fill="#CEE9FD"/>
<rect x="75.2371" y="324.136" width="10" height="40" rx="5" transform="rotate(-38.0081 75.2371 324.136)" fill="#CEE9FD"/>
<rect x="41.9854" y="281.588" width="10" height="40" rx="5" transform="rotate(-38.0081 41.9854 281.588)" fill="#CEE9FD"/>
<rect x="110.614" y="262.221" width="10" height="40" rx="5" transform="rotate(-38.0081 110.614 262.221)" fill="#CEE9FD"/>
<rect x="76.6541" y="254.494" width="10" height="40" rx="5" transform="rotate(-38.0081 76.6541 254.494)" fill="#CEE9FD"/>
<rect x="109.906" y="297.042" width="10" height="40" rx="5" transform="rotate(-38.0081 109.906 297.042)" fill="#CEE9FD"/>
<rect x="145.283" y="235.127" width="10" height="40" rx="5" transform="rotate(-38.0081 145.283 235.127)" fill="#CEE9FD"/>
<rect x="144.574" y="269.948" width="10" height="40" rx="5" transform="rotate(-38.0081 144.574 269.948)" fill="#CEE9FD"/>
<rect x="111.323" y="227.4" width="10" height="40" rx="5" transform="rotate(-38.0081 111.323 227.4)" fill="#CEE9FD"/>
<rect x="179.952" y="208.033" width="10" height="40" rx="5" transform="rotate(-38.0081 179.952 208.033)" fill="#CEE9FD"/>
<rect x="145.991" y="200.306" width="10" height="40" rx="5" transform="rotate(-38.0081 145.991 200.306)" fill="#CEE9FD"/>
<rect x="179.243" y="242.854" width="10" height="40" rx="5" transform="rotate(-38.0081 179.243 242.854)" fill="#CEE9FD"/>
<rect x="214.62" y="180.939" width="10" height="40" rx="5" transform="rotate(-38.0081 214.62 180.939)" fill="#CEE9FD"/>
<rect x="213.912" y="215.76" width="10" height="40" rx="5" transform="rotate(-38.0081 213.912 215.76)" fill="#CEE9FD"/>
<rect x="180.66" y="173.212" width="10" height="40" rx="5" transform="rotate(-38.0081 180.66 173.212)" fill="#CEE9FD"/>
<rect x="249.289" y="153.845" width="10" height="40" rx="5" transform="rotate(-38.0081 249.289 153.845)" fill="#CEE9FD"/>
<rect x="215.329" y="146.118" width="10" height="40" rx="5" transform="rotate(-38.0081 215.329 146.118)" fill="#CEE9FD"/>
<rect x="248.58" y="188.666" width="10" height="40" rx="5" transform="rotate(-38.0081 248.58 188.666)" fill="#CEE9FD"/>
<rect x="283.958" y="126.751" width="10" height="40" rx="5" transform="rotate(-38.0081 283.958 126.751)" fill="#CEE9FD"/>
<rect x="283.249" y="161.572" width="10" height="40" rx="5" transform="rotate(-38.0081 283.249 161.572)" fill="#CEE9FD"/>
<rect x="249.997" y="119.024" width="10" height="40" rx="5" transform="rotate(-38.0081 249.997 119.024)" fill="#CEE9FD"/>
<rect x="318.626" y="99.657" width="10" height="40" rx="5" transform="rotate(-38.0081 318.626 99.657)" fill="#CEE9FD"/>
<rect x="284.666" y="91.9302" width="10" height="40" rx="5" transform="rotate(-38.0081 284.666 91.9302)" fill="#CEE9FD"/>
<rect x="317.918" y="134.478" width="10" height="40" rx="5" transform="rotate(-38.0081 317.918 134.478)" fill="#CEE9FD"/>
<rect x="353.295" y="72.563" width="10" height="40" rx="5" transform="rotate(-38.0081 353.295 72.563)" fill="#CEE9FD"/>
<rect x="352.586" y="107.384" width="10" height="40" rx="5" transform="rotate(-38.0081 352.586 107.384)" fill="#CEE9FD"/>
<rect x="319.335" y="64.8362" width="10" height="40" rx="5" transform="rotate(-38.0081 319.335 64.8362)" fill="#CEE9FD"/>
<rect x="387.963" y="45.469" width="10" height="40" rx="5" transform="rotate(-38.0081 387.963 45.469)" fill="#CEE9FD"/>
<rect x="354.003" y="37.7422" width="10" height="40" rx="5" transform="rotate(-38.0081 354.003 37.7422)" fill="#CEE9FD"/>
<rect x="387.255" y="80.29" width="10" height="40" rx="5" transform="rotate(-38.0081 387.255 80.29)" fill="#CEE9FD"/>
<rect x="422.632" y="18.375" width="10" height="40" rx="5" transform="rotate(-38.0081 422.632 18.375)" fill="#CEE9FD"/>
<rect x="421.924" y="53.196" width="10" height="40" rx="5" transform="rotate(-38.0081 421.924 53.196)" fill="#CEE9FD"/>
<rect x="388.672" y="10.6482" width="10" height="40" rx="5" transform="rotate(-38.0081 388.672 10.6482)" fill="#CEE9FD"/>
<rect x="457.301" y="-8.71899" width="10" height="40" rx="5" transform="rotate(-38.0081 457.301 -8.71899)" fill="#CEE9FD"/>
<rect x="423.34" y="-16.4458" width="10" height="40" rx="5" transform="rotate(-38.0081 423.34 -16.4458)" fill="#CEE9FD"/>
<rect x="456.592" y="26.1021" width="10" height="40" rx="5" transform="rotate(-38.0081 456.592 26.1021)" fill="#CEE9FD"/>
<rect x="491.261" y="-0.992188" width="10" height="40" rx="5" transform="rotate(-38.0081 491.261 -0.992188)" fill="#CEE9FD"/>
<rect x="525.93" y="-28.0862" width="10" height="40" rx="5" transform="rotate(-38.0081 525.93 -28.0862)" fill="#CEE9FD"/>
<rect x="-29.5698" y="475.848" width="10" height="40" rx="5" transform="rotate(-38.0081 -29.5698 475.848)" fill="#CEE9FD"/>
<rect x="-30.2783" y="510.669" width="10" height="40" rx="5" transform="rotate(-38.0081 -30.2783 510.669)" fill="#CEE9FD"/>
<rect x="5.09888" y="448.754" width="10" height="40" rx="5" transform="rotate(-38.0081 5.09888 448.754)" fill="#CEE9FD"/>
<rect x="4.39038" y="483.575" width="10" height="40" rx="5" transform="rotate(-38.0081 4.39038 483.575)" fill="#CEE9FD"/>
<rect x="-28.8613" y="441.027" width="10" height="40" rx="5" transform="rotate(-38.0081 -28.8613 441.027)" fill="#CEE9FD"/>
<rect x="39.7676" y="421.66" width="10" height="40" rx="5" transform="rotate(-38.0081 39.7676 421.66)" fill="#CEE9FD"/>
<rect x="5.80737" y="413.933" width="10" height="40" rx="5" transform="rotate(-38.0081 5.80737 413.933)" fill="#CEE9FD"/>
<rect x="39.0591" y="456.481" width="10" height="40" rx="5" transform="rotate(-38.0081 39.0591 456.481)" fill="#CEE9FD"/>
<rect x="74.436" y="394.566" width="10" height="40" rx="5" transform="rotate(-38.0081 74.436 394.566)" fill="#CEE9FD"/>
<rect x="73.7275" y="429.387" width="10" height="40" rx="5" transform="rotate(-38.0081 73.7275 429.387)" fill="#CEE9FD"/>
<rect x="40.4758" y="386.839" width="10" height="40" rx="5" transform="rotate(-38.0081 40.4758 386.839)" fill="#CEE9FD"/>
<rect x="109.105" y="367.472" width="10" height="40" rx="5" transform="rotate(-38.0081 109.105 367.472)" fill="#CEE9FD"/>
<rect x="75.1445" y="359.745" width="10" height="40" rx="5" transform="rotate(-38.0081 75.1445 359.745)" fill="#CEE9FD"/>
<rect x="108.396" y="402.293" width="10" height="40" rx="5" transform="rotate(-38.0081 108.396 402.293)" fill="#CEE9FD"/>
<rect x="143.773" y="340.378" width="10" height="40" rx="5" transform="rotate(-38.0081 143.773 340.378)" fill="#CEE9FD"/>
<rect x="143.065" y="375.199" width="10" height="40" rx="5" transform="rotate(-38.0081 143.065 375.199)" fill="#CEE9FD"/>
<rect x="109.813" y="332.651" width="10" height="40" rx="5" transform="rotate(-38.0081 109.813 332.651)" fill="#CEE9FD"/>
<rect x="178.442" y="313.284" width="10" height="40" rx="5" transform="rotate(-38.0081 178.442 313.284)" fill="#CEE9FD"/>
<rect x="144.482" y="305.557" width="10" height="40" rx="5" transform="rotate(-38.0081 144.482 305.557)" fill="#CEE9FD"/>
<rect x="177.734" y="348.105" width="10" height="40" rx="5" transform="rotate(-38.0081 177.734 348.105)" fill="#CEE9FD"/>
<rect x="213.111" y="286.19" width="10" height="40" rx="5" transform="rotate(-38.0081 213.111 286.19)" fill="#CEE9FD"/>
<rect x="212.402" y="321.011" width="10" height="40" rx="5" transform="rotate(-38.0081 212.402 321.011)" fill="#CEE9FD"/>
<rect x="179.15" y="278.463" width="10" height="40" rx="5" transform="rotate(-38.0081 179.15 278.463)" fill="#CEE9FD"/>
<rect x="247.779" y="259.096" width="10" height="40" rx="5" transform="rotate(-38.0081 247.779 259.096)" fill="#CEE9FD"/>
<rect x="213.819" y="251.369" width="10" height="40" rx="5" transform="rotate(-38.0081 213.819 251.369)" fill="#CEE9FD"/>
<rect x="247.071" y="293.917" width="10" height="40" rx="5" transform="rotate(-38.0081 247.071 293.917)" fill="#CEE9FD"/>
<rect x="282.448" y="232.002" width="10" height="40" rx="5" transform="rotate(-38.0081 282.448 232.002)" fill="#CEE9FD"/>
<rect x="281.74" y="266.823" width="10" height="40" rx="5" transform="rotate(-38.0081 281.74 266.823)" fill="#CEE9FD"/>
<rect x="248.488" y="224.275" width="10" height="40" rx="5" transform="rotate(-38.0081 248.488 224.275)" fill="#CEE9FD"/>
<rect x="317.117" y="204.908" width="10" height="40" rx="5" transform="rotate(-38.0081 317.117 204.908)" fill="#CEE9FD"/>
<rect x="283.156" y="197.181" width="10" height="40" rx="5" transform="rotate(-38.0081 283.156 197.181)" fill="#CEE9FD"/>
<rect x="316.408" y="239.729" width="10" height="40" rx="5" transform="rotate(-38.0081 316.408 239.729)" fill="#CEE9FD"/>
<rect x="351.785" y="177.813" width="10" height="40" rx="5" transform="rotate(-38.0081 351.785 177.813)" fill="#CEE9FD"/>
<rect x="351.077" y="212.635" width="10" height="40" rx="5" transform="rotate(-38.0081 351.077 212.635)" fill="#CEE9FD"/>
<rect x="317.825" y="170.087" width="10" height="40" rx="5" transform="rotate(-38.0081 317.825 170.087)" fill="#CEE9FD"/>
<rect x="386.454" y="150.719" width="10" height="40" rx="5" transform="rotate(-38.0081 386.454 150.719)" fill="#CEE9FD"/>
<rect x="352.494" y="142.993" width="10" height="40" rx="5" transform="rotate(-38.0081 352.494 142.993)" fill="#CEE9FD"/>
<rect x="385.745" y="185.541" width="10" height="40" rx="5" transform="rotate(-38.0081 385.745 185.541)" fill="#CEE9FD"/>
<rect x="421.122" y="123.625" width="10" height="40" rx="5" transform="rotate(-38.0081 421.122 123.625)" fill="#CEE9FD"/>
<rect x="420.414" y="158.447" width="10" height="40" rx="5" transform="rotate(-38.0081 420.414 158.447)" fill="#CEE9FD"/>
<rect x="387.162" y="115.899" width="10" height="40" rx="5" transform="rotate(-38.0081 387.162 115.899)" fill="#CEE9FD"/>
<rect x="455.791" y="96.5315" width="10" height="40" rx="5" transform="rotate(-38.0081 455.791 96.5315)" fill="#CEE9FD"/>
<rect x="421.831" y="88.8047" width="10" height="40" rx="5" transform="rotate(-38.0081 421.831 88.8047)" fill="#CEE9FD"/>
<rect x="455.083" y="131.353" width="10" height="40" rx="5" transform="rotate(-38.0081 455.083 131.353)" fill="#CEE9FD"/>
<rect x="490.46" y="69.4375" width="10" height="40" rx="5" transform="rotate(-38.0081 490.46 69.4375)" fill="#CEE9FD"/>
<rect x="489.751" y="104.259" width="10" height="40" rx="5" transform="rotate(-38.0081 489.751 104.259)" fill="#CEE9FD"/>
<rect x="456.5" y="61.7107" width="10" height="40" rx="5" transform="rotate(-38.0081 456.5 61.7107)" fill="#CEE9FD"/>
<rect x="525.128" y="42.3435" width="10" height="40" rx="5" transform="rotate(-38.0081 525.128 42.3435)" fill="#CEE9FD"/>
<rect x="491.168" y="34.6167" width="10" height="40" rx="5" transform="rotate(-38.0081 491.168 34.6167)" fill="#CEE9FD"/>
<rect x="524.42" y="77.1646" width="10" height="40" rx="5" transform="rotate(-38.0081 524.42 77.1646)" fill="#CEE9FD"/>
<rect x="559.797" y="15.2495" width="10" height="40" rx="5" transform="rotate(-38.0081 559.797 15.2495)" fill="#CEE9FD"/>
<rect x="559.089" y="50.0706" width="10" height="40" rx="5" transform="rotate(-38.0081 559.089 50.0706)" fill="#CEE9FD"/>
<rect x="525.837" y="7.52271" width="10" height="40" rx="5" transform="rotate(-38.0081 525.837 7.52271)" fill="#CEE9FD"/>
<rect x="594.466" y="-11.8445" width="10" height="40" rx="5" transform="rotate(-38.0081 594.466 -11.8445)" fill="#CEE9FD"/>
<rect x="560.505" y="-19.5713" width="10" height="40" rx="5" transform="rotate(-38.0081 560.505 -19.5713)" fill="#CEE9FD"/>
<rect x="593.757" y="22.9766" width="10" height="40" rx="5" transform="rotate(-38.0081 593.757 22.9766)" fill="#CEE9FD"/>
<rect x="628.426" y="-4.11743" width="10" height="40" rx="5" transform="rotate(-38.0081 628.426 -4.11743)" fill="#CEE9FD"/>
<rect x="663.094" y="-31.2114" width="10" height="40" rx="5" transform="rotate(-38.0081 663.094 -31.2114)" fill="#CEE9FD"/>
<rect x="-31.0793" y="581.099" width="10" height="40" rx="5" transform="rotate(-38.0081 -31.0793 581.099)" fill="#CEE9FD"/>
<rect x="-31.7878" y="615.92" width="10" height="40" rx="5" transform="rotate(-38.0081 -31.7878 615.92)" fill="#CEE9FD"/>
<rect x="3.58936" y="554.005" width="10" height="40" rx="5" transform="rotate(-38.0081 3.58936 554.005)" fill="#CEE9FD"/>
<rect x="-30.3708" y="546.278" width="10" height="40" rx="5" transform="rotate(-38.0081 -30.3708 546.278)" fill="#CEE9FD"/>
<rect x="2.88086" y="588.826" width="10" height="40" rx="5" transform="rotate(-38.0081 2.88086 588.826)" fill="#CEE9FD"/>
<rect x="38.2578" y="526.911" width="10" height="40" rx="5" transform="rotate(-38.0081 38.2578 526.911)" fill="#CEE9FD"/>
<rect x="37.5493" y="561.732" width="10" height="40" rx="5" transform="rotate(-38.0081 37.5493 561.732)" fill="#CEE9FD"/>
<rect x="4.29761" y="519.184" width="10" height="40" rx="5" transform="rotate(-38.0081 4.29761 519.184)" fill="#CEE9FD"/>
<rect x="72.9265" y="499.817" width="10" height="40" rx="5" transform="rotate(-38.0081 72.9265 499.817)" fill="#CEE9FD"/>
<rect x="38.9663" y="492.09" width="10" height="40" rx="5" transform="rotate(-38.0081 38.9663 492.09)" fill="#CEE9FD"/>
<rect x="72.218" y="534.638" width="10" height="40" rx="5" transform="rotate(-38.0081 72.218 534.638)" fill="#CEE9FD"/>
<rect x="107.595" y="472.723" width="10" height="40" rx="5" transform="rotate(-38.0081 107.595 472.723)" fill="#CEE9FD"/>
<rect x="106.887" y="507.544" width="10" height="40" rx="5" transform="rotate(-38.0081 106.887 507.544)" fill="#CEE9FD"/>
<rect x="73.635" y="464.996" width="10" height="40" rx="5" transform="rotate(-38.0081 73.635 464.996)" fill="#CEE9FD"/>
<rect x="142.264" y="445.629" width="10" height="40" rx="5" transform="rotate(-38.0081 142.264 445.629)" fill="#CEE9FD"/>
<rect x="108.304" y="437.902" width="10" height="40" rx="5" transform="rotate(-38.0081 108.304 437.902)" fill="#CEE9FD"/>
<rect x="141.555" y="480.45" width="10" height="40" rx="5" transform="rotate(-38.0081 141.555 480.45)" fill="#CEE9FD"/>
<rect x="176.932" y="418.535" width="10" height="40" rx="5" transform="rotate(-38.0081 176.932 418.535)" fill="#CEE9FD"/>
<rect x="176.224" y="453.355" width="10" height="40" rx="5" transform="rotate(-38.0081 176.224 453.355)" fill="#CEE9FD"/>
<rect x="142.972" y="410.808" width="10" height="40" rx="5" transform="rotate(-38.0081 142.972 410.808)" fill="#CEE9FD"/>
<rect x="211.601" y="391.44" width="10" height="40" rx="5" transform="rotate(-38.0081 211.601 391.44)" fill="#CEE9FD"/>
<rect x="177.641" y="383.714" width="10" height="40" rx="5" transform="rotate(-38.0081 177.641 383.714)" fill="#CEE9FD"/>
<rect x="210.893" y="426.261" width="10" height="40" rx="5" transform="rotate(-38.0081 210.893 426.261)" fill="#CEE9FD"/>
<rect x="246.27" y="364.347" width="10" height="40" rx="5" transform="rotate(-38.0081 246.27 364.347)" fill="#CEE9FD"/>
<rect x="245.561" y="399.167" width="10" height="40" rx="5" transform="rotate(-38.0081 245.561 399.167)" fill="#CEE9FD"/>
<rect x="212.31" y="356.62" width="10" height="40" rx="5" transform="rotate(-38.0081 212.31 356.62)" fill="#CEE9FD"/>
<rect x="280.938" y="337.252" width="10" height="40" rx="5" transform="rotate(-38.0081 280.938 337.252)" fill="#CEE9FD"/>
<rect x="246.978" y="329.526" width="10" height="40" rx="5" transform="rotate(-38.0081 246.978 329.526)" fill="#CEE9FD"/>
<rect x="280.23" y="372.073" width="10" height="40" rx="5" transform="rotate(-38.0081 280.23 372.073)" fill="#CEE9FD"/>
<rect x="315.607" y="310.159" width="10" height="40" rx="5" transform="rotate(-38.0081 315.607 310.159)" fill="#CEE9FD"/>
<rect x="314.899" y="344.979" width="10" height="40" rx="5" transform="rotate(-38.0081 314.899 344.979)" fill="#CEE9FD"/>
<rect x="281.647" y="302.432" width="10" height="40" rx="5" transform="rotate(-38.0081 281.647 302.432)" fill="#CEE9FD"/>
<rect x="350.276" y="283.064" width="10" height="40" rx="5" transform="rotate(-38.0081 350.276 283.064)" fill="#CEE9FD"/>
<rect x="316.315" y="275.338" width="10" height="40" rx="5" transform="rotate(-38.0081 316.315 275.338)" fill="#CEE9FD"/>
<rect x="349.567" y="317.885" width="10" height="40" rx="5" transform="rotate(-38.0081 349.567 317.885)" fill="#CEE9FD"/>
<rect x="384.944" y="255.971" width="10" height="40" rx="5" transform="rotate(-38.0081 384.944 255.971)" fill="#CEE9FD"/>
<rect x="384.236" y="290.792" width="10" height="40" rx="5" transform="rotate(-38.0081 384.236 290.792)" fill="#CEE9FD"/>
<rect x="350.984" y="248.244" width="10" height="40" rx="5" transform="rotate(-38.0081 350.984 248.244)" fill="#CEE9FD"/>
<rect x="419.613" y="228.876" width="10" height="40" rx="5" transform="rotate(-38.0081 419.613 228.876)" fill="#CEE9FD"/>
<rect x="385.653" y="221.15" width="10" height="40" rx="5" transform="rotate(-38.0081 385.653 221.15)" fill="#CEE9FD"/>
<rect x="418.905" y="263.698" width="10" height="40" rx="5" transform="rotate(-38.0081 418.905 263.698)" fill="#CEE9FD"/>
<rect x="454.282" y="201.783" width="10" height="40" rx="5" transform="rotate(-38.0081 454.282 201.783)" fill="#CEE9FD"/>
<rect x="453.573" y="236.604" width="10" height="40" rx="5" transform="rotate(-38.0081 453.573 236.604)" fill="#CEE9FD"/>
<rect x="420.321" y="194.056" width="10" height="40" rx="5" transform="rotate(-38.0081 420.321 194.056)" fill="#CEE9FD"/>
<rect x="488.95" y="174.688" width="10" height="40" rx="5" transform="rotate(-38.0081 488.95 174.688)" fill="#CEE9FD"/>
<rect x="454.99" y="166.962" width="10" height="40" rx="5" transform="rotate(-38.0081 454.99 166.962)" fill="#CEE9FD"/>
<rect x="488.242" y="209.51" width="10" height="40" rx="5" transform="rotate(-38.0081 488.242 209.51)" fill="#CEE9FD"/>
<rect x="523.619" y="147.595" width="10" height="40" rx="5" transform="rotate(-38.0081 523.619 147.595)" fill="#CEE9FD"/>
<rect x="522.91" y="182.416" width="10" height="40" rx="5" transform="rotate(-38.0081 522.91 182.416)" fill="#CEE9FD"/>
<rect x="489.659" y="139.868" width="10" height="40" rx="5" transform="rotate(-38.0081 489.659 139.868)" fill="#CEE9FD"/>
<rect x="558.287" y="120.5" width="10" height="40" rx="5" transform="rotate(-38.0081 558.287 120.5)" fill="#CEE9FD"/>
<rect x="524.327" y="112.774" width="10" height="40" rx="5" transform="rotate(-38.0081 524.327 112.774)" fill="#CEE9FD"/>
<rect x="557.579" y="155.322" width="10" height="40" rx="5" transform="rotate(-38.0081 557.579 155.322)" fill="#CEE9FD"/>
<rect x="592.956" y="93.4062" width="10" height="40" rx="5" transform="rotate(-38.0081 592.956 93.4062)" fill="#CEE9FD"/>
<rect x="592.248" y="128.227" width="10" height="40" rx="5" transform="rotate(-38.0081 592.248 128.227)" fill="#CEE9FD"/>
<rect x="558.996" y="85.6794" width="10" height="40" rx="5" transform="rotate(-38.0081 558.996 85.6794)" fill="#CEE9FD"/>
<rect x="627.625" y="66.3123" width="10" height="40" rx="5" transform="rotate(-38.0081 627.625 66.3123)" fill="#CEE9FD"/>
<rect x="593.665" y="58.5854" width="10" height="40" rx="5" transform="rotate(-38.0081 593.665 58.5854)" fill="#CEE9FD"/>
<rect x="626.916" y="101.133" width="10" height="40" rx="5" transform="rotate(-38.0081 626.916 101.133)" fill="#CEE9FD"/>
<rect x="662.293" y="39.2183" width="10" height="40" rx="5" transform="rotate(-38.0081 662.293 39.2183)" fill="#CEE9FD"/>
<rect x="661.585" y="74.0393" width="10" height="40" rx="5" transform="rotate(-38.0081 661.585 74.0393)" fill="#CEE9FD"/>
<rect x="628.333" y="31.4915" width="10" height="40" rx="5" transform="rotate(-38.0081 628.333 31.4915)" fill="#CEE9FD"/>
<rect x="696.962" y="12.1243" width="10" height="40" rx="5" transform="rotate(-38.0081 696.962 12.1243)" fill="#CEE9FD"/>
<rect x="663.002" y="4.39746" width="10" height="40" rx="5" transform="rotate(-38.0081 663.002 4.39746)" fill="#CEE9FD"/>
<rect x="696.254" y="46.9453" width="10" height="40" rx="5" transform="rotate(-38.0081 696.254 46.9453)" fill="#CEE9FD"/>
<rect x="731.631" y="-14.9697" width="10" height="40" rx="5" transform="rotate(-38.0081 731.631 -14.9697)" fill="#CEE9FD"/>
<rect x="730.922" y="19.8513" width="10" height="40" rx="5" transform="rotate(-38.0081 730.922 19.8513)" fill="#CEE9FD"/>
<rect x="697.67" y="-22.6965" width="10" height="40" rx="5" transform="rotate(-38.0081 697.67 -22.6965)" fill="#CEE9FD"/>
<rect x="765.591" y="-7.24268" width="10" height="40" rx="5" transform="rotate(-38.0081 765.591 -7.24268)" fill="#CEE9FD"/>
<rect x="36.7483" y="632.161" width="10" height="40" rx="5" transform="rotate(-38.0081 36.7483 632.161)" fill="#CEE9FD"/>
<rect x="2.78809" y="624.434" width="10" height="40" rx="5" transform="rotate(-38.0081 2.78809 624.434)" fill="#CEE9FD"/>
<rect x="71.417" y="605.067" width="10" height="40" rx="5" transform="rotate(-38.0081 71.417 605.067)" fill="#CEE9FD"/>
<rect x="37.4568" y="597.34" width="10" height="40" rx="5" transform="rotate(-38.0081 37.4568 597.34)" fill="#CEE9FD"/>
<rect x="70.7085" y="639.888" width="10" height="40" rx="5" transform="rotate(-38.0081 70.7085 639.888)" fill="#CEE9FD"/>
<rect x="106.086" y="577.973" width="10" height="40" rx="5" transform="rotate(-38.0081 106.086 577.973)" fill="#CEE9FD"/>
<rect x="105.377" y="612.794" width="10" height="40" rx="5" transform="rotate(-38.0081 105.377 612.794)" fill="#CEE9FD"/>
<rect x="72.1255" y="570.246" width="10" height="40" rx="5" transform="rotate(-38.0081 72.1255 570.246)" fill="#CEE9FD"/>
<rect x="140.754" y="550.879" width="10" height="40" rx="5" transform="rotate(-38.0081 140.754 550.879)" fill="#CEE9FD"/>
<rect x="106.794" y="543.152" width="10" height="40" rx="5" transform="rotate(-38.0081 106.794 543.152)" fill="#CEE9FD"/>
<rect x="140.046" y="585.7" width="10" height="40" rx="5" transform="rotate(-38.0081 140.046 585.7)" fill="#CEE9FD"/>
<rect x="175.423" y="523.785" width="10" height="40" rx="5" transform="rotate(-38.0081 175.423 523.785)" fill="#CEE9FD"/>
<rect x="174.714" y="558.606" width="10" height="40" rx="5" transform="rotate(-38.0081 174.714 558.606)" fill="#CEE9FD"/>
<rect x="141.463" y="516.058" width="10" height="40" rx="5" transform="rotate(-38.0081 141.463 516.058)" fill="#CEE9FD"/>
<rect x="210.092" y="496.691" width="10" height="40" rx="5" transform="rotate(-38.0081 210.092 496.691)" fill="#CEE9FD"/>
<rect x="176.131" y="488.964" width="10" height="40" rx="5" transform="rotate(-38.0081 176.131 488.964)" fill="#CEE9FD"/>
<rect x="209.383" y="531.512" width="10" height="40" rx="5" transform="rotate(-38.0081 209.383 531.512)" fill="#CEE9FD"/>
<rect x="244.76" y="469.597" width="10" height="40" rx="5" transform="rotate(-38.0081 244.76 469.597)" fill="#CEE9FD"/>
<rect x="244.052" y="504.418" width="10" height="40" rx="5" transform="rotate(-38.0081 244.052 504.418)" fill="#CEE9FD"/>
<rect x="210.8" y="461.87" width="10" height="40" rx="5" transform="rotate(-38.0081 210.8 461.87)" fill="#CEE9FD"/>
<rect x="279.429" y="442.503" width="10" height="40" rx="5" transform="rotate(-38.0081 279.429 442.503)" fill="#CEE9FD"/>
<rect x="245.469" y="434.776" width="10" height="40" rx="5" transform="rotate(-38.0081 245.469 434.776)" fill="#CEE9FD"/>
<rect x="278.72" y="477.324" width="10" height="40" rx="5" transform="rotate(-38.0081 278.72 477.324)" fill="#CEE9FD"/>
<rect x="314.098" y="415.409" width="10" height="40" rx="5" transform="rotate(-38.0081 314.098 415.409)" fill="#CEE9FD"/>
<rect x="313.389" y="450.23" width="10" height="40" rx="5" transform="rotate(-38.0081 313.389 450.23)" fill="#CEE9FD"/>
<rect x="280.137" y="407.682" width="10" height="40" rx="5" transform="rotate(-38.0081 280.137 407.682)" fill="#CEE9FD"/>
<rect x="348.766" y="388.315" width="10" height="40" rx="5" transform="rotate(-38.0081 348.766 388.315)" fill="#CEE9FD"/>
<rect x="314.806" y="380.588" width="10" height="40" rx="5" transform="rotate(-38.0081 314.806 380.588)" fill="#CEE9FD"/>
<rect x="348.058" y="423.136" width="10" height="40" rx="5" transform="rotate(-38.0081 348.058 423.136)" fill="#CEE9FD"/>
<rect x="383.435" y="361.221" width="10" height="40" rx="5" transform="rotate(-38.0081 383.435 361.221)" fill="#CEE9FD"/>
<rect x="382.726" y="396.042" width="10" height="40" rx="5" transform="rotate(-38.0081 382.726 396.042)" fill="#CEE9FD"/>
<rect x="349.475" y="353.494" width="10" height="40" rx="5" transform="rotate(-38.0081 349.475 353.494)" fill="#CEE9FD"/>
<rect x="418.103" y="334.127" width="10" height="40" rx="5" transform="rotate(-38.0081 418.103 334.127)" fill="#CEE9FD"/>
<rect x="384.143" y="326.4" width="10" height="40" rx="5" transform="rotate(-38.0081 384.143 326.4)" fill="#CEE9FD"/>
<rect x="417.395" y="368.948" width="10" height="40" rx="5" transform="rotate(-38.0081 417.395 368.948)" fill="#CEE9FD"/>
<rect x="452.772" y="307.033" width="10" height="40" rx="5" transform="rotate(-38.0081 452.772 307.033)" fill="#CEE9FD"/>
<rect x="452.063" y="341.854" width="10" height="40" rx="5" transform="rotate(-38.0081 452.063 341.854)" fill="#CEE9FD"/>
<rect x="418.812" y="299.306" width="10" height="40" rx="5" transform="rotate(-38.0081 418.812 299.306)" fill="#CEE9FD"/>
<rect x="487.441" y="279.939" width="10" height="40" rx="5" transform="rotate(-38.0081 487.441 279.939)" fill="#CEE9FD"/>
<rect x="453.48" y="272.212" width="10" height="40" rx="5" transform="rotate(-38.0081 453.48 272.212)" fill="#CEE9FD"/>
<rect x="486.732" y="314.76" width="10" height="40" rx="5" transform="rotate(-38.0081 486.732 314.76)" fill="#CEE9FD"/>
<rect x="522.109" y="252.845" width="10" height="40" rx="5" transform="rotate(-38.0081 522.109 252.845)" fill="#CEE9FD"/>
<rect x="521.401" y="287.666" width="10" height="40" rx="5" transform="rotate(-38.0081 521.401 287.666)" fill="#CEE9FD"/>
<rect x="488.149" y="245.118" width="10" height="40" rx="5" transform="rotate(-38.0081 488.149 245.118)" fill="#CEE9FD"/>
<rect x="556.778" y="225.751" width="10" height="40" rx="5" transform="rotate(-38.0081 556.778 225.751)" fill="#CEE9FD"/>
<rect x="522.818" y="218.024" width="10" height="40" rx="5" transform="rotate(-38.0081 522.818 218.024)" fill="#CEE9FD"/>
<rect x="556.069" y="260.572" width="10" height="40" rx="5" transform="rotate(-38.0081 556.069 260.572)" fill="#CEE9FD"/>
<rect x="591.447" y="198.657" width="10" height="40" rx="5" transform="rotate(-38.0081 591.447 198.657)" fill="#CEE9FD"/>
<rect x="590.738" y="233.478" width="10" height="40" rx="5" transform="rotate(-38.0081 590.738 233.478)" fill="#CEE9FD"/>
<rect x="557.486" y="190.93" width="10" height="40" rx="5" transform="rotate(-38.0081 557.486 190.93)" fill="#CEE9FD"/>
<rect x="626.115" y="171.563" width="10" height="40" rx="5" transform="rotate(-38.0081 626.115 171.563)" fill="#CEE9FD"/>
<rect x="592.155" y="163.836" width="10" height="40" rx="5" transform="rotate(-38.0081 592.155 163.836)" fill="#CEE9FD"/>
<rect x="625.407" y="206.384" width="10" height="40" rx="5" transform="rotate(-38.0081 625.407 206.384)" fill="#CEE9FD"/>
<rect x="660.784" y="144.469" width="10" height="40" rx="5" transform="rotate(-38.0081 660.784 144.469)" fill="#CEE9FD"/>
<rect x="660.075" y="179.29" width="10" height="40" rx="5" transform="rotate(-38.0081 660.075 179.29)" fill="#CEE9FD"/>
<rect x="626.824" y="136.742" width="10" height="40" rx="5" transform="rotate(-38.0081 626.824 136.742)" fill="#CEE9FD"/>
<rect x="695.452" y="117.375" width="10" height="40" rx="5" transform="rotate(-38.0081 695.452 117.375)" fill="#CEE9FD"/>
<rect x="661.492" y="109.648" width="10" height="40" rx="5" transform="rotate(-38.0081 661.492 109.648)" fill="#CEE9FD"/>
<rect x="694.744" y="152.196" width="10" height="40" rx="5" transform="rotate(-38.0081 694.744 152.196)" fill="#CEE9FD"/>
<rect x="730.121" y="90.2812" width="10" height="40" rx="5" transform="rotate(-38.0081 730.121 90.2812)" fill="#CEE9FD"/>
<rect x="729.413" y="125.102" width="10" height="40" rx="5" transform="rotate(-38.0081 729.413 125.102)" fill="#CEE9FD"/>
<rect x="696.161" y="82.5542" width="10" height="40" rx="5" transform="rotate(-38.0081 696.161 82.5542)" fill="#CEE9FD"/>
<rect x="764.79" y="63.187" width="10" height="40" rx="5" transform="rotate(-38.0081 764.79 63.187)" fill="#CEE9FD"/>
<rect x="730.829" y="55.4602" width="10" height="40" rx="5" transform="rotate(-38.0081 730.829 55.4602)" fill="#CEE9FD"/>
<rect x="764.081" y="98.0081" width="10" height="40" rx="5" transform="rotate(-38.0081 764.081 98.0081)" fill="#CEE9FD"/>
<rect x="799.458" y="36.0933" width="10" height="40" rx="5" transform="rotate(-38.0081 799.458 36.0933)" fill="#CEE9FD"/>
<rect x="798.75" y="70.9141" width="10" height="40" rx="5" transform="rotate(-38.0081 798.75 70.9141)" fill="#CEE9FD"/>
<rect x="765.498" y="28.3662" width="10" height="40" rx="5" transform="rotate(-38.0081 765.498 28.3662)" fill="#CEE9FD"/>
<rect x="834.127" y="8.99902" width="10" height="40" rx="5" transform="rotate(-38.0081 834.127 8.99902)" fill="#CEE9FD"/>
<rect x="800.167" y="1.27222" width="10" height="40" rx="5" transform="rotate(-38.0081 800.167 1.27222)" fill="#CEE9FD"/>
<rect x="833.419" y="43.8201" width="10" height="40" rx="5" transform="rotate(-38.0081 833.419 43.8201)" fill="#CEE9FD"/>
<rect x="868.796" y="-18.0952" width="10" height="40" rx="5" transform="rotate(-38.0081 868.796 -18.0952)" fill="#CEE9FD"/>
<rect x="868.087" y="16.7258" width="10" height="40" rx="5" transform="rotate(-38.0081 868.087 16.7258)" fill="#CEE9FD"/>
<rect x="834.835" y="-25.822" width="10" height="40" rx="5" transform="rotate(-38.0081 834.835 -25.822)" fill="#CEE9FD"/>
<rect x="902.756" y="-10.3682" width="10" height="40" rx="5" transform="rotate(-38.0081 902.756 -10.3682)" fill="#CEE9FD"/>
<rect x="173.913" y="629.036" width="10" height="40" rx="5" transform="rotate(-38.0081 173.913 629.036)" fill="#CEE9FD"/>
<rect x="139.953" y="621.309" width="10" height="40" rx="5" transform="rotate(-38.0081 139.953 621.309)" fill="#CEE9FD"/>
<rect x="208.582" y="601.942" width="10" height="40" rx="5" transform="rotate(-38.0081 208.582 601.942)" fill="#CEE9FD"/>
<rect x="207.873" y="636.763" width="10" height="40" rx="5" transform="rotate(-38.0081 207.873 636.763)" fill="#CEE9FD"/>
<rect x="174.622" y="594.215" width="10" height="40" rx="5" transform="rotate(-38.0081 174.622 594.215)" fill="#CEE9FD"/>
<rect x="243.25" y="574.848" width="10" height="40" rx="5" transform="rotate(-38.0081 243.25 574.848)" fill="#CEE9FD"/>
<rect x="209.29" y="567.121" width="10" height="40" rx="5" transform="rotate(-38.0081 209.29 567.121)" fill="#CEE9FD"/>
<rect x="242.542" y="609.669" width="10" height="40" rx="5" transform="rotate(-38.0081 242.542 609.669)" fill="#CEE9FD"/>
<rect x="277.919" y="547.754" width="10" height="40" rx="5" transform="rotate(-38.0081 277.919 547.754)" fill="#CEE9FD"/>
<rect x="277.211" y="582.575" width="10" height="40" rx="5" transform="rotate(-38.0081 277.211 582.575)" fill="#CEE9FD"/>
<rect x="243.959" y="540.027" width="10" height="40" rx="5" transform="rotate(-38.0081 243.959 540.027)" fill="#CEE9FD"/>
<rect x="312.588" y="520.66" width="10" height="40" rx="5" transform="rotate(-38.0081 312.588 520.66)" fill="#CEE9FD"/>
<rect x="278.627" y="512.933" width="10" height="40" rx="5" transform="rotate(-38.0081 278.627 512.933)" fill="#CEE9FD"/>
<rect x="311.879" y="555.481" width="10" height="40" rx="5" transform="rotate(-38.0081 311.879 555.481)" fill="#CEE9FD"/>
<rect x="347.256" y="493.566" width="10" height="40" rx="5" transform="rotate(-38.0081 347.256 493.566)" fill="#CEE9FD"/>
<rect x="346.548" y="528.387" width="10" height="40" rx="5" transform="rotate(-38.0081 346.548 528.387)" fill="#CEE9FD"/>
<rect x="313.296" y="485.839" width="10" height="40" rx="5" transform="rotate(-38.0081 313.296 485.839)" fill="#CEE9FD"/>
<rect x="381.925" y="466.472" width="10" height="40" rx="5" transform="rotate(-38.0081 381.925 466.472)" fill="#CEE9FD"/>
<rect x="347.965" y="458.745" width="10" height="40" rx="5" transform="rotate(-38.0081 347.965 458.745)" fill="#CEE9FD"/>
<rect x="381.217" y="501.293" width="10" height="40" rx="5" transform="rotate(-38.0081 381.217 501.293)" fill="#CEE9FD"/>
<rect x="416.594" y="439.378" width="10" height="40" rx="5" transform="rotate(-38.0081 416.594 439.378)" fill="#CEE9FD"/>
<rect x="415.885" y="474.199" width="10" height="40" rx="5" transform="rotate(-38.0081 415.885 474.199)" fill="#CEE9FD"/>
<rect x="382.633" y="431.651" width="10" height="40" rx="5" transform="rotate(-38.0081 382.633 431.651)" fill="#CEE9FD"/>
<rect x="451.262" y="412.284" width="10" height="40" rx="5" transform="rotate(-38.0081 451.262 412.284)" fill="#CEE9FD"/>
<rect x="417.302" y="404.557" width="10" height="40" rx="5" transform="rotate(-38.0081 417.302 404.557)" fill="#CEE9FD"/>
<rect x="450.554" y="447.105" width="10" height="40" rx="5" transform="rotate(-38.0081 450.554 447.105)" fill="#CEE9FD"/>
<rect x="485.931" y="385.19" width="10" height="40" rx="5" transform="rotate(-38.0081 485.931 385.19)" fill="#CEE9FD"/>
<rect x="485.222" y="420.011" width="10" height="40" rx="5" transform="rotate(-38.0081 485.222 420.011)" fill="#CEE9FD"/>
<rect x="451.971" y="377.463" width="10" height="40" rx="5" transform="rotate(-38.0081 451.971 377.463)" fill="#CEE9FD"/>
<rect x="520.599" y="358.096" width="10" height="40" rx="5" transform="rotate(-38.0081 520.599 358.096)" fill="#CEE9FD"/>
<rect x="486.639" y="350.369" width="10" height="40" rx="5" transform="rotate(-38.0081 486.639 350.369)" fill="#CEE9FD"/>
<rect x="519.891" y="392.917" width="10" height="40" rx="5" transform="rotate(-38.0081 519.891 392.917)" fill="#CEE9FD"/>
<rect x="555.268" y="331.002" width="10" height="40" rx="5" transform="rotate(-38.0081 555.268 331.002)" fill="#CEE9FD"/>
<rect x="554.56" y="365.823" width="10" height="40" rx="5" transform="rotate(-38.0081 554.56 365.823)" fill="#CEE9FD"/>
<rect x="521.308" y="323.275" width="10" height="40" rx="5" transform="rotate(-38.0081 521.308 323.275)" fill="#CEE9FD"/>
<rect x="589.937" y="303.908" width="10" height="40" rx="5" transform="rotate(-38.0081 589.937 303.908)" fill="#CEE9FD"/>
<rect x="555.977" y="296.181" width="10" height="40" rx="5" transform="rotate(-38.0081 555.977 296.181)" fill="#CEE9FD"/>
<rect x="589.228" y="338.729" width="10" height="40" rx="5" transform="rotate(-38.0081 589.228 338.729)" fill="#CEE9FD"/>
<rect x="624.605" y="276.814" width="10" height="40" rx="5" transform="rotate(-38.0081 624.605 276.814)" fill="#CEE9FD"/>
<rect x="623.897" y="311.635" width="10" height="40" rx="5" transform="rotate(-38.0081 623.897 311.635)" fill="#CEE9FD"/>
<rect x="590.645" y="269.087" width="10" height="40" rx="5" transform="rotate(-38.0081 590.645 269.087)" fill="#CEE9FD"/>
<rect x="659.274" y="249.72" width="10" height="40" rx="5" transform="rotate(-38.0081 659.274 249.72)" fill="#CEE9FD"/>
<rect x="625.314" y="241.993" width="10" height="40" rx="5" transform="rotate(-38.0081 625.314 241.993)" fill="#CEE9FD"/>
<rect x="658.566" y="284.541" width="10" height="40" rx="5" transform="rotate(-38.0081 658.566 284.541)" fill="#CEE9FD"/>
<rect x="693.943" y="222.626" width="10" height="40" rx="5" transform="rotate(-38.0081 693.943 222.626)" fill="#CEE9FD"/>
<rect x="693.234" y="257.447" width="10" height="40" rx="5" transform="rotate(-38.0081 693.234 257.447)" fill="#CEE9FD"/>
<rect x="659.983" y="214.899" width="10" height="40" rx="5" transform="rotate(-38.0081 659.983 214.899)" fill="#CEE9FD"/>
<rect x="728.611" y="195.532" width="10" height="40" rx="5" transform="rotate(-38.0081 728.611 195.532)" fill="#CEE9FD"/>
<rect x="694.651" y="187.805" width="10" height="40" rx="5" transform="rotate(-38.0081 694.651 187.805)" fill="#CEE9FD"/>
<rect x="727.903" y="230.353" width="10" height="40" rx="5" transform="rotate(-38.0081 727.903 230.353)" fill="#CEE9FD"/>
<rect x="763.28" y="168.438" width="10" height="40" rx="5" transform="rotate(-38.0081 763.28 168.438)" fill="#CEE9FD"/>
<rect x="762.572" y="203.259" width="10" height="40" rx="5" transform="rotate(-38.0081 762.572 203.259)" fill="#CEE9FD"/>
<rect x="729.32" y="160.711" width="10" height="40" rx="5" transform="rotate(-38.0081 729.32 160.711)" fill="#CEE9FD"/>
<rect x="797.949" y="141.344" width="10" height="40" rx="5" transform="rotate(-38.0081 797.949 141.344)" fill="#CEE9FD"/>
<rect x="763.988" y="133.617" width="10" height="40" rx="5" transform="rotate(-38.0081 763.988 133.617)" fill="#CEE9FD"/>
<rect x="797.24" y="176.165" width="10" height="40" rx="5" transform="rotate(-38.0081 797.24 176.165)" fill="#CEE9FD"/>
<rect x="832.617" y="114.25" width="10" height="40" rx="5" transform="rotate(-38.0081 832.617 114.25)" fill="#CEE9FD"/>
<rect x="831.909" y="149.071" width="10" height="40" rx="5" transform="rotate(-38.0081 831.909 149.071)" fill="#CEE9FD"/>
<rect x="798.657" y="106.523" width="10" height="40" rx="5" transform="rotate(-38.0081 798.657 106.523)" fill="#CEE9FD"/>
<rect x="867.286" y="87.1558" width="10" height="40" rx="5" transform="rotate(-38.0081 867.286 87.1558)" fill="#CEE9FD"/>
<rect x="833.326" y="79.429" width="10" height="40" rx="5" transform="rotate(-38.0081 833.326 79.429)" fill="#CEE9FD"/>
<rect x="866.577" y="121.977" width="10" height="40" rx="5" transform="rotate(-38.0081 866.577 121.977)" fill="#CEE9FD"/>
<rect x="901.954" y="60.062" width="10" height="40" rx="5" transform="rotate(-38.0081 901.954 60.062)" fill="#CEE9FD"/>
<rect x="901.246" y="94.8828" width="10" height="40" rx="5" transform="rotate(-38.0081 901.246 94.8828)" fill="#CEE9FD"/>
<rect x="867.994" y="52.335" width="10" height="40" rx="5" transform="rotate(-38.0081 867.994 52.335)" fill="#CEE9FD"/>
<rect x="936.623" y="32.9678" width="10" height="40" rx="5" transform="rotate(-38.0081 936.623 32.9678)" fill="#CEE9FD"/>
<rect x="902.663" y="25.241" width="10" height="40" rx="5" transform="rotate(-38.0081 902.663 25.241)" fill="#CEE9FD"/>
<rect x="935.915" y="67.7888" width="10" height="40" rx="5" transform="rotate(-38.0081 935.915 67.7888)" fill="#CEE9FD"/>
<rect x="971.292" y="5.87402" width="10" height="40" rx="5" transform="rotate(-38.0081 971.292 5.87402)" fill="#CEE9FD"/>
<rect x="970.583" y="40.6948" width="10" height="40" rx="5" transform="rotate(-38.0081 970.583 40.6948)" fill="#CEE9FD"/>
<rect x="937.332" y="-1.85303" width="10" height="40" rx="5" transform="rotate(-38.0081 937.332 -1.85303)" fill="#CEE9FD"/>
<rect x="1005.96" y="-21.2202" width="10" height="40" rx="5" transform="rotate(-38.0081 1005.96 -21.2202)" fill="#CEE9FD"/>
<rect x="972" y="-28.947" width="10" height="40" rx="5" transform="rotate(-38.0081 972 -28.947)" fill="#CEE9FD"/>
<rect x="1005.25" y="13.6008" width="10" height="40" rx="5" transform="rotate(-38.0081 1005.25 13.6008)" fill="#CEE9FD"/>
<rect x="1039.92" y="-13.4932" width="10" height="40" rx="5" transform="rotate(-38.0081 1039.92 -13.4932)" fill="#CEE9FD"/>
<rect x="242.449" y="645.278" width="10" height="40" rx="5" transform="rotate(-38.0081 242.449 645.278)" fill="#CEE9FD"/>
<rect x="311.078" y="625.911" width="10" height="40" rx="5" transform="rotate(-38.0081 311.078 625.911)" fill="#CEE9FD"/>
<rect x="277.118" y="618.184" width="10" height="40" rx="5" transform="rotate(-38.0081 277.118 618.184)" fill="#CEE9FD"/>
<rect x="345.747" y="598.817" width="10" height="40" rx="5" transform="rotate(-38.0081 345.747 598.817)" fill="#CEE9FD"/>
<rect x="345.038" y="633.638" width="10" height="40" rx="5" transform="rotate(-38.0081 345.038 633.638)" fill="#CEE9FD"/>
<rect x="311.787" y="591.09" width="10" height="40" rx="5" transform="rotate(-38.0081 311.787 591.09)" fill="#CEE9FD"/>
<rect x="380.415" y="571.723" width="10" height="40" rx="5" transform="rotate(-38.0081 380.415 571.723)" fill="#CEE9FD"/>
<rect x="346.455" y="563.996" width="10" height="40" rx="5" transform="rotate(-38.0081 346.455 563.996)" fill="#CEE9FD"/>
<rect x="379.707" y="606.544" width="10" height="40" rx="5" transform="rotate(-38.0081 379.707 606.544)" fill="#CEE9FD"/>
<rect x="415.084" y="544.629" width="10" height="40" rx="5" transform="rotate(-38.0081 415.084 544.629)" fill="#CEE9FD"/>
<rect x="414.376" y="579.45" width="10" height="40" rx="5" transform="rotate(-38.0081 414.376 579.45)" fill="#CEE9FD"/>
<rect x="381.124" y="536.902" width="10" height="40" rx="5" transform="rotate(-38.0081 381.124 536.902)" fill="#CEE9FD"/>
<rect x="449.753" y="517.535" width="10" height="40" rx="5" transform="rotate(-38.0081 449.753 517.535)" fill="#CEE9FD"/>
<rect x="415.792" y="509.808" width="10" height="40" rx="5" transform="rotate(-38.0081 415.792 509.808)" fill="#CEE9FD"/>
<rect x="449.044" y="552.356" width="10" height="40" rx="5" transform="rotate(-38.0081 449.044 552.356)" fill="#CEE9FD"/>
<rect x="484.421" y="490.441" width="10" height="40" rx="5" transform="rotate(-38.0081 484.421 490.441)" fill="#CEE9FD"/>
<rect x="483.713" y="525.262" width="10" height="40" rx="5" transform="rotate(-38.0081 483.713 525.262)" fill="#CEE9FD"/>
<rect x="450.461" y="482.714" width="10" height="40" rx="5" transform="rotate(-38.0081 450.461 482.714)" fill="#CEE9FD"/>
<rect x="519.09" y="463.347" width="10" height="40" rx="5" transform="rotate(-38.0081 519.09 463.347)" fill="#CEE9FD"/>
<rect x="485.13" y="455.62" width="10" height="40" rx="5" transform="rotate(-38.0081 485.13 455.62)" fill="#CEE9FD"/>
<rect x="518.382" y="498.168" width="10" height="40" rx="5" transform="rotate(-38.0081 518.382 498.168)" fill="#CEE9FD"/>
<rect x="553.759" y="436.252" width="10" height="40" rx="5" transform="rotate(-38.0081 553.759 436.252)" fill="#CEE9FD"/>
<rect x="553.05" y="471.073" width="10" height="40" rx="5" transform="rotate(-38.0081 553.05 471.073)" fill="#CEE9FD"/>
<rect x="519.798" y="428.526" width="10" height="40" rx="5" transform="rotate(-38.0081 519.798 428.526)" fill="#CEE9FD"/>
<rect x="588.427" y="409.158" width="10" height="40" rx="5" transform="rotate(-38.0081 588.427 409.158)" fill="#CEE9FD"/>
<rect x="554.467" y="401.432" width="10" height="40" rx="5" transform="rotate(-38.0081 554.467 401.432)" fill="#CEE9FD"/>
<rect x="587.719" y="443.979" width="10" height="40" rx="5" transform="rotate(-38.0081 587.719 443.979)" fill="#CEE9FD"/>
<rect x="623.096" y="382.064" width="10" height="40" rx="5" transform="rotate(-38.0081 623.096 382.064)" fill="#CEE9FD"/>
<rect x="622.387" y="416.885" width="10" height="40" rx="5" transform="rotate(-38.0081 622.387 416.885)" fill="#CEE9FD"/>
<rect x="589.136" y="374.338" width="10" height="40" rx="5" transform="rotate(-38.0081 589.136 374.338)" fill="#CEE9FD"/>
<rect x="657.764" y="354.97" width="10" height="40" rx="5" transform="rotate(-38.0081 657.764 354.97)" fill="#CEE9FD"/>
<rect x="623.804" y="347.244" width="10" height="40" rx="5" transform="rotate(-38.0081 623.804 347.244)" fill="#CEE9FD"/>
<rect x="657.056" y="389.792" width="10" height="40" rx="5" transform="rotate(-38.0081 657.056 389.792)" fill="#CEE9FD"/>
<rect x="692.433" y="327.876" width="10" height="40" rx="5" transform="rotate(-38.0081 692.433 327.876)" fill="#CEE9FD"/>
<rect x="691.725" y="362.698" width="10" height="40" rx="5" transform="rotate(-38.0081 691.725 362.698)" fill="#CEE9FD"/>
<rect x="658.473" y="320.15" width="10" height="40" rx="5" transform="rotate(-38.0081 658.473 320.15)" fill="#CEE9FD"/>
<rect x="727.102" y="300.782" width="10" height="40" rx="5" transform="rotate(-38.0081 727.102 300.782)" fill="#CEE9FD"/>
<rect x="693.141" y="293.056" width="10" height="40" rx="5" transform="rotate(-38.0081 693.141 293.056)" fill="#CEE9FD"/>
<rect x="726.393" y="335.604" width="10" height="40" rx="5" transform="rotate(-38.0081 726.393 335.604)" fill="#CEE9FD"/>
<rect x="761.77" y="273.688" width="10" height="40" rx="5" transform="rotate(-38.0081 761.77 273.688)" fill="#CEE9FD"/>
<rect x="761.062" y="308.51" width="10" height="40" rx="5" transform="rotate(-38.0081 761.062 308.51)" fill="#CEE9FD"/>
<rect x="727.81" y="265.962" width="10" height="40" rx="5" transform="rotate(-38.0081 727.81 265.962)" fill="#CEE9FD"/>
<rect x="796.439" y="246.594" width="10" height="40" rx="5" transform="rotate(-38.0081 796.439 246.594)" fill="#CEE9FD"/>
<rect x="762.479" y="238.868" width="10" height="40" rx="5" transform="rotate(-38.0081 762.479 238.868)" fill="#CEE9FD"/>
<rect x="795.731" y="281.416" width="10" height="40" rx="5" transform="rotate(-38.0081 795.731 281.416)" fill="#CEE9FD"/>
<rect x="831.108" y="219.5" width="10" height="40" rx="5" transform="rotate(-38.0081 831.108 219.5)" fill="#CEE9FD"/>
<rect x="830.399" y="254.322" width="10" height="40" rx="5" transform="rotate(-38.0081 830.399 254.322)" fill="#CEE9FD"/>
<rect x="797.147" y="211.774" width="10" height="40" rx="5" transform="rotate(-38.0081 797.147 211.774)" fill="#CEE9FD"/>
<rect x="865.776" y="192.406" width="10" height="40" rx="5" transform="rotate(-38.0081 865.776 192.406)" fill="#CEE9FD"/>
<rect x="831.816" y="184.68" width="10" height="40" rx="5" transform="rotate(-38.0081 831.816 184.68)" fill="#CEE9FD"/>
<rect x="865.068" y="227.228" width="10" height="40" rx="5" transform="rotate(-38.0081 865.068 227.228)" fill="#CEE9FD"/>
<rect x="900.445" y="165.312" width="10" height="40" rx="5" transform="rotate(-38.0081 900.445 165.312)" fill="#CEE9FD"/>
<rect x="899.736" y="200.134" width="10" height="40" rx="5" transform="rotate(-38.0081 899.736 200.134)" fill="#CEE9FD"/>
<rect x="866.485" y="157.586" width="10" height="40" rx="5" transform="rotate(-38.0081 866.485 157.586)" fill="#CEE9FD"/>
<rect x="935.114" y="138.219" width="10" height="40" rx="5" transform="rotate(-38.0081 935.114 138.219)" fill="#CEE9FD"/>
<rect x="901.153" y="130.492" width="10" height="40" rx="5" transform="rotate(-38.0081 901.153 130.492)" fill="#CEE9FD"/>
<rect x="934.405" y="173.04" width="10" height="40" rx="5" transform="rotate(-38.0081 934.405 173.04)" fill="#CEE9FD"/>
<rect x="969.782" y="111.125" width="10" height="40" rx="5" transform="rotate(-38.0081 969.782 111.125)" fill="#CEE9FD"/>
<rect x="969.074" y="145.945" width="10" height="40" rx="5" transform="rotate(-38.0081 969.074 145.945)" fill="#CEE9FD"/>
<rect x="935.822" y="103.397" width="10" height="40" rx="5" transform="rotate(-38.0081 935.822 103.397)" fill="#CEE9FD"/>
<rect x="1004.45" y="84.0303" width="10" height="40" rx="5" transform="rotate(-38.0081 1004.45 84.0303)" fill="#CEE9FD"/>
<rect x="970.491" y="76.3035" width="10" height="40" rx="5" transform="rotate(-38.0081 970.491 76.3035)" fill="#CEE9FD"/>
<rect x="1003.74" y="118.851" width="10" height="40" rx="5" transform="rotate(-38.0081 1003.74 118.851)" fill="#CEE9FD"/>
<rect x="1039.12" y="56.9365" width="10" height="40" rx="5" transform="rotate(-38.0081 1039.12 56.9365)" fill="#CEE9FD"/>
<rect x="1038.41" y="91.7573" width="10" height="40" rx="5" transform="rotate(-38.0081 1038.41 91.7573)" fill="#CEE9FD"/>
<rect x="1005.16" y="49.2095" width="10" height="40" rx="5" transform="rotate(-38.0081 1005.16 49.2095)" fill="#CEE9FD"/>
<rect x="1073.79" y="29.8423" width="10" height="40" rx="5" transform="rotate(-38.0081 1073.79 29.8423)" fill="#CEE9FD"/>
<rect x="1039.83" y="22.1155" width="10" height="40" rx="5" transform="rotate(-38.0081 1039.83 22.1155)" fill="#CEE9FD"/>
<rect x="1073.08" y="64.6633" width="10" height="40" rx="5" transform="rotate(-38.0081 1073.08 64.6633)" fill="#CEE9FD"/>
<rect x="1108.46" y="2.74854" width="10" height="40" rx="5" transform="rotate(-38.0081 1108.46 2.74854)" fill="#CEE9FD"/>
<rect x="1107.75" y="37.5693" width="10" height="40" rx="5" transform="rotate(-38.0081 1107.75 37.5693)" fill="#CEE9FD"/>
<rect x="1074.5" y="-4.97852" width="10" height="40" rx="5" transform="rotate(-38.0081 1074.5 -4.97852)" fill="#CEE9FD"/>
<rect x="1143.13" y="-24.3457" width="10" height="40" rx="5" transform="rotate(-38.0081 1143.13 -24.3457)" fill="#CEE9FD"/>
<rect x="1142.42" y="10.4753" width="10" height="40" rx="5" transform="rotate(-38.0081 1142.42 10.4753)" fill="#CEE9FD"/>
<rect x="1177.09" y="-16.6187" width="10" height="40" rx="5" transform="rotate(-38.0081 1177.09 -16.6187)" fill="#CEE9FD"/>
<rect x="379.614" y="642.153" width="10" height="40" rx="5" transform="rotate(-38.0081 379.614 642.153)" fill="#CEE9FD"/>
<rect x="448.243" y="622.786" width="10" height="40" rx="5" transform="rotate(-38.0081 448.243 622.786)" fill="#CEE9FD"/>
<rect x="414.283" y="615.059" width="10" height="40" rx="5" transform="rotate(-38.0081 414.283 615.059)" fill="#CEE9FD"/>
<rect x="482.912" y="595.691" width="10" height="40" rx="5" transform="rotate(-38.0081 482.912 595.691)" fill="#CEE9FD"/>
<rect x="448.952" y="587.965" width="10" height="40" rx="5" transform="rotate(-38.0081 448.952 587.965)" fill="#CEE9FD"/>
<rect x="482.203" y="630.512" width="10" height="40" rx="5" transform="rotate(-38.0081 482.203 630.512)" fill="#CEE9FD"/>
<rect x="517.58" y="568.598" width="10" height="40" rx="5" transform="rotate(-38.0081 517.58 568.598)" fill="#CEE9FD"/>
<rect x="516.872" y="603.418" width="10" height="40" rx="5" transform="rotate(-38.0081 516.872 603.418)" fill="#CEE9FD"/>
<rect x="483.62" y="560.871" width="10" height="40" rx="5" transform="rotate(-38.0081 483.62 560.871)" fill="#CEE9FD"/>
<rect x="552.249" y="541.503" width="10" height="40" rx="5" transform="rotate(-38.0081 552.249 541.503)" fill="#CEE9FD"/>
<rect x="518.289" y="533.777" width="10" height="40" rx="5" transform="rotate(-38.0081 518.289 533.777)" fill="#CEE9FD"/>
<rect x="551.541" y="576.324" width="10" height="40" rx="5" transform="rotate(-38.0081 551.541 576.324)" fill="#CEE9FD"/>
<rect x="586.918" y="514.41" width="10" height="40" rx="5" transform="rotate(-38.0081 586.918 514.41)" fill="#CEE9FD"/>
<rect x="586.209" y="549.23" width="10" height="40" rx="5" transform="rotate(-38.0081 586.209 549.23)" fill="#CEE9FD"/>
<rect x="552.958" y="506.683" width="10" height="40" rx="5" transform="rotate(-38.0081 552.958 506.683)" fill="#CEE9FD"/>
<rect x="621.586" y="487.315" width="10" height="40" rx="5" transform="rotate(-38.0081 621.586 487.315)" fill="#CEE9FD"/>
<rect x="587.626" y="479.589" width="10" height="40" rx="5" transform="rotate(-38.0081 587.626 479.589)" fill="#CEE9FD"/>
<rect x="620.878" y="522.136" width="10" height="40" rx="5" transform="rotate(-38.0081 620.878 522.136)" fill="#CEE9FD"/>
<rect x="656.255" y="460.222" width="10" height="40" rx="5" transform="rotate(-38.0081 656.255 460.222)" fill="#CEE9FD"/>
<rect x="655.547" y="495.042" width="10" height="40" rx="5" transform="rotate(-38.0081 655.547 495.042)" fill="#CEE9FD"/>
<rect x="622.295" y="452.495" width="10" height="40" rx="5" transform="rotate(-38.0081 622.295 452.495)" fill="#CEE9FD"/>
<rect x="690.924" y="433.127" width="10" height="40" rx="5" transform="rotate(-38.0081 690.924 433.127)" fill="#CEE9FD"/>
<rect x="656.963" y="425.401" width="10" height="40" rx="5" transform="rotate(-38.0081 656.963 425.401)" fill="#CEE9FD"/>
<rect x="690.215" y="467.948" width="10" height="40" rx="5" transform="rotate(-38.0081 690.215 467.948)" fill="#CEE9FD"/>
<rect x="725.592" y="406.034" width="10" height="40" rx="5" transform="rotate(-38.0081 725.592 406.034)" fill="#CEE9FD"/>
<rect x="724.884" y="440.854" width="10" height="40" rx="5" transform="rotate(-38.0081 724.884 440.854)" fill="#CEE9FD"/>
<rect x="691.632" y="398.307" width="10" height="40" rx="5" transform="rotate(-38.0081 691.632 398.307)" fill="#CEE9FD"/>
<rect x="760.261" y="378.939" width="10" height="40" rx="5" transform="rotate(-38.0081 760.261 378.939)" fill="#CEE9FD"/>
<rect x="726.301" y="371.213" width="10" height="40" rx="5" transform="rotate(-38.0081 726.301 371.213)" fill="#CEE9FD"/>
<rect x="759.552" y="413.76" width="10" height="40" rx="5" transform="rotate(-38.0081 759.552 413.76)" fill="#CEE9FD"/>
<rect x="794.93" y="351.845" width="10" height="40" rx="5" transform="rotate(-38.0081 794.93 351.845)" fill="#CEE9FD"/>
<rect x="794.221" y="386.666" width="10" height="40" rx="5" transform="rotate(-38.0081 794.221 386.666)" fill="#CEE9FD"/>
<rect x="760.969" y="344.118" width="10" height="40" rx="5" transform="rotate(-38.0081 760.969 344.118)" fill="#CEE9FD"/>
<rect x="829.598" y="324.751" width="10" height="40" rx="5" transform="rotate(-38.0081 829.598 324.751)" fill="#CEE9FD"/>
<rect x="795.638" y="317.024" width="10" height="40" rx="5" transform="rotate(-38.0081 795.638 317.024)" fill="#CEE9FD"/>
<rect x="828.89" y="359.572" width="10" height="40" rx="5" transform="rotate(-38.0081 828.89 359.572)" fill="#CEE9FD"/>
<rect x="864.267" y="297.657" width="10" height="40" rx="5" transform="rotate(-38.0081 864.267 297.657)" fill="#CEE9FD"/>
<rect x="863.558" y="332.478" width="10" height="40" rx="5" transform="rotate(-38.0081 863.558 332.478)" fill="#CEE9FD"/>
<rect x="830.307" y="289.93" width="10" height="40" rx="5" transform="rotate(-38.0081 830.307 289.93)" fill="#CEE9FD"/>
<rect x="898.935" y="270.563" width="10" height="40" rx="5" transform="rotate(-38.0081 898.935 270.563)" fill="#CEE9FD"/>
<rect x="864.975" y="262.836" width="10" height="40" rx="5" transform="rotate(-38.0081 864.975 262.836)" fill="#CEE9FD"/>
<rect x="898.227" y="305.384" width="10" height="40" rx="5" transform="rotate(-38.0081 898.227 305.384)" fill="#CEE9FD"/>
<rect x="933.604" y="243.469" width="10" height="40" rx="5" transform="rotate(-38.0081 933.604 243.469)" fill="#CEE9FD"/>
<rect x="932.896" y="278.29" width="10" height="40" rx="5" transform="rotate(-38.0081 932.896 278.29)" fill="#CEE9FD"/>
<rect x="899.644" y="235.742" width="10" height="40" rx="5" transform="rotate(-38.0081 899.644 235.742)" fill="#CEE9FD"/>
<rect x="968.273" y="216.375" width="10" height="40" rx="5" transform="rotate(-38.0081 968.273 216.375)" fill="#CEE9FD"/>
<rect x="934.312" y="208.648" width="10" height="40" rx="5" transform="rotate(-38.0081 934.312 208.648)" fill="#CEE9FD"/>
<rect x="967.564" y="251.196" width="10" height="40" rx="5" transform="rotate(-38.0081 967.564 251.196)" fill="#CEE9FD"/>
<rect x="1002.94" y="189.281" width="10" height="40" rx="5" transform="rotate(-38.0081 1002.94 189.281)" fill="#CEE9FD"/>
<rect x="1002.23" y="224.102" width="10" height="40" rx="5" transform="rotate(-38.0081 1002.23 224.102)" fill="#CEE9FD"/>
<rect x="968.981" y="181.554" width="10" height="40" rx="5" transform="rotate(-38.0081 968.981 181.554)" fill="#CEE9FD"/>
<rect x="1037.61" y="162.187" width="10" height="40" rx="5" transform="rotate(-38.0081 1037.61 162.187)" fill="#CEE9FD"/>
<rect x="1003.65" y="154.46" width="10" height="40" rx="5" transform="rotate(-38.0081 1003.65 154.46)" fill="#CEE9FD"/>
<rect x="1036.9" y="197.008" width="10" height="40" rx="5" transform="rotate(-38.0081 1036.9 197.008)" fill="#CEE9FD"/>
<rect x="1072.28" y="135.093" width="10" height="40" rx="5" transform="rotate(-38.0081 1072.28 135.093)" fill="#CEE9FD"/>
<rect x="1071.57" y="169.914" width="10" height="40" rx="5" transform="rotate(-38.0081 1071.57 169.914)" fill="#CEE9FD"/>
<rect x="1038.32" y="127.366" width="10" height="40" rx="5" transform="rotate(-38.0081 1038.32 127.366)" fill="#CEE9FD"/>
<rect x="1106.95" y="107.999" width="10" height="40" rx="5" transform="rotate(-38.0081 1106.95 107.999)" fill="#CEE9FD"/>
<rect x="1072.99" y="100.272" width="10" height="40" rx="5" transform="rotate(-38.0081 1072.99 100.272)" fill="#CEE9FD"/>
<rect x="1106.24" y="142.82" width="10" height="40" rx="5" transform="rotate(-38.0081 1106.24 142.82)" fill="#CEE9FD"/>
<rect x="1141.62" y="80.9053" width="10" height="40" rx="5" transform="rotate(-38.0081 1141.62 80.9053)" fill="#CEE9FD"/>
<rect x="1140.91" y="115.726" width="10" height="40" rx="5" transform="rotate(-38.0081 1140.91 115.726)" fill="#CEE9FD"/>
<rect x="1107.66" y="73.1785" width="10" height="40" rx="5" transform="rotate(-38.0081 1107.66 73.1785)" fill="#CEE9FD"/>
<rect x="1176.28" y="53.8113" width="10" height="40" rx="5" transform="rotate(-38.0081 1176.28 53.8113)" fill="#CEE9FD"/>
<rect x="1142.32" y="46.0845" width="10" height="40" rx="5" transform="rotate(-38.0081 1142.32 46.0845)" fill="#CEE9FD"/>
<rect x="1175.58" y="88.6323" width="10" height="40" rx="5" transform="rotate(-38.0081 1175.58 88.6323)" fill="#CEE9FD"/>
<rect x="1210.95" y="26.7173" width="10" height="40" rx="5" transform="rotate(-38.0081 1210.95 26.7173)" fill="#CEE9FD"/>
<rect x="1210.24" y="61.5381" width="10" height="40" rx="5" transform="rotate(-38.0081 1210.24 61.5381)" fill="#CEE9FD"/>
<rect x="1176.99" y="18.9902" width="10" height="40" rx="5" transform="rotate(-38.0081 1176.99 18.9902)" fill="#CEE9FD"/>
<rect x="1245.62" y="-0.376953" width="10" height="40" rx="5" transform="rotate(-38.0081 1245.62 -0.376953)" fill="#CEE9FD"/>
<rect x="1211.66" y="-8.10376" width="10" height="40" rx="5" transform="rotate(-38.0081 1211.66 -8.10376)" fill="#CEE9FD"/>
<rect x="1244.91" y="34.4441" width="10" height="40" rx="5" transform="rotate(-38.0081 1244.91 34.4441)" fill="#CEE9FD"/>
<rect x="516.779" y="639.027" width="10" height="40" rx="5" transform="rotate(-38.0081 516.779 639.027)" fill="#CEE9FD"/>
<rect x="585.408" y="619.66" width="10" height="40" rx="5" transform="rotate(-38.0081 585.408 619.66)" fill="#CEE9FD"/>
<rect x="551.448" y="611.933" width="10" height="40" rx="5" transform="rotate(-38.0081 551.448 611.933)" fill="#CEE9FD"/>
<rect x="620.077" y="592.566" width="10" height="40" rx="5" transform="rotate(-38.0081 620.077 592.566)" fill="#CEE9FD"/>
<rect x="586.117" y="584.839" width="10" height="40" rx="5" transform="rotate(-38.0081 586.117 584.839)" fill="#CEE9FD"/>
<rect x="619.368" y="627.387" width="10" height="40" rx="5" transform="rotate(-38.0081 619.368 627.387)" fill="#CEE9FD"/>
<rect x="654.745" y="565.472" width="10" height="40" rx="5" transform="rotate(-38.0081 654.745 565.472)" fill="#CEE9FD"/>
<rect x="654.037" y="600.293" width="10" height="40" rx="5" transform="rotate(-38.0081 654.037 600.293)" fill="#CEE9FD"/>
<rect x="620.785" y="557.745" width="10" height="40" rx="5" transform="rotate(-38.0081 620.785 557.745)" fill="#CEE9FD"/>
<rect x="689.414" y="538.378" width="10" height="40" rx="5" transform="rotate(-38.0081 689.414 538.378)" fill="#CEE9FD"/>
<rect x="655.454" y="530.651" width="10" height="40" rx="5" transform="rotate(-38.0081 655.454 530.651)" fill="#CEE9FD"/>
<rect x="688.706" y="573.199" width="10" height="40" rx="5" transform="rotate(-38.0081 688.706 573.199)" fill="#CEE9FD"/>
<rect x="724.083" y="511.284" width="10" height="40" rx="5" transform="rotate(-38.0081 724.083 511.284)" fill="#CEE9FD"/>
<rect x="723.374" y="546.105" width="10" height="40" rx="5" transform="rotate(-38.0081 723.374 546.105)" fill="#CEE9FD"/>
<rect x="690.122" y="503.557" width="10" height="40" rx="5" transform="rotate(-38.0081 690.122 503.557)" fill="#CEE9FD"/>
<rect x="758.751" y="484.19" width="10" height="40" rx="5" transform="rotate(-38.0081 758.751 484.19)" fill="#CEE9FD"/>
<rect x="724.791" y="476.463" width="10" height="40" rx="5" transform="rotate(-38.0081 724.791 476.463)" fill="#CEE9FD"/>
<rect x="758.043" y="519.011" width="10" height="40" rx="5" transform="rotate(-38.0081 758.043 519.011)" fill="#CEE9FD"/>
<rect x="793.42" y="457.096" width="10" height="40" rx="5" transform="rotate(-38.0081 793.42 457.096)" fill="#CEE9FD"/>
<rect x="792.711" y="491.917" width="10" height="40" rx="5" transform="rotate(-38.0081 792.711 491.917)" fill="#CEE9FD"/>
<rect x="759.46" y="449.369" width="10" height="40" rx="5" transform="rotate(-38.0081 759.46 449.369)" fill="#CEE9FD"/>
<rect x="828.089" y="430.002" width="10" height="40" rx="5" transform="rotate(-38.0081 828.089 430.002)" fill="#CEE9FD"/>
<rect x="794.128" y="422.275" width="10" height="40" rx="5" transform="rotate(-38.0081 794.128 422.275)" fill="#CEE9FD"/>
<rect x="827.38" y="464.823" width="10" height="40" rx="5" transform="rotate(-38.0081 827.38 464.823)" fill="#CEE9FD"/>
<rect x="862.757" y="402.908" width="10" height="40" rx="5" transform="rotate(-38.0081 862.757 402.908)" fill="#CEE9FD"/>
<rect x="862.049" y="437.729" width="10" height="40" rx="5" transform="rotate(-38.0081 862.049 437.729)" fill="#CEE9FD"/>
<rect x="828.797" y="395.181" width="10" height="40" rx="5" transform="rotate(-38.0081 828.797 395.181)" fill="#CEE9FD"/>
<rect x="897.426" y="375.814" width="10" height="40" rx="5" transform="rotate(-38.0081 897.426 375.814)" fill="#CEE9FD"/>
<rect x="863.466" y="368.087" width="10" height="40" rx="5" transform="rotate(-38.0081 863.466 368.087)" fill="#CEE9FD"/>
<rect x="896.717" y="410.635" width="10" height="40" rx="5" transform="rotate(-38.0081 896.717 410.635)" fill="#CEE9FD"/>
<rect x="932.094" y="348.72" width="10" height="40" rx="5" transform="rotate(-38.0081 932.094 348.72)" fill="#CEE9FD"/>
<rect x="931.386" y="383.541" width="10" height="40" rx="5" transform="rotate(-38.0081 931.386 383.541)" fill="#CEE9FD"/>
<rect x="898.134" y="340.993" width="10" height="40" rx="5" transform="rotate(-38.0081 898.134 340.993)" fill="#CEE9FD"/>
<rect x="966.763" y="321.626" width="10" height="40" rx="5" transform="rotate(-38.0081 966.763 321.626)" fill="#CEE9FD"/>
<rect x="932.803" y="313.899" width="10" height="40" rx="5" transform="rotate(-38.0081 932.803 313.899)" fill="#CEE9FD"/>
<rect x="966.055" y="356.447" width="10" height="40" rx="5" transform="rotate(-38.0081 966.055 356.447)" fill="#CEE9FD"/>
<rect x="1001.43" y="294.532" width="10" height="40" rx="5" transform="rotate(-38.0081 1001.43 294.532)" fill="#CEE9FD"/>
<rect x="1000.72" y="329.353" width="10" height="40" rx="5" transform="rotate(-38.0081 1000.72 329.353)" fill="#CEE9FD"/>
<rect x="967.472" y="286.805" width="10" height="40" rx="5" transform="rotate(-38.0081 967.472 286.805)" fill="#CEE9FD"/>
<rect x="1036.1" y="267.438" width="10" height="40" rx="5" transform="rotate(-38.0081 1036.1 267.438)" fill="#CEE9FD"/>
<rect x="1002.14" y="259.711" width="10" height="40" rx="5" transform="rotate(-38.0081 1002.14 259.711)" fill="#CEE9FD"/>
<rect x="1035.39" y="302.259" width="10" height="40" rx="5" transform="rotate(-38.0081 1035.39 302.259)" fill="#CEE9FD"/>
<rect x="1070.77" y="240.344" width="10" height="40" rx="5" transform="rotate(-38.0081 1070.77 240.344)" fill="#CEE9FD"/>
<rect x="1070.06" y="275.165" width="10" height="40" rx="5" transform="rotate(-38.0081 1070.06 275.165)" fill="#CEE9FD"/>
<rect x="1036.81" y="232.617" width="10" height="40" rx="5" transform="rotate(-38.0081 1036.81 232.617)" fill="#CEE9FD"/>
<rect x="1105.44" y="213.25" width="10" height="40" rx="5" transform="rotate(-38.0081 1105.44 213.25)" fill="#CEE9FD"/>
<rect x="1071.48" y="205.523" width="10" height="40" rx="5" transform="rotate(-38.0081 1071.48 205.523)" fill="#CEE9FD"/>
<rect x="1104.73" y="248.071" width="10" height="40" rx="5" transform="rotate(-38.0081 1104.73 248.071)" fill="#CEE9FD"/>
<rect x="1140.11" y="186.156" width="10" height="40" rx="5" transform="rotate(-38.0081 1140.11 186.156)" fill="#CEE9FD"/>
<rect x="1139.4" y="220.977" width="10" height="40" rx="5" transform="rotate(-38.0081 1139.4 220.977)" fill="#CEE9FD"/>
<rect x="1106.15" y="178.429" width="10" height="40" rx="5" transform="rotate(-38.0081 1106.15 178.429)" fill="#CEE9FD"/>
<rect x="1174.77" y="159.062" width="10" height="40" rx="5" transform="rotate(-38.0081 1174.77 159.062)" fill="#CEE9FD"/>
<rect x="1140.81" y="151.335" width="10" height="40" rx="5" transform="rotate(-38.0081 1140.81 151.335)" fill="#CEE9FD"/>
<rect x="1174.07" y="193.883" width="10" height="40" rx="5" transform="rotate(-38.0081 1174.07 193.883)" fill="#CEE9FD"/>
<rect x="1209.44" y="131.968" width="10" height="40" rx="5" transform="rotate(-38.0081 1209.44 131.968)" fill="#CEE9FD"/>
<rect x="1208.74" y="166.789" width="10" height="40" rx="5" transform="rotate(-38.0081 1208.74 166.789)" fill="#CEE9FD"/>
<rect x="1175.48" y="124.241" width="10" height="40" rx="5" transform="rotate(-38.0081 1175.48 124.241)" fill="#CEE9FD"/>
<rect x="1244.11" y="104.874" width="10" height="40" rx="5" transform="rotate(-38.0081 1244.11 104.874)" fill="#CEE9FD"/>
<rect x="1210.15" y="97.147" width="10" height="40" rx="5" transform="rotate(-38.0081 1210.15 97.147)" fill="#CEE9FD"/>
<rect x="1243.4" y="139.695" width="10" height="40" rx="5" transform="rotate(-38.0081 1243.4 139.695)" fill="#CEE9FD"/>
<rect x="1278.78" y="77.7798" width="10" height="40" rx="5" transform="rotate(-38.0081 1278.78 77.7798)" fill="#CEE9FD"/>
<rect x="1278.07" y="112.601" width="10" height="40" rx="5" transform="rotate(-38.0081 1278.07 112.601)" fill="#CEE9FD"/>
<rect x="1244.82" y="70.053" width="10" height="40" rx="5" transform="rotate(-38.0081 1244.82 70.053)" fill="#CEE9FD"/>
<rect x="1279.49" y="42.959" width="10" height="40" rx="5" transform="rotate(-38.0081 1279.49 42.959)" fill="#CEE9FD"/>
<rect x="687.905" y="643.629" width="10" height="40" rx="5" transform="rotate(-38.0081 687.905 643.629)" fill="#CEE9FD"/>
<rect x="653.944" y="635.902" width="10" height="40" rx="5" transform="rotate(-38.0081 653.944 635.902)" fill="#CEE9FD"/>
<rect x="722.573" y="616.535" width="10" height="40" rx="5" transform="rotate(-38.0081 722.573 616.535)" fill="#CEE9FD"/>
<rect x="688.613" y="608.808" width="10" height="40" rx="5" transform="rotate(-38.0081 688.613 608.808)" fill="#CEE9FD"/>
<rect x="757.242" y="589.441" width="10" height="40" rx="5" transform="rotate(-38.0081 757.242 589.441)" fill="#CEE9FD"/>
<rect x="756.533" y="624.262" width="10" height="40" rx="5" transform="rotate(-38.0081 756.533 624.262)" fill="#CEE9FD"/>
<rect x="723.282" y="581.714" width="10" height="40" rx="5" transform="rotate(-38.0081 723.282 581.714)" fill="#CEE9FD"/>
<rect x="791.91" y="562.347" width="10" height="40" rx="5" transform="rotate(-38.0081 791.91 562.347)" fill="#CEE9FD"/>
<rect x="757.95" y="554.62" width="10" height="40" rx="5" transform="rotate(-38.0081 757.95 554.62)" fill="#CEE9FD"/>
<rect x="791.202" y="597.168" width="10" height="40" rx="5" transform="rotate(-38.0081 791.202 597.168)" fill="#CEE9FD"/>
<rect x="826.579" y="535.253" width="10" height="40" rx="5" transform="rotate(-38.0081 826.579 535.253)" fill="#CEE9FD"/>
<rect x="825.871" y="570.074" width="10" height="40" rx="5" transform="rotate(-38.0081 825.871 570.074)" fill="#CEE9FD"/>
<rect x="792.619" y="527.526" width="10" height="40" rx="5" transform="rotate(-38.0081 792.619 527.526)" fill="#CEE9FD"/>
<rect x="861.248" y="508.159" width="10" height="40" rx="5" transform="rotate(-38.0081 861.248 508.159)" fill="#CEE9FD"/>
<rect x="827.287" y="500.432" width="10" height="40" rx="5" transform="rotate(-38.0081 827.287 500.432)" fill="#CEE9FD"/>
<rect x="860.539" y="542.98" width="10" height="40" rx="5" transform="rotate(-38.0081 860.539 542.98)" fill="#CEE9FD"/>
<rect x="895.916" y="481.065" width="10" height="40" rx="5" transform="rotate(-38.0081 895.916 481.065)" fill="#CEE9FD"/>
<rect x="895.208" y="515.886" width="10" height="40" rx="5" transform="rotate(-38.0081 895.208 515.886)" fill="#CEE9FD"/>
<rect x="861.956" y="473.338" width="10" height="40" rx="5" transform="rotate(-38.0081 861.956 473.338)" fill="#CEE9FD"/>
<rect x="930.585" y="453.971" width="10" height="40" rx="5" transform="rotate(-38.0081 930.585 453.971)" fill="#CEE9FD"/>
<rect x="896.625" y="446.244" width="10" height="40" rx="5" transform="rotate(-38.0081 896.625 446.244)" fill="#CEE9FD"/>
<rect x="929.877" y="488.792" width="10" height="40" rx="5" transform="rotate(-38.0081 929.877 488.792)" fill="#CEE9FD"/>
<rect x="965.254" y="426.877" width="10" height="40" rx="5" transform="rotate(-38.0081 965.254 426.877)" fill="#CEE9FD"/>
<rect x="964.545" y="461.698" width="10" height="40" rx="5" transform="rotate(-38.0081 964.545 461.698)" fill="#CEE9FD"/>
<rect x="931.293" y="419.15" width="10" height="40" rx="5" transform="rotate(-38.0081 931.293 419.15)" fill="#CEE9FD"/>
<rect x="999.922" y="399.783" width="10" height="40" rx="5" transform="rotate(-38.0081 999.922 399.783)" fill="#CEE9FD"/>
<rect x="965.962" y="392.056" width="10" height="40" rx="5" transform="rotate(-38.0081 965.962 392.056)" fill="#CEE9FD"/>
<rect x="999.214" y="434.604" width="10" height="40" rx="5" transform="rotate(-38.0081 999.214 434.604)" fill="#CEE9FD"/>
<rect x="1034.59" y="372.689" width="10" height="40" rx="5" transform="rotate(-38.0081 1034.59 372.689)" fill="#CEE9FD"/>
<rect x="1033.88" y="407.51" width="10" height="40" rx="5" transform="rotate(-38.0081 1033.88 407.51)" fill="#CEE9FD"/>
<rect x="1000.63" y="364.962" width="10" height="40" rx="5" transform="rotate(-38.0081 1000.63 364.962)" fill="#CEE9FD"/>
<rect x="1069.26" y="345.595" width="10" height="40" rx="5" transform="rotate(-38.0081 1069.26 345.595)" fill="#CEE9FD"/>
<rect x="1035.3" y="337.868" width="10" height="40" rx="5" transform="rotate(-38.0081 1035.3 337.868)" fill="#CEE9FD"/>
<rect x="1068.55" y="380.416" width="10" height="40" rx="5" transform="rotate(-38.0081 1068.55 380.416)" fill="#CEE9FD"/>
<rect x="1103.93" y="318.501" width="10" height="40" rx="5" transform="rotate(-38.0081 1103.93 318.501)" fill="#CEE9FD"/>
<rect x="1103.22" y="353.322" width="10" height="40" rx="5" transform="rotate(-38.0081 1103.22 353.322)" fill="#CEE9FD"/>
<rect x="1069.97" y="310.774" width="10" height="40" rx="5" transform="rotate(-38.0081 1069.97 310.774)" fill="#CEE9FD"/>
<rect x="1138.6" y="291.407" width="10" height="40" rx="5" transform="rotate(-38.0081 1138.6 291.407)" fill="#CEE9FD"/>
<rect x="1104.64" y="283.68" width="10" height="40" rx="5" transform="rotate(-38.0081 1104.64 283.68)" fill="#CEE9FD"/>
<rect x="1137.89" y="326.228" width="10" height="40" rx="5" transform="rotate(-38.0081 1137.89 326.228)" fill="#CEE9FD"/>
<rect x="1173.27" y="264.313" width="10" height="40" rx="5" transform="rotate(-38.0081 1173.27 264.313)" fill="#CEE9FD"/>
<rect x="1172.56" y="299.134" width="10" height="40" rx="5" transform="rotate(-38.0081 1172.56 299.134)" fill="#CEE9FD"/>
<rect x="1139.31" y="256.586" width="10" height="40" rx="5" transform="rotate(-38.0081 1139.31 256.586)" fill="#CEE9FD"/>
<rect x="1207.93" y="237.219" width="10" height="40" rx="5" transform="rotate(-38.0081 1207.93 237.219)" fill="#CEE9FD"/>
<rect x="1173.97" y="229.492" width="10" height="40" rx="5" transform="rotate(-38.0081 1173.97 229.492)" fill="#CEE9FD"/>
<rect x="1207.23" y="272.04" width="10" height="40" rx="5" transform="rotate(-38.0081 1207.23 272.04)" fill="#CEE9FD"/>
<rect x="1242.6" y="210.125" width="10" height="40" rx="5" transform="rotate(-38.0081 1242.6 210.125)" fill="#CEE9FD"/>
<rect x="1241.89" y="244.946" width="10" height="40" rx="5" transform="rotate(-38.0081 1241.89 244.946)" fill="#CEE9FD"/>
<rect x="1208.64" y="202.398" width="10" height="40" rx="5" transform="rotate(-38.0081 1208.64 202.398)" fill="#CEE9FD"/>
<rect x="1277.27" y="183.031" width="10" height="40" rx="5" transform="rotate(-38.0081 1277.27 183.031)" fill="#CEE9FD"/>
<rect x="1243.31" y="175.304" width="10" height="40" rx="5" transform="rotate(-38.0081 1243.31 175.304)" fill="#CEE9FD"/>
<rect x="1276.56" y="217.852" width="10" height="40" rx="5" transform="rotate(-38.0081 1276.56 217.852)" fill="#CEE9FD"/>
<rect x="1277.98" y="148.21" width="10" height="40" rx="5" transform="rotate(-38.0081 1277.98 148.21)" fill="#CEE9FD"/>
<rect x="825.069" y="640.503" width="10" height="40" rx="5" transform="rotate(-38.0081 825.069 640.503)" fill="#CEE9FD"/>
<rect x="791.109" y="632.777" width="10" height="40" rx="5" transform="rotate(-38.0081 791.109 632.777)" fill="#CEE9FD"/>
<rect x="859.738" y="613.409" width="10" height="40" rx="5" transform="rotate(-38.0081 859.738 613.409)" fill="#CEE9FD"/>
<rect x="825.778" y="605.683" width="10" height="40" rx="5" transform="rotate(-38.0081 825.778 605.683)" fill="#CEE9FD"/>
<rect x="894.407" y="586.315" width="10" height="40" rx="5" transform="rotate(-38.0081 894.407 586.315)" fill="#CEE9FD"/>
<rect x="893.698" y="621.136" width="10" height="40" rx="5" transform="rotate(-38.0081 893.698 621.136)" fill="#CEE9FD"/>
<rect x="860.447" y="578.589" width="10" height="40" rx="5" transform="rotate(-38.0081 860.447 578.589)" fill="#CEE9FD"/>
<rect x="929.075" y="559.221" width="10" height="40" rx="5" transform="rotate(-38.0081 929.075 559.221)" fill="#CEE9FD"/>
<rect x="895.115" y="551.495" width="10" height="40" rx="5" transform="rotate(-38.0081 895.115 551.495)" fill="#CEE9FD"/>
<rect x="928.367" y="594.042" width="10" height="40" rx="5" transform="rotate(-38.0081 928.367 594.042)" fill="#CEE9FD"/>
<rect x="963.744" y="532.127" width="10" height="40" rx="5" transform="rotate(-38.0081 963.744 532.127)" fill="#CEE9FD"/>
<rect x="963.036" y="566.948" width="10" height="40" rx="5" transform="rotate(-38.0081 963.036 566.948)" fill="#CEE9FD"/>
<rect x="929.784" y="524.401" width="10" height="40" rx="5" transform="rotate(-38.0081 929.784 524.401)" fill="#CEE9FD"/>
<rect x="998.413" y="505.033" width="10" height="40" rx="5" transform="rotate(-38.0081 998.413 505.033)" fill="#CEE9FD"/>
<rect x="964.452" y="497.307" width="10" height="40" rx="5" transform="rotate(-38.0081 964.452 497.307)" fill="#CEE9FD"/>
<rect x="997.704" y="539.854" width="10" height="40" rx="5" transform="rotate(-38.0081 997.704 539.854)" fill="#CEE9FD"/>
<rect x="1033.08" y="477.939" width="10" height="40" rx="5" transform="rotate(-38.0081 1033.08 477.939)" fill="#CEE9FD"/>
<rect x="1032.37" y="512.76" width="10" height="40" rx="5" transform="rotate(-38.0081 1032.37 512.76)" fill="#CEE9FD"/>
<rect x="999.121" y="470.213" width="10" height="40" rx="5" transform="rotate(-38.0081 999.121 470.213)" fill="#CEE9FD"/>
<rect x="1067.75" y="450.845" width="10" height="40" rx="5" transform="rotate(-38.0081 1067.75 450.845)" fill="#CEE9FD"/>
<rect x="1033.79" y="443.119" width="10" height="40" rx="5" transform="rotate(-38.0081 1033.79 443.119)" fill="#CEE9FD"/>
<rect x="1067.04" y="485.667" width="10" height="40" rx="5" transform="rotate(-38.0081 1067.04 485.667)" fill="#CEE9FD"/>
<rect x="1102.42" y="423.751" width="10" height="40" rx="5" transform="rotate(-38.0081 1102.42 423.751)" fill="#CEE9FD"/>
<rect x="1101.71" y="458.573" width="10" height="40" rx="5" transform="rotate(-38.0081 1101.71 458.573)" fill="#CEE9FD"/>
<rect x="1068.46" y="416.025" width="10" height="40" rx="5" transform="rotate(-38.0081 1068.46 416.025)" fill="#CEE9FD"/>
<rect x="1137.09" y="396.657" width="10" height="40" rx="5" transform="rotate(-38.0081 1137.09 396.657)" fill="#CEE9FD"/>
<rect x="1103.13" y="388.931" width="10" height="40" rx="5" transform="rotate(-38.0081 1103.13 388.931)" fill="#CEE9FD"/>
<rect x="1136.38" y="431.479" width="10" height="40" rx="5" transform="rotate(-38.0081 1136.38 431.479)" fill="#CEE9FD"/>
<rect x="1171.76" y="369.563" width="10" height="40" rx="5" transform="rotate(-38.0081 1171.76 369.563)" fill="#CEE9FD"/>
<rect x="1171.05" y="404.384" width="10" height="40" rx="5" transform="rotate(-38.0081 1171.05 404.384)" fill="#CEE9FD"/>
<rect x="1137.8" y="361.836" width="10" height="40" rx="5" transform="rotate(-38.0081 1137.8 361.836)" fill="#CEE9FD"/>
<rect x="1206.42" y="342.469" width="10" height="40" rx="5" transform="rotate(-38.0081 1206.42 342.469)" fill="#CEE9FD"/>
<rect x="1172.46" y="334.742" width="10" height="40" rx="5" transform="rotate(-38.0081 1172.46 334.742)" fill="#CEE9FD"/>
<rect x="1205.72" y="377.29" width="10" height="40" rx="5" transform="rotate(-38.0081 1205.72 377.29)" fill="#CEE9FD"/>
<rect x="1241.09" y="315.375" width="10" height="40" rx="5" transform="rotate(-38.0081 1241.09 315.375)" fill="#CEE9FD"/>
<rect x="1240.38" y="350.196" width="10" height="40" rx="5" transform="rotate(-38.0081 1240.38 350.196)" fill="#CEE9FD"/>
<rect x="1207.13" y="307.648" width="10" height="40" rx="5" transform="rotate(-38.0081 1207.13 307.648)" fill="#CEE9FD"/>
<rect x="1275.76" y="288.281" width="10" height="40" rx="5" transform="rotate(-38.0081 1275.76 288.281)" fill="#CEE9FD"/>
<rect x="1241.8" y="280.554" width="10" height="40" rx="5" transform="rotate(-38.0081 1241.8 280.554)" fill="#CEE9FD"/>
<rect x="1275.05" y="323.102" width="10" height="40" rx="5" transform="rotate(-38.0081 1275.05 323.102)" fill="#CEE9FD"/>
<rect x="1276.47" y="253.46" width="10" height="40" rx="5" transform="rotate(-38.0081 1276.47 253.46)" fill="#CEE9FD"/>
<rect x="962.234" y="637.378" width="10" height="40" rx="5" transform="rotate(-38.0081 962.234 637.378)" fill="#CEE9FD"/>
<rect x="928.274" y="629.652" width="10" height="40" rx="5" transform="rotate(-38.0081 928.274 629.652)" fill="#CEE9FD"/>
<rect x="996.903" y="610.284" width="10" height="40" rx="5" transform="rotate(-38.0081 996.903 610.284)" fill="#CEE9FD"/>
<rect x="996.195" y="645.105" width="10" height="40" rx="5" transform="rotate(-38.0081 996.195 645.105)" fill="#CEE9FD"/>
<rect x="962.943" y="602.557" width="10" height="40" rx="5" transform="rotate(-38.0081 962.943 602.557)" fill="#CEE9FD"/>
<rect x="1031.57" y="583.19" width="10" height="40" rx="5" transform="rotate(-38.0081 1031.57 583.19)" fill="#CEE9FD"/>
<rect x="997.612" y="575.463" width="10" height="40" rx="5" transform="rotate(-38.0081 997.612 575.463)" fill="#CEE9FD"/>
<rect x="1030.86" y="618.011" width="10" height="40" rx="5" transform="rotate(-38.0081 1030.86 618.011)" fill="#CEE9FD"/>
<rect x="1066.24" y="556.096" width="10" height="40" rx="5" transform="rotate(-38.0081 1066.24 556.096)" fill="#CEE9FD"/>
<rect x="1065.53" y="590.917" width="10" height="40" rx="5" transform="rotate(-38.0081 1065.53 590.917)" fill="#CEE9FD"/>
<rect x="1032.28" y="548.369" width="10" height="40" rx="5" transform="rotate(-38.0081 1032.28 548.369)" fill="#CEE9FD"/>
<rect x="1100.91" y="529.002" width="10" height="40" rx="5" transform="rotate(-38.0081 1100.91 529.002)" fill="#CEE9FD"/>
<rect x="1066.95" y="521.275" width="10" height="40" rx="5" transform="rotate(-38.0081 1066.95 521.275)" fill="#CEE9FD"/>
<rect x="1100.2" y="563.823" width="10" height="40" rx="5" transform="rotate(-38.0081 1100.2 563.823)" fill="#CEE9FD"/>
<rect x="1135.58" y="501.908" width="10" height="40" rx="5" transform="rotate(-38.0081 1135.58 501.908)" fill="#CEE9FD"/>
<rect x="1134.87" y="536.729" width="10" height="40" rx="5" transform="rotate(-38.0081 1134.87 536.729)" fill="#CEE9FD"/>
<rect x="1101.62" y="494.181" width="10" height="40" rx="5" transform="rotate(-38.0081 1101.62 494.181)" fill="#CEE9FD"/>
<rect x="1170.25" y="474.814" width="10" height="40" rx="5" transform="rotate(-38.0081 1170.25 474.814)" fill="#CEE9FD"/>
<rect x="1136.29" y="467.087" width="10" height="40" rx="5" transform="rotate(-38.0081 1136.29 467.087)" fill="#CEE9FD"/>
<rect x="1169.54" y="509.635" width="10" height="40" rx="5" transform="rotate(-38.0081 1169.54 509.635)" fill="#CEE9FD"/>
<rect x="1204.91" y="447.72" width="10" height="40" rx="5" transform="rotate(-38.0081 1204.91 447.72)" fill="#CEE9FD"/>
<rect x="1204.21" y="482.541" width="10" height="40" rx="5" transform="rotate(-38.0081 1204.21 482.541)" fill="#CEE9FD"/>
<rect x="1170.95" y="439.993" width="10" height="40" rx="5" transform="rotate(-38.0081 1170.95 439.993)" fill="#CEE9FD"/>
<rect x="1239.58" y="420.626" width="10" height="40" rx="5" transform="rotate(-38.0081 1239.58 420.626)" fill="#CEE9FD"/>
<rect x="1205.62" y="412.899" width="10" height="40" rx="5" transform="rotate(-38.0081 1205.62 412.899)" fill="#CEE9FD"/>
<rect x="1238.88" y="455.447" width="10" height="40" rx="5" transform="rotate(-38.0081 1238.88 455.447)" fill="#CEE9FD"/>
<rect x="1274.25" y="393.532" width="10" height="40" rx="5" transform="rotate(-38.0081 1274.25 393.532)" fill="#CEE9FD"/>
<rect x="1273.54" y="428.353" width="10" height="40" rx="5" transform="rotate(-38.0081 1273.54 428.353)" fill="#CEE9FD"/>
<rect x="1240.29" y="385.805" width="10" height="40" rx="5" transform="rotate(-38.0081 1240.29 385.805)" fill="#CEE9FD"/>
<rect x="1274.96" y="358.711" width="10" height="40" rx="5" transform="rotate(-38.0081 1274.96 358.711)" fill="#CEE9FD"/>
<rect x="1099.4" y="634.253" width="10" height="40" rx="5" transform="rotate(-38.0081 1099.4 634.253)" fill="#CEE9FD"/>
<rect x="1065.44" y="626.526" width="10" height="40" rx="5" transform="rotate(-38.0081 1065.44 626.526)" fill="#CEE9FD"/>
<rect x="1134.07" y="607.159" width="10" height="40" rx="5" transform="rotate(-38.0081 1134.07 607.159)" fill="#CEE9FD"/>
<rect x="1133.36" y="641.98" width="10" height="40" rx="5" transform="rotate(-38.0081 1133.36 641.98)" fill="#CEE9FD"/>
<rect x="1100.11" y="599.432" width="10" height="40" rx="5" transform="rotate(-38.0081 1100.11 599.432)" fill="#CEE9FD"/>
<rect x="1168.74" y="580.065" width="10" height="40" rx="5" transform="rotate(-38.0081 1168.74 580.065)" fill="#CEE9FD"/>
<rect x="1134.78" y="572.338" width="10" height="40" rx="5" transform="rotate(-38.0081 1134.78 572.338)" fill="#CEE9FD"/>
<rect x="1168.03" y="614.886" width="10" height="40" rx="5" transform="rotate(-38.0081 1168.03 614.886)" fill="#CEE9FD"/>
<rect x="1203.41" y="552.971" width="10" height="40" rx="5" transform="rotate(-38.0081 1203.41 552.971)" fill="#CEE9FD"/>
<rect x="1202.7" y="587.792" width="10" height="40" rx="5" transform="rotate(-38.0081 1202.7 587.792)" fill="#CEE9FD"/>
<rect x="1169.45" y="545.244" width="10" height="40" rx="5" transform="rotate(-38.0081 1169.45 545.244)" fill="#CEE9FD"/>
<rect x="1238.07" y="525.877" width="10" height="40" rx="5" transform="rotate(-38.0081 1238.07 525.877)" fill="#CEE9FD"/>
<rect x="1204.11" y="518.15" width="10" height="40" rx="5" transform="rotate(-38.0081 1204.11 518.15)" fill="#CEE9FD"/>
<rect x="1237.37" y="560.698" width="10" height="40" rx="5" transform="rotate(-38.0081 1237.37 560.698)" fill="#CEE9FD"/>
<rect x="1272.74" y="498.783" width="10" height="40" rx="5" transform="rotate(-38.0081 1272.74 498.783)" fill="#CEE9FD"/>
<rect x="1272.03" y="533.604" width="10" height="40" rx="5" transform="rotate(-38.0081 1272.03 533.604)" fill="#CEE9FD"/>
<rect x="1238.78" y="491.056" width="10" height="40" rx="5" transform="rotate(-38.0081 1238.78 491.056)" fill="#CEE9FD"/>
<rect x="1273.45" y="463.962" width="10" height="40" rx="5" transform="rotate(-38.0081 1273.45 463.962)" fill="#CEE9FD"/>
</g>
</g>
<defs>
<radialGradient id="paint0_radial_405_1829" cx="0" cy="0" r="1" gradientUnits="userSpaceOnUse" gradientTransform="rotate(26.5651) scale(1431.08 2862.17)">
<stop offset="0.234375" stop-color="#DDF0FE"/>
<stop offset="1" stop-color="#F5FBFF"/>
</radialGradient>
<clipPath id="clip0_405_1829">
<rect width="1280" height="640" fill="white"/>
</clipPath>
<clipPath id="clip1_405_1829">
<rect width="898" height="898" fill="white" transform="translate(-240 -326)"/>
</clipPath>
<clipPath id="clip2_405_1829">
<rect width="898" height="898" fill="white" transform="translate(639 104)"/>
</clipPath>
</defs>
</svg>
