<svg width="164" height="24" xmlns="http://www.w3.org/2000/svg">
    <g clip-path="url(#a)">
        <path d="M28.316 10.71a6.368 6.368 0 0 0-.273-.26 77.134 77.134 0 0 1-4.128-3.836 76.787 76.787 0 0 1-4.052-4.387 6.246 6.246 0 0 0-9.563 0 76.267 76.267 0 0 1-8.179 8.223 6.307 6.307 0 0 0 7.332 10.186 11.28 11.28 0 0 1 11.257 0 6.307 6.307 0 0 0 7.605-9.925Zm17.666-1.481h15.144v3.338H45.982v6.455h-3.365V2.555h19.379V5.94H45.982v3.289ZM68.067 5.94h-3.696v13.082h3.697V5.939Zm37.948 9.582-.023 3.03a17.365 17.365 0 0 1-5.453.834c-2.123 0-3.7-.474-4.684-1.407-.861-.816-1.298-2.013-1.298-3.557V9.227h-3.965V5.94h3.965v-3.8h3.365v3.8h7.781v3.288h-7.781v4.453c0 1.043.217 1.695.703 2.115.493.425 1.264.614 2.503.614 1.087 0 2.619-.103 4.887-.888Zm18.708-8.042c-1.815-1.21-4.395-1.876-7.263-1.876-2.893 0-5.499.678-7.337 1.91-1.887 1.264-2.885 3.015-2.885 5.062 0 2.046 1.005 3.788 2.906 5.04 1.83 1.206 4.41 1.87 7.266 1.87 2.873 0 5.461-.66 7.29-1.86 1.902-1.248 2.908-2.994 2.908-5.05 0-2.075-.997-3.838-2.885-5.095Zm-2.656 8.028c-1.157.656-2.767 1.003-4.657 1.003-1.881 0-3.487-.35-4.643-1.013-1.235-.706-1.889-1.735-1.889-2.972 0-1.202.614-2.202 1.773-2.893 1.141-.681 2.787-1.041 4.759-1.041 1.971 0 3.618.356 4.763 1.03 1.174.691 1.795 1.696 1.795 2.904 0 1.246-.658 2.277-1.901 2.982Zm18.525-5.895a7.424 7.424 0 0 0-1.997-.26 9.69 9.69 0 0 0-2.765.42c-2.005.607-3.155 2.03-3.155 3.904v5.345h-3.327V5.94h3.327v2.022l.274-.317c.988-1.144 3.35-1.913 5.877-1.913.583 0 1.165.04 1.743.116l.023 3.765Zm21.745-3.673L151.979 23h-4.151l2.266-3.59.052-.084-.052-.083-8.293-13.303h4.358l6.01 9.694.134.218.132-.22 5.858-9.692h4.044Zm-93.944-5h-4.291v3.067h4.29V.94ZM90.07 16.811c-.012.72-.026 1.463-.027 2.21h-3.947l.002-1.441c.002-1.125.004-2.187-.004-3.357-.013-1.898-.409-3.247-1.21-4.123-.794-.87-2.019-1.31-3.743-1.343-.073-.002-.145-.002-.217-.002-1.87 0-3.327.481-4.326 1.432-.988.939-1.53 2.336-1.612 4.149-.052 1.165-.04 2.1-.026 3.184.005.473.011.96.013 1.499h-3.96V5.939h3.806l.25 1.64.037.246.206-.14a11.467 11.467 0 0 1 6.673-2.083c.793.003 1.585.072 2.367.206 1.615.273 2.986.952 3.964 1.964a6.275 6.275 0 0 1 1.693 3.984c.119 1.662.09 3.31.06 5.055Z"/>
    </g>
    <defs>
        <clipPath id="a">
            <path d="M0 0h162.335v24H0z"/>
        </clipPath>
    </defs>
</svg>
