<svg width="1869" height="313" viewBox="0 0 1869 313" fill="none" xmlns="http://www.w3.org/2000/svg">
<g clip-path="url(#clip0_823_291)">
<path d="M469.7 249V36H499.4V220.5H608.9V249H469.7ZM644.483 137.4C650.483 106.5 676.883 86.4 710.483 86.4C749.183 86.4 774.683 108.9 774.683 153V213.3C774.683 220.2 777.683 223.2 784.283 223.2H791.183V249H782.783C763.583 249 752.183 238.8 749.183 224.7C743.183 239.4 724.583 252.6 699.683 252.6C667.583 252.6 641.783 235.8 641.783 207.3C641.783 174.3 666.083 165 702.683 158.1L745.583 149.7C745.283 125.4 731.483 113.4 710.183 113.4C692.183 113.4 678.983 124.2 675.383 139.5L644.483 137.4ZM672.383 206.7C672.683 217.8 682.283 227.1 703.283 227.1C727.283 227.1 746.183 210.3 746.183 181.8V174.9L711.983 180.9C689.783 184.8 672.383 186.6 672.383 206.7ZM830.966 90H857.666L858.566 116.7C866.966 96.3 884.666 86.4 905.966 86.4C941.366 86.4 958.766 112.5 958.766 146.7V249H929.666V154.2C929.666 126 920.366 111.3 898.466 111.3C875.366 111.3 860.066 126 860.066 154.2V249H830.966V90ZM1067.55 240.6C1028.25 240.6 1000.35 209.1 1000.35 164.4C1000.35 118.2 1028.25 86.4 1067.55 86.4C1088.85 86.4 1107.45 97.8 1114.65 114.3L1114.95 90H1142.85V231.6C1142.55 275.1 1114.95 297.6 1072.35 297.6C1037.55 297.6 1012.35 279.3 1004.85 251.7L1035.45 249.6C1041.75 263.4 1054.05 271.5 1072.35 271.5C1098.15 271.5 1113.45 259.8 1113.75 237.9V214.2C1105.65 229.5 1086.45 240.6 1067.55 240.6ZM1030.95 164.1C1030.95 194.1 1046.85 215.1 1072.95 215.1C1098.45 215.1 1114.05 194.1 1114.35 164.1C1114.95 134.4 1099.05 113.4 1072.95 113.4C1046.85 113.4 1030.95 134.4 1030.95 164.1ZM1224.63 83.1C1224.63 53.7 1239.33 36 1271.73 36H1315.53V61.8H1271.13C1260.93 61.8 1253.73 69.6 1253.73 82.5V100.2H1313.43V126H1253.73V249H1224.63V126H1182.93V100.2H1224.63V83.1ZM1494.51 249H1466.91L1466.61 223.2C1458.21 243 1440.81 252.6 1420.41 252.6C1385.61 252.6 1368.51 226.5 1368.51 192.3V90H1397.61V184.8C1397.61 213 1406.91 227.7 1427.91 227.7C1450.41 227.7 1465.41 213 1465.41 184.8V90H1494.51V249ZM1647.7 139.8C1644.4 123 1628.8 113.4 1610.2 113.4C1594.9 113.4 1580.8 120.9 1581.1 135.6C1581.1 151.5 1600.3 155.1 1618 159.6C1648.3 167.1 1678.6 178.2 1678.6 207.9C1678.6 239.1 1648.6 252.6 1615.6 252.6C1578.4 252.6 1548.1 231.6 1545.7 198.6L1576.3 196.8C1579.3 214.5 1595.2 225.6 1615.6 225.6C1631.5 225.6 1648 221.4 1648 206.4C1648 190.8 1627.9 188.1 1610.2 183.9C1580.2 176.7 1550.5 165.6 1550.5 136.8C1550.5 104.7 1579.3 86.4 1612.9 86.4C1646.5 86.4 1672.6 106.5 1677.7 138L1647.7 139.8ZM1720.78 169.5C1720.78 118.8 1749.88 86.4 1794.58 86.4C1830.28 86.4 1862.68 109.5 1865.08 166.8V177.9H1751.68C1754.08 207.9 1769.38 225.6 1794.58 225.6C1810.48 225.6 1824.88 216.3 1831.78 200.4L1862.68 203.1C1853.68 233.4 1826.38 252.6 1794.58 252.6C1749.88 252.6 1720.78 220.2 1720.78 169.5ZM1752.58 154.5H1833.28C1829.08 124.2 1812.58 113.4 1794.58 113.4C1771.48 113.4 1756.78 128.7 1752.58 154.5Z" fill="black"/>
<g clip-path="url(#clip1_823_291)">
<path d="M286.055 219.8C272.135 238.631 250.819 251.195 226.766 253.029C226.017 253.081 225.268 253.134 224.509 253.176C196.306 254.58 175.001 241.712 160.874 229.766C135.875 216.532 116.315 213.199 104.871 210.317C96.5487 208.221 89.2664 204.03 86.1454 201.934C83.3782 200.289 77.8124 196.474 73.6615 189.359C69.0112 181.385 68.7408 173.766 68.8136 170.528C71.2375 170.204 74.3689 169.847 78.0309 169.617C81.027 169.428 83.9295 169.355 87.1858 169.344C112.445 169.313 132.034 170.549 146.287 176.879C153.996 180.295 161.143 184.843 167.509 190.386C175.697 197.533 192.436 208.829 213.065 204.973C215.687 204.48 218.205 203.83 220.629 203.034C228.056 201.965 240.759 201.106 255.719 205.077C269.919 208.85 280.135 215.368 286.055 219.8Z" fill="#0A60B5" stroke="black" stroke-width="8" stroke-miterlimit="10"/>
<path d="M284.203 90.1167C277.928 81.9863 270.3 74.3004 261.292 69.056C251.692 63.4702 239.442 58.6602 224.627 57.3568C188.429 54.1708 163.68 74.2487 159.171 78.045C153.561 83.3101 131.119 101.94 104.105 112.284C99.3986 113.96 90.3387 117.921 82.2866 126.766C75.9177 133.758 72.8007 140.916 71.2734 145.364C74.4943 145.809 77.819 146.13 81.2476 146.326C107.44 147.785 129.945 147.93 144.667 140.72C154.392 135.962 162.922 129.186 170.278 121.252C183.535 106.946 202.87 100.564 220.471 104.94C228.554 106.067 242.632 106.926 258.913 101.94C270.155 98.4953 278.53 94.1613 284.203 90.1167Z" fill="#0A60B5" stroke="black" stroke-width="8" stroke-miterlimit="10"/>
<path d="M38.5625 96.1538C28.5208 90.9925 20.6818 85.0387 15.3352 80.3778C12.3465 77.7711 7.70312 79.9086 7.70312 83.8917V116.455C7.70312 117.873 8.3443 119.218 9.44052 120.094L22.7812 132.93C23.4844 127.768 24.9943 120.751 28.3864 112.993C31.5819 105.674 35.4186 100.074 38.5625 96.1538Z" fill="#0A60B5" stroke="black" stroke-width="8" stroke-miterlimit="10"/>
<path d="M253.344 168.823C254.87 164.12 255.717 159.186 255.843 154.158C255.947 150.186 255.487 148.702 254.797 144.856C261.896 143.664 270.762 141.72 278.844 139.629C287.386 137.424 293.701 134.863 300.8 132.312C301.835 137.277 302.922 139.692 303.299 143.371C303.654 146.842 303.874 150.437 303.936 154.158C304.125 165.719 302.713 176.203 300.538 185.391C293.847 181.92 285.901 178.325 276.753 175.168C268.242 172.22 260.328 170.214 253.344 168.823Z" fill="#0A60B5" stroke="black" stroke-width="8" stroke-miterlimit="10"/>
<path d="M15.025 237.578C11.9639 239.801 7.70312 237.61 7.70312 233.801V193.808C7.70312 192.597 8.1685 191.45 8.97514 190.594C9.37847 190.166 9.75076 189.926 9.91623 189.832L23.1328 184.156C24.1049 189.457 25.7079 195.801 28.3864 202.708C31.5199 210.784 35.2428 217.326 38.5625 222.303C30.7132 227.395 22.8639 232.487 15.025 237.578Z" fill="#0A60B5" stroke="black" stroke-width="8" stroke-miterlimit="10"/>
<path fill-rule="evenodd" clip-rule="evenodd" d="M100.136 62.8498C126.57 61.5386 146.337 72.6102 156.526 80.0098C148.813 86.8226 127.941 103.262 103.255 112.757C101.59 113.353 99.3808 114.235 96.864 115.52C79.0008 124.318 68.3788 141.852 67.9047 160.584C67.825 163.737 67.9859 166.878 68.4028 169.965C68.3577 169.971 68.3128 169.977 68.2682 169.983C68.1954 173.195 68.4658 180.754 73.1133 188.667C77.2619 195.726 82.8244 199.511 85.5901 201.143C86.9625 202.058 89.1402 203.376 91.8573 204.742C95.049 206.442 98.5882 207.868 102.492 208.971C103.09 209.145 103.695 209.309 104.305 209.461C105.726 209.816 107.274 210.184 108.944 210.58C120.722 213.376 138.569 217.611 160.45 229.112C162.661 230.967 165.042 232.837 167.596 234.664C166.82 235.359 166.167 235.965 165.639 236.463C161.127 240.279 136.36 260.46 100.136 257.258C85.3098 255.948 73.041 251.113 63.4443 245.499C47.2765 236.048 35.0597 221.096 28.3951 203.598C24.101 192.317 20.358 177.729 20.0877 160.563C19.8485 145.903 22.1983 132.99 25.4007 122.281C35.2053 89.5604 63.7978 65.5635 97.8801 62.9954L97.8816 62.9953C98.6297 62.9433 99.3778 62.8914 100.136 62.8498ZM285.278 218.795C279.345 214.399 269.166 207.981 255.066 204.263C240.114 200.322 227.419 201.175 219.996 202.235C217.573 203.025 215.057 203.67 212.437 204.159C191.819 207.985 175.09 196.777 166.907 189.686C165.316 188.31 163.676 186.997 161.991 185.747C167.498 180.907 173.553 176.731 180.154 173.487C194.887 166.251 217.407 166.396 243.619 167.852C279.739 169.869 304.692 187.076 314.653 194.978C315.765 195.862 316.4 197.193 316.4 198.607V231.078C316.4 235.06 311.731 237.191 308.726 234.582C303.343 229.92 295.425 223.958 285.278 218.795ZM169.475 121.772C167.107 124.337 164.617 126.782 162.005 129.078C167.063 132.831 172.53 136.008 178.313 138.552C192.558 144.832 212.136 146.059 237.38 146.028C274.405 145.976 301.667 132.033 314.175 124.443C315.557 123.601 316.4 122.104 316.4 120.482V80.6292C316.4 76.8342 312.116 74.6507 309.038 76.8653C301.753 82.1089 290.919 88.8015 276.948 94.0659C271.916 97.0318 265.646 100.06 258.175 102.36C241.882 107.371 227.794 106.508 219.705 105.375C202.092 100.977 182.742 107.392 169.475 121.772Z" fill="#E11312"/>
<path d="M156.526 80.0098L159.174 83.0078L162.913 79.705L158.876 76.7733L156.526 80.0098ZM100.136 62.8498L99.9381 58.8547L99.9278 58.8552L99.9174 58.8558L100.136 62.8498ZM103.255 112.757L104.602 116.524L104.647 116.508L104.691 116.491L103.255 112.757ZM96.864 115.52L98.6313 119.108L98.6572 119.096L98.6829 119.083L96.864 115.52ZM67.9047 160.584L63.906 160.483L63.906 160.483L67.9047 160.584ZM68.4028 169.965L68.9266 173.93L72.9038 173.405L72.3668 169.429L68.4028 169.965ZM68.2682 169.983L67.7409 166.018L64.3468 166.469L64.2692 169.892L68.2682 169.983ZM73.1133 188.667L69.6643 190.693L69.6647 190.693L73.1133 188.667ZM85.5901 201.143L87.8089 197.815L87.7177 197.754L87.6232 197.699L85.5901 201.143ZM91.8573 204.742L93.7381 201.212L93.6963 201.189L93.6539 201.168L91.8573 204.742ZM102.492 208.971L103.605 205.13L103.593 205.126L103.58 205.122L102.492 208.971ZM104.305 209.461L103.335 213.342L103.335 213.342L104.305 209.461ZM108.944 210.58L109.868 206.688L109.868 206.688L108.944 210.58ZM160.45 229.112L163.022 226.048L162.693 225.772L162.311 225.571L160.45 229.112ZM167.596 234.664L170.263 237.645L173.982 234.317L169.924 231.412L167.596 234.664ZM165.639 236.463L168.222 239.518L168.306 239.447L168.385 239.372L165.639 236.463ZM100.136 257.258L100.489 253.274L100.488 253.274L100.136 257.258ZM63.4443 245.499L65.4642 242.046L65.463 242.045L63.4443 245.499ZM28.3951 203.598L24.6568 205.021L24.657 205.021L28.3951 203.598ZM20.0877 160.563L24.0872 160.5L24.0871 160.498L20.0877 160.563ZM25.4007 122.281L21.569 121.132L21.5683 121.135L25.4007 122.281ZM97.8801 62.9954L97.612 59.0044L97.5958 59.0055L97.5795 59.0067L97.8801 62.9954ZM97.8816 62.9953L98.1497 66.9863L98.1587 66.9857L97.8816 62.9953ZM255.066 204.263L256.086 200.395L256.085 200.395L255.066 204.263ZM285.278 218.795L282.897 222.009L283.166 222.208L283.464 222.36L285.278 218.795ZM219.996 202.235L219.43 198.275L219.086 198.324L218.755 198.432L219.996 202.235ZM212.437 204.159L213.167 208.091L213.17 208.091L212.437 204.159ZM166.907 189.686L169.527 186.663L169.523 186.659L166.907 189.686ZM161.991 185.747L159.351 182.743L155.632 186.011L159.609 188.96L161.991 185.747ZM180.154 173.487L178.39 169.897L178.389 169.897L180.154 173.487ZM243.619 167.852L243.842 163.858L243.84 163.858L243.619 167.852ZM314.653 194.978L317.141 191.846L317.139 191.845L314.653 194.978ZM308.726 234.582L311.349 231.562L311.345 231.558L308.726 234.582ZM162.005 129.078L159.364 126.074L155.646 129.341L159.622 132.291L162.005 129.078ZM169.475 121.772L172.415 124.485L172.415 124.484L169.475 121.772ZM178.313 138.552L179.927 134.892L179.924 134.891L178.313 138.552ZM237.38 146.028L237.385 150.028L237.386 150.028L237.38 146.028ZM314.175 124.443L316.25 127.863L316.255 127.86L314.175 124.443ZM309.038 76.8653L306.702 73.6186L306.702 73.6188L309.038 76.8653ZM276.948 94.0659L275.537 90.3228L275.214 90.4446L274.917 90.62L276.948 94.0659ZM258.175 102.36L259.351 106.183L259.351 106.183L258.175 102.36ZM219.705 105.375L218.736 109.256L218.94 109.307L219.15 109.336L219.705 105.375ZM158.876 76.7733C148.278 69.0762 127.619 57.4816 99.9381 58.8547L100.334 66.8449C125.521 65.5955 144.396 76.1443 154.175 83.2463L158.876 76.7733ZM104.691 116.491C130.003 106.755 151.286 89.9747 159.174 83.0078L153.878 77.0118C146.339 83.6705 125.879 99.7698 101.819 109.024L104.691 116.491ZM98.6829 119.083C101.016 117.891 103.062 117.074 104.602 116.524L101.908 108.991C100.118 109.631 97.7455 110.579 95.045 111.958L98.6829 119.083ZM71.9034 160.685C72.3408 143.407 82.1324 127.235 98.6313 119.108L95.0966 111.932C75.8692 121.402 64.4169 140.298 63.906 160.483L71.9034 160.685ZM72.3668 169.429C71.9798 166.564 71.8289 163.636 71.9034 160.685L63.906 160.483C63.8212 163.838 63.9921 167.193 64.4388 170.5L72.3668 169.429ZM68.7955 173.948C68.8392 173.942 68.8828 173.936 68.9266 173.93L67.879 165.999C67.8326 166.005 67.7865 166.012 67.7409 166.018L68.7955 173.948ZM76.5624 186.641C72.4455 179.632 72.2026 172.922 72.2672 170.073L64.2692 169.892C64.1882 173.469 64.486 181.877 69.6643 190.693L76.5624 186.641ZM87.6232 197.699C85.1664 196.249 80.2345 192.89 76.562 186.64L69.6647 190.693C74.2892 198.563 80.4824 202.773 83.5569 204.588L87.6232 197.699ZM93.6539 201.168C91.0837 199.876 89.0469 198.641 87.8089 197.815L83.3713 204.472C84.8781 205.476 87.1967 206.876 90.0608 208.316L93.6539 201.168ZM103.58 205.122C99.9363 204.092 96.6645 202.771 93.7381 201.212L89.9766 208.272C93.4335 210.114 97.24 211.644 101.404 212.821L103.58 205.122ZM105.275 205.581C104.715 205.441 104.158 205.29 103.605 205.13L101.378 212.813C102.022 213 102.674 213.177 103.335 213.342L105.275 205.581ZM109.868 206.688C108.192 206.29 106.668 205.929 105.275 205.581L103.335 213.342C104.783 213.704 106.356 214.077 108.02 214.472L109.868 206.688ZM162.311 225.571C139.969 213.828 121.721 209.501 109.868 206.688L108.02 214.472C119.724 217.25 137.168 221.394 158.589 232.653L162.311 225.571ZM169.924 231.412C167.463 229.65 165.162 227.845 163.022 226.048L157.879 232.176C160.159 234.09 162.622 236.023 165.267 237.917L169.924 231.412ZM168.385 239.372C168.893 238.893 169.519 238.311 170.263 237.645L164.928 231.684C164.121 232.406 163.441 233.038 162.893 233.555L168.385 239.372ZM99.784 261.242C137.658 264.591 163.494 243.516 168.222 239.518L163.056 233.409C158.759 237.043 135.063 256.33 100.489 253.274L99.784 261.242ZM61.4244 248.951C71.4424 254.812 84.2751 259.872 99.7842 261.243L100.488 253.274C86.3445 252.024 74.6395 247.414 65.4642 242.046L61.4244 248.951ZM24.657 205.021C31.6276 223.323 44.4253 239.014 61.4256 248.952L65.463 242.045C50.1277 233.081 38.4919 218.869 32.1331 202.174L24.657 205.021ZM16.0882 160.626C16.3671 178.342 20.2303 193.392 24.6568 205.021L32.1334 202.175C27.9717 191.241 24.3488 177.116 24.0872 160.5L16.0882 160.626ZM21.5683 121.135C18.2669 132.175 15.8414 145.499 16.0882 160.629L24.0871 160.498C23.8557 146.307 26.1297 133.804 29.233 123.427L21.5683 121.135ZM97.5795 59.0067C61.7704 61.7049 31.827 86.8992 21.569 121.132L29.2323 123.429C38.5836 92.2216 65.8252 69.4221 98.1806 66.9841L97.5795 59.0067ZM97.6135 59.0043L97.612 59.0044L98.1481 66.9864L98.1497 66.9863L97.6135 59.0043ZM99.9174 58.8558C99.125 58.8992 98.348 58.9533 97.6045 59.0049L98.1587 66.9857C98.9114 66.9334 99.6305 66.8835 100.355 66.8438L99.9174 58.8558ZM254.046 208.13C267.506 211.68 277.227 217.808 282.897 222.009L287.66 215.581C281.463 210.99 270.825 204.282 256.086 200.395L254.046 208.13ZM220.561 206.195C227.65 205.182 239.773 204.369 254.046 208.13L256.085 200.395C240.456 196.275 227.189 197.167 219.43 198.275L220.561 206.195ZM213.17 208.091C215.961 207.57 218.646 206.883 221.236 206.038L218.755 198.432C216.5 199.168 214.153 199.769 211.703 200.226L213.17 208.091ZM164.288 192.708C172.755 200.046 190.717 212.258 213.167 208.091L211.707 200.226C192.921 203.712 177.425 193.507 169.527 186.663L164.288 192.708ZM159.609 188.96C161.214 190.151 162.776 191.402 164.291 192.712L169.523 186.659C167.857 185.219 166.139 183.843 164.374 182.534L159.609 188.96ZM178.389 169.897C171.438 173.314 165.092 177.697 159.351 182.743L164.632 188.752C169.904 184.118 175.669 180.148 181.918 177.077L178.389 169.897ZM243.84 163.858C230.712 163.129 218.328 162.716 207.327 163.418C196.357 164.118 186.44 165.943 178.39 169.897L181.917 177.077C188.6 173.795 197.31 172.074 207.837 171.402C218.332 170.732 230.314 171.119 243.397 171.846L243.84 163.858ZM317.139 191.845C306.868 183.697 281.132 165.941 243.842 163.858L243.396 171.846C278.345 173.797 302.516 190.456 312.167 198.112L317.139 191.845ZM320.4 198.607C320.4 195.986 319.219 193.497 317.141 191.846L312.165 198.11C312.312 198.227 312.4 198.4 312.4 198.607H320.4ZM320.4 231.078V198.607H312.4V231.078H320.4ZM306.103 237.602C311.703 242.465 320.4 238.483 320.4 231.078H312.4C312.4 231.267 312.351 231.37 312.306 231.437C312.251 231.519 312.158 231.604 312.028 231.663C311.899 231.722 311.774 231.736 311.677 231.725C311.599 231.715 311.491 231.685 311.349 231.562L306.103 237.602ZM283.464 222.36C293.258 227.344 300.909 233.104 306.108 237.606L311.345 231.558C305.777 226.737 297.592 220.573 287.092 215.23L283.464 222.36ZM164.645 132.083C167.369 129.689 169.958 127.146 172.415 124.485L166.536 119.058C164.256 121.528 161.866 123.875 159.364 126.074L164.645 132.083ZM179.924 134.891C174.414 132.467 169.206 129.44 164.388 125.866L159.622 132.291C164.92 136.222 170.646 139.549 176.703 142.214L179.924 134.891ZM237.375 142.028C212.041 142.059 193.29 140.784 179.927 134.892L176.7 142.212C191.826 148.881 212.231 150.059 237.385 150.028L237.375 142.028ZM312.099 121.024C299.926 128.411 273.392 141.977 237.375 142.028L237.386 150.028C275.417 149.975 303.407 135.656 316.25 127.863L312.099 121.024ZM312.4 120.482C312.4 120.708 312.285 120.911 312.094 121.027L316.255 127.86C318.83 126.292 320.4 123.5 320.4 120.482H312.4ZM312.4 80.6292V120.482H320.4V80.6292H312.4ZM311.375 80.1121C311.819 79.7924 312.4 80.1097 312.4 80.6292H320.4C320.4 73.5586 312.413 69.509 306.702 73.6186L311.375 80.1121ZM278.358 97.809C292.734 92.3923 303.877 85.5083 311.375 80.1119L306.702 73.6188C299.628 78.7096 289.105 85.2107 275.537 90.3228L278.358 97.809ZM259.351 106.183C267.166 103.778 273.721 100.611 278.979 97.5119L274.917 90.62C270.11 93.4528 264.126 96.343 256.998 98.5368L259.351 106.183ZM219.15 109.336C227.591 110.519 242.314 111.424 259.351 106.183L256.999 98.5366C241.45 103.319 227.996 102.498 220.26 101.414L219.15 109.336ZM172.415 124.484C184.804 111.056 202.696 105.251 218.736 109.256L220.674 101.494C201.487 96.7032 180.681 103.728 166.535 119.059L172.415 124.484Z" fill="black"/>
</g>
</g>
<defs>
<clipPath id="clip0_823_291">
<rect width="1869" height="313" fill="white"/>
</clipPath>
<clipPath id="clip1_823_291">
<rect width="316" height="316" fill="white" transform="translate(4 -1)"/>
</clipPath>
</defs>
</svg>
