<svg xmlns="http://www.w3.org/2000/svg" viewBox="0 0 102 20" width="102" height="20">
  <path d="M35.589 18.574C38.025 18.574 39.75 18.016 41.476 16.824V9.618H38.862V15.123C38.127 15.581 37.01 15.96 35.589 15.96C31.834 15.96 29.145 13.119 29.145 9.262C29.145 5.405 31.936 2.614 35.793 2.614C37.163 2.614 38.355 3.02 39.192 3.553C39.624 3.832 40.233 4.314 40.817 4.974H40.969V1.295C39.724 0.508 37.72 0 35.715 0C30.362 0 26.353 4.162 26.353 9.262C26.353 14.362 30.286 18.574 35.589 18.574ZM21.525 15.859H16.476V10.175H23.682V7.867H16.476V2.716H24.011V0.407H13.126V0.559C13.684 1.397 13.71 1.726 13.71 3.173V15.403C13.71 16.849 13.684 17.179 13.126 18.016V18.168H23.909L25.051 15.073H24.873C23.706 15.758 23.3 15.86 21.524 15.86M0 18.016V18.168H10.149L11.291 15.073H11.113C9.946 15.758 9.54 15.86 7.764 15.86H3.349V0.407H0V0.559C0.558 1.397 0.584 1.726 0.584 3.173V15.403C0.584 16.849 0.558 17.179 0 18.016ZM53.068 0C47.866 0 43.756 4.162 43.756 9.262C43.756 14.362 47.612 18.574 53.068 18.574C58.523 18.574 62.354 14.413 62.354 9.262C62.354 4.111 58.243 0 53.068 0ZM53.068 15.96C49.413 15.96 46.545 13.245 46.545 9.262C46.545 5.279 49.413 2.614 53.068 2.614C56.722 2.614 59.562 5.329 59.562 9.262C59.562 13.195 56.695 15.96 53.068 15.96ZM74.152 13.069C73.162 11.57 72.502 10.709 71.843 10.225C74.38 9.592 75.903 7.765 75.903 5.355C75.903 2.31 73.517 0.407 70.092 0.407H63.875V0.533C64.739 1.345 64.739 2.436 64.739 3.503V15.403C64.739 16.849 64.712 17.179 64.155 18.016V18.168H68.088V18.016C67.53 17.179 67.504 16.849 67.504 15.403V10.581H68.088C69.66 10.581 69.712 11.038 71.539 13.93L74.202 18.168H78.186V17.991C76.892 17.026 76.233 16.24 74.152 13.069ZM69.966 8.451H67.504V2.564H69.966C71.818 2.564 73.137 3.705 73.137 5.455C73.137 7.206 71.818 8.451 69.966 8.451ZM94.248 14.692L88.59 0.407H86.28L80.623 14.692C80.165 15.859 79.632 17.077 78.871 18.016V18.168H83.007V18.016C82.627 17.381 82.601 16.925 83.134 15.505L84.2 12.637H90.671L91.736 15.505C92.269 16.925 92.243 17.381 91.862 18.016V18.168H95.998V18.016C95.237 17.077 94.705 15.859 94.248 14.692ZM85.063 10.353L87.447 3.959L89.807 10.353Z" />
</svg>
