<svg width="72" height="24" xmlns="http://www.w3.org/2000/svg">
    <path d="M29.815 16.131c1.312 1.852 3.409 3.042 5.832 3.042l-.003-.004c3.211 0 5.896-2.047 6.75-5.023v-.065l3.21 4.296c-2.16 3.306-5.899 5.486-10.025 5.486s-7.47-2.115-9.893-5.355c-2.29-3.107-8.255-11.106-8.255-11.106-1.244-1.655-3.276-2.712-5.57-2.712-3.932 0-7.144 3.24-7.144 7.207 0 3.967 3.212 7.207 7.144 7.207 3.211 0 5.896-2.115 6.814-4.958v-.065l3.211 4.296c-2.161 3.374-5.831 5.555-10.025 5.555C5.308 23.931 0 18.575 0 11.966 0 5.356 5.308 0 11.86 0c4.13 0 7.733 2.115 9.894 5.29l8.061 10.841Z"/>
    <path d="M49.407 5.486C51.57 2.18 55.24 0 59.433 0c6.552 0 11.793 5.424 11.793 12.034S65.917 24 59.365 24c-3.932 0-7.47-2.05-9.631-4.958-2.162-2.907-8.19-11.04-8.19-11.04-1.245-1.916-3.474-3.171-5.897-3.171-3.212 0-5.897 2.115-6.814 5.023L25.62 5.558C27.783 2.184 31.453.003 35.647.003c3.8 0 7.208 1.786 9.37 4.629l8.451 11.37c1.312 1.916 3.474 3.17 5.965 3.17 3.932 0 7.143-3.24 7.143-7.206 0-3.967-3.211-7.207-7.143-7.207-3.212 0-5.897 2.115-6.814 5.023l-3.212-4.296Z"/>
</svg>
