<svg xmlns="http://www.w3.org/2000/svg" width="1280" height="339.345" viewBox="0 0 338.667 89.785"><path fill="#003087" d="M108.294 17.955c-.697 0-1.289.506-1.398 1.195l-8.068 51.165a1.31 1.31 0 0 0 1.294 1.513h9.568c.696 0 1.289-.507 1.398-1.195l2.37-15.025a1.415 1.415 0 0 1 1.398-1.195h8.699c10.164 0 18.792-7.416 20.368-17.465 1.589-10.134-6.328-18.971-17.549-18.993zm9.301 11.422h6.96c5.73 0 7.596 3.381 7.006 7.12-.59 3.747-3.488 6.507-9.031 6.507h-7.084zm45.788 3.478c-2.416.009-5.196.504-8.317 1.804-7.159 2.984-10.597 9.151-12.057 13.647 0 0-4.647 13.717 5.852 21.253 0 0 9.737 7.255 20.698-.447l-.189 1.203a1.31 1.31 0 0 0 1.292 1.513h9.083c.697 0 1.289-.507 1.398-1.195l5.525-35.038a1.31 1.31 0 0 0-1.292-1.515h-9.083c-.697 0-1.29.507-1.398 1.195l-.297 1.886s-3.967-4.333-11.216-4.306zm.297 11.067c1.043 0 1.997.144 2.853.419 3.919 1.258 6.141 5.023 5.498 9.104-.793 5.025-4.914 8.725-10.199 8.725-1.042 0-1.996-.143-2.853-.418-3.918-1.258-6.154-5.023-5.511-9.104.793-5.025 4.927-8.727 10.212-8.727z"/><path fill="#0070e0" d="M239.094 17.955c-.697 0-1.289.506-1.398 1.195l-8.068 51.165a1.31 1.31 0 0 0 1.294 1.513h9.568c.696 0 1.289-.507 1.398-1.195l2.37-15.025a1.415 1.415 0 0 1 1.398-1.195h8.699c10.164 0 18.791-7.416 20.366-17.465 1.59-10.134-6.326-18.971-17.547-18.993zm9.301 11.422h6.96c5.73 0 7.596 3.381 7.006 7.12-.59 3.747-3.487 6.507-9.031 6.507h-7.084zm45.787 3.478c-2.416.009-5.196.504-8.317 1.804-7.159 2.984-10.597 9.151-12.057 13.647 0 0-4.645 13.717 5.854 21.253 0 0 9.735 7.255 20.697-.447l-.189 1.203a1.31 1.31 0 0 0 1.294 1.513h9.082c.697 0 1.289-.507 1.398-1.195l5.527-35.038a1.31 1.31 0 0 0-1.294-1.515h-9.083c-.697 0-1.29.507-1.398 1.195l-.297 1.886s-3.967-4.333-11.216-4.306zm.297 11.067c1.043 0 1.997.144 2.853.419 3.919 1.258 6.141 5.023 5.498 9.104-.793 5.025-4.914 8.725-10.199 8.725-1.042 0-1.996-.143-2.853-.418-3.918-1.258-6.154-5.023-5.511-9.104.793-5.025 4.927-8.727 10.212-8.727z"/><path fill="#003087" d="M190.978 34.08c-.72 0-1.232.703-1.012 1.388l9.958 30.901-9.004 14.562c-.437.707.071 1.62.902 1.62h10.642a1.77 1.77 0 0 0 1.513-.854l27.811-46.007a1.063 1.063 0 0 0-.909-1.611h-10.641a1.77 1.77 0 0 0-1.522.869L207.769 53.43l-5.557-18.345a1.417 1.417 0 0 0-1.355-1.006z"/><path fill="#0070e0" d="M327.791 17.955c-.696 0-1.289.507-1.398 1.195l-8.07 51.163a1.31 1.31 0 0 0 1.294 1.515h9.568c.696 0 1.289-.507 1.398-1.195l8.068-51.165a1.31 1.31 0 0 0-1.292-1.513z"/><path fill="#001c64" d="M28.528 17.955a2.59 2.59 0 0 0-2.556 2.185l-4.247 26.936a2.587 2.587 0 0 1 2.556-2.185h12.445c12.525 0 23.153-9.137 25.095-21.519a20.76 20.76 0 0 0 .245-2.793c-3.183-1.669-6.922-2.624-11.019-2.624z"/><path fill="#0070e0" d="M62.066 20.58a20.76 20.76 0 0 1-.245 2.793C59.879 35.755 49.25 44.892 36.726 44.892H24.281a2.587 2.587 0 0 0-2.556 2.185L17.82 71.829l-2.446 15.528a2.1 2.1 0 0 0 2.075 2.43h13.508a2.59 2.59 0 0 0 2.556-2.185l3.558-22.567a2.59 2.59 0 0 1 2.558-2.185h7.953c12.525 0 23.153-9.137 25.095-21.519 1.379-8.788-3.047-16.784-10.611-20.75z"/><path fill="#003087" d="M13.182 0a2.587 2.587 0 0 0-2.556 2.183L.026 69.399a2.103 2.103 0 0 0 2.077 2.43h15.719l3.903-24.752 4.247-26.936a2.59 2.59 0 0 1 2.556-2.185h22.519c4.098 0 7.836.956 11.019 2.624C62.284 9.307 52.982 0 40.193 0z"/></svg>