<svg width="165" height="46" xmlns="http://www.w3.org/2000/svg">
    <path d="M63.252 30.288c1.925 0 3.44-.426 4.545-1.277a4.22 4.22 0 0 0 1.262-1.558 4.177 4.177 0 0 0 .395-1.96 3.779 3.779 0 0 0-.495-1.991 3.884 3.884 0 0 0-1.614-1.402 13.85 13.85 0 0 0-3.057-1.08c-1.204-.3-2.11-.558-2.718-.772a3.43 3.43 0 0 1-1.235-.672 1.209 1.209 0 0 1-.325-.855 1.505 1.505 0 0 1 .223-.799c.148-.24.36-.436.614-.563a3.835 3.835 0 0 1 2.166-.447 4.03 4.03 0 0 1 2.278.715c.414.288.728.695.9 1.166a.64.64 0 0 0 .69.443l1.966-.358a.505.505 0 0 0 .42-.392.492.492 0 0 0-.001-.201 4.488 4.488 0 0 0-1.906-2.725 7.464 7.464 0 0 0-4.376-1.219c-1.792 0-3.236.416-4.331 1.248a3.943 3.943 0 0 0-1.226 1.449 3.9 3.9 0 0 0-.402 1.848c-.02.662.146 1.317.48 1.891a4.011 4.011 0 0 0 1.657 1.316 17.08 17.08 0 0 0 3.13 1.094c1.203.317 2.094.583 2.674.797.437.123.833.36 1.145.687.2.266.301.594.285.926a1.773 1.773 0 0 1-.794 1.544 3.669 3.669 0 0 1-2.166.562 4.593 4.593 0 0 1-2.563-.676 2.956 2.956 0 0 1-1.152-1.387.613.613 0 0 0-.646-.4l-1.982.303a.512.512 0 0 0-.437.411.498.498 0 0 0 .008.211 5.005 5.005 0 0 0 2.028 2.896c1.184.818 2.704 1.227 4.56 1.227Zm10.736-.944c.001.142.06.279.161.38.102.1.24.156.384.156h1.914a.544.544 0 0 0 .382-.157.534.534 0 0 0 .16-.38V22a6.538 6.538 0 0 1 .526-2.86 3.44 3.44 0 0 1 1.415-1.556 4.002 4.002 0 0 1 1.939-.475 3.597 3.597 0 0 1 1.982.49c.502.318.908.764 1.177 1.29a5.79 5.79 0 0 1 .552 1.738c.1.598.152 1.203.155 1.81v6.907a.533.533 0 0 0 .337.496.55.55 0 0 0 .208.04h1.91a.544.544 0 0 0 .503-.33.531.531 0 0 0 .042-.206v-7.866a12.477 12.477 0 0 0-.126-1.627 9.313 9.313 0 0 0-.48-1.891 6.001 6.001 0 0 0-1.037-1.788 4.81 4.81 0 0 0-1.74-1.334 6.264 6.264 0 0 0-2.66-.504 7.002 7.002 0 0 0-2.946.59 6.08 6.08 0 0 0-1.148.687.606.606 0 0 1-.964-.4.475.475 0 0 0-.473-.468h-1.628a.548.548 0 0 0-.385.157.537.537 0 0 0-.16.382v14.062Zm23.168.972c1.776 0 3.232-.463 4.368-1.39.404-.33 1.141-.072 1.141.443a.525.525 0 0 0 .53.526h1.542a.546.546 0 0 0 .503-.33.523.523 0 0 0 .042-.207v-8.803c0-.632-.029-1.226-.083-1.787a4.615 4.615 0 0 0-.455-1.57 4.374 4.374 0 0 0-2.238-2.188 8.452 8.452 0 0 0-3.567-.715c-1.764 0-3.179.384-4.245 1.151a5.502 5.502 0 0 0-1.989 2.6.5.5 0 0 0 .361.654l1.736.529a.611.611 0 0 0 .722-.357 2.87 2.87 0 0 1 1.21-1.323 4.427 4.427 0 0 1 2.205-.562c1.204 0 2.063.253 2.578.758.487.49.783 1.137.834 1.824a.508.508 0 0 1-.448.558c-1.083.146-2.13.303-3.162.464-1.05.15-2.09.365-3.112.644a5.617 5.617 0 0 0-2.693 1.67 4.263 4.263 0 0 0-.917 2.817 4.583 4.583 0 0 0 .578 2.274 4.44 4.44 0 0 0 1.743 1.655 5.996 5.996 0 0 0 2.816.665Zm.523-2.399c-.942 0-1.642-.214-2.093-.643a2.065 2.065 0 0 1-.668-1.527 1.773 1.773 0 0 1 .596-1.43c.447-.37.961-.652 1.516-.83.743-.209 1.5-.372 2.263-.49a141.55 141.55 0 0 1 2.404-.357.534.534 0 0 1 .438.128.513.513 0 0 1 .172.419c0 .175-.025.358-.039.55a4.78 4.78 0 0 1-.242 1.177 3.515 3.515 0 0 1-.722 1.43 4.095 4.095 0 0 1-1.444 1.137 4.962 4.962 0 0 1-2.18.422v.014Zm12.682 8.156c0 .143.058.28.16.382a.548.548 0 0 0 .385.158h1.881a.538.538 0 0 0 .545-.54v-6.05a.65.65 0 0 1 .354-.522.669.669 0 0 1 .635.014c.277.156.567.287.867.394a6.714 6.714 0 0 0 2.364.393 6.38 6.38 0 0 0 3.7-1.058 6.928 6.928 0 0 0 2.39-2.86 9.461 9.461 0 0 0 .852-4.08 9.4 9.4 0 0 0-.852-4.08 6.76 6.76 0 0 0-2.418-2.86 6.476 6.476 0 0 0-3.711-1.051 6.508 6.508 0 0 0-2.549.479c-.431.173-.84.398-1.217.668a.463.463 0 0 1-.456.034.46.46 0 0 1-.266-.37.387.387 0 0 0-.115-.275.396.396 0 0 0-.278-.114h-1.693a.544.544 0 0 0-.505.332.526.526 0 0 0-.04.207l-.033 20.799Zm6.78-8.42c-1.444 0-2.501-.5-3.17-1.502-.669-1.001-.995-2.286-.978-3.854 0-1.571.326-2.852.978-3.844.652-.991 1.676-1.487 3.072-1.487a3.911 3.911 0 0 1 2.419.715 4.194 4.194 0 0 1 1.404 1.923c.32.862.478 1.775.466 2.693a7.833 7.833 0 0 1-.451 2.72 4.234 4.234 0 0 1-1.39 1.92 3.724 3.724 0 0 1-2.35.716Zm12.158 1.691a.547.547 0 0 0 .545.536h1.877a.546.546 0 0 0 .504-.33.54.54 0 0 0 .041-.206V9.808a.538.538 0 0 0-.545-.54h-1.877a.55.55 0 0 0-.545.54v19.536Zm15.418.972a7.564 7.564 0 0 0 4.036-1.108 6.74 6.74 0 0 0 2.444-2.614.512.512 0 0 0-.12-.607.522.522 0 0 0-.194-.108l-1.877-.586a.587.587 0 0 0-.672.271c-.798 1.33-2.047 2-3.758 2a4 4 0 0 1-3.029-1.151 4.853 4.853 0 0 1-1.216-2.672.497.497 0 0 1 .125-.412.515.515 0 0 1 .398-.17h10.289a.53.53 0 0 0 .372-.146.52.52 0 0 0 .162-.362 10.406 10.406 0 0 0-.672-4.19 6.392 6.392 0 0 0-2.451-3.043 7.084 7.084 0 0 0-3.971-1.073 7.546 7.546 0 0 0-3.938.954 6.893 6.893 0 0 0-2.635 2.818 9.334 9.334 0 0 0-.935 4.29 8.638 8.638 0 0 0 .949 4.123 7.048 7.048 0 0 0 2.675 2.764 8.001 8.001 0 0 0 4.018 1.022Zm-.025-13.39c2.127 0 3.407 1.114 3.841 3.34a.514.514 0 0 1-.52.6h-7.065a.519.519 0 0 1-.407-.184.499.499 0 0 1-.105-.43 4.44 4.44 0 0 1 1.256-2.317c.729-.687 1.722-1.023 2.989-1.023l.011.014Zm19.853 13.033a.533.533 0 0 0 .317-.181.52.52 0 0 0 .123-.341v-1.413a.539.539 0 0 0-.19-.413.56.56 0 0 0-.438-.134 9.341 9.341 0 0 1-1.992 0 2.054 2.054 0 0 1-1.614-.998 2.405 2.405 0 0 1-.296-1.133v-7.733a.546.546 0 0 1 .545-.54h3.455a.55.55 0 0 0 .545-.54v-1.276a.539.539 0 0 0-.16-.382.548.548 0 0 0-.385-.158H161a.55.55 0 0 1-.545-.54v-3.129a.542.542 0 0 0-.161-.38.551.551 0 0 0-.384-.16h-1.885a.551.551 0 0 0-.384.16.542.542 0 0 0-.161.38v3.129a.539.539 0 0 1-.541.54h-1.845a.547.547 0 0 0-.501.333.522.522 0 0 0-.04.207v1.276a.539.539 0 0 0 .541.54h1.845a.547.547 0 0 1 .501.334.522.522 0 0 1 .04.206v6.289c0 .822.01 1.56.029 2.213.036.668.219 1.32.538 1.91a3.44 3.44 0 0 0 1.657 1.54 6.43 6.43 0 0 0 2.477.533c.79.029 1.582-.018 2.364-.14ZM12.698 37.788c1.24 0 2.43-.487 3.306-1.355a4.593 4.593 0 0 0 .001-6.549 4.713 4.713 0 0 0-3.308-1.355 4.696 4.696 0 0 0-3.304 1.356 4.607 4.607 0 0 0-1.37 3.274 4.611 4.611 0 0 0 1.37 3.272 4.702 4.702 0 0 0 3.305 1.358Zm23.799-3.969c.614 0 1.222-.119 1.79-.351a4.678 4.678 0 0 0 1.517-1.004 4.59 4.59 0 0 0-.001-6.55 4.701 4.701 0 0 0-6.61.003 4.611 4.611 0 0 0-1.37 3.272c0 1.228.492 2.406 1.368 3.274a4.697 4.697 0 0 0 3.306 1.356Z"/>
    <path d="M1.19 45.024a1.193 1.193 0 0 1-1.09-.7 1.163 1.163 0 0 1-.018-.902c.028-.078 1.148-3.258 1.665-14.033.28-5.86.288-8.435-.19-14.19-.461-5.509.292-8.748 2.221-9.635 2.706-1.23 5.16.754 7.534 2.677 2.62 2.121 5.326 4.297 8.955 3.774 2.473-.368 3.38-2.661 4.481-6.119.86-2.692 1.743-5.47 4.34-5.86 1.222-.176 2.567.293 3.995 1.399 6.856 5.31 14.915 24.125 16.272 37.99a1.16 1.16 0 0 1-.264.86 1.182 1.182 0 0 1-.801.422 1.191 1.191 0 0 1-.866-.263 1.168 1.168 0 0 1-.424-.792C45.607 25.396 37.383 7.737 31.616 3.28c-.872-.672-1.65-1.004-2.198-.922-1.14.168-1.767 2.145-2.437 4.243-1.01 3.172-2.265 7.118-6.383 7.731-4.666.696-8.074-2.062-10.808-4.297-2.284-1.848-3.751-2.95-5.05-2.344-.548.25-1.266 2.453-.86 7.31.49 5.887.478 8.513.194 14.49-.548 11.405-1.767 14.632-1.818 14.765a1.19 1.19 0 0 1-1.065.77Z"/>
    <path d="M6.703 35.89a.604.604 0 0 1-.545-.356.581.581 0 0 1 .312-.781l4.65-1.977-4.883-.985a.59.59 0 0 1-.462-.46.577.577 0 0 1 0-.227.579.579 0 0 1 .464-.462.592.592 0 0 1 .23 0l6.742 1.36a.592.592 0 0 1 .474.512.59.59 0 0 1-.355.602l-6.395 2.723a.546.546 0 0 1-.232.05Zm35.793-5.712h-.032l-6.947-.371a.592.592 0 0 1-.54-.41.577.577 0 0 1 .264-.641L41.1 25.18a.6.6 0 0 1 .813.191.59.59 0 0 1-.194.81l-4.244 2.585 5.053.27c.157.01.303.08.408.195.105.115.16.267.152.422a.598.598 0 0 1-.592.524Zm-18.501 4.028a4.4 4.4 0 0 1-2.71-.791 4.33 4.33 0 0 1-1.657-2.268.774.774 0 0 1 .052-.585.786.786 0 0 1 .45-.384.796.796 0 0 1 .602.032c.189.09.334.25.403.444.517 1.563 1.878 2.243 3.736 1.91 1.858-.331 2.852-1.46 2.816-3.101a.78.78 0 0 1 .231-.553.793.793 0 0 1 1.116 0 .777.777 0 0 1 .231.553c.051 2.414-1.527 4.204-4.114 4.669-.382.058-.77.083-1.156.074Zm-13.203-6.958a.84.84 0 0 1-.173 0 .789.789 0 0 1-.493-.345.775.775 0 0 1-.103-.59c.395-1.675 2.552-4.273 5.223-4.687 2.67-.415 5.396 1.562 5.846 3.082a.774.774 0 0 1-.264.828.792.792 0 0 1-.872.078.783.783 0 0 1-.379-.464c-.22-.75-2.154-2.286-4.083-1.981-1.928.305-3.66 2.297-3.944 3.516a.793.793 0 0 1-.757.563Zm15.38-2.602a.793.793 0 0 1-.691-.402.776.776 0 0 1-.07-.595c.394-1.418 1.826-3.934 4.58-4.368 2.504-.39 5.388 1.27 6.197 2.966a.775.775 0 0 1-.395 1.039.796.796 0 0 1-.873-.14.783.783 0 0 1-.18-.25c-.49-1.028-2.655-2.388-4.52-2.091-1.973.309-3.026 2.262-3.31 3.255a.794.794 0 0 1-.738.586Z"/>
    <path fill-rule="evenodd" d="M30.436 27.443a6.291 6.291 0 0 1-4.419-1.816 6.171 6.171 0 0 1-1.833-4.333 4.315 4.315 0 0 0-2.921.55c.225.645.344 1.326.345 2.02a6.17 6.17 0 0 1-1.834 4.377 6.29 6.29 0 0 1-4.418 1.816 6.29 6.29 0 0 1-4.419-1.816 6.176 6.176 0 0 1-1.804-3.783l-1.233.223a.918.918 0 0 1-.177.027.992.992 0 0 1-.63-.229.975.975 0 0 1 .452-1.709l1.725-.314a6.184 6.184 0 0 1 1.668-2.966 6.29 6.29 0 0 1 4.418-1.814 6.29 6.29 0 0 1 4.973 2.444 6.298 6.298 0 0 1 4.156-.762 6.19 6.19 0 0 1 1.532-2.484 6.291 6.291 0 0 1 4.419-1.816 6.291 6.291 0 0 1 4.419 1.816 6.3 6.3 0 0 1 .715.847 1.06 1.06 0 0 1 .05-.01l1.487-.27a.997.997 0 0 1 .734.157.969.969 0 0 1 .252 1.354.987.987 0 0 1-.631.408l-1.018.184c.16.55.243 1.124.244 1.707a6.17 6.17 0 0 1-1.833 4.376 6.291 6.291 0 0 1-4.42 1.816Zm0-10.431a4.305 4.305 0 0 0-3.025 1.242 4.223 4.223 0 0 0-1.255 2.997 4.227 4.227 0 0 0 1.256 2.995 4.31 4.31 0 0 0 3.024 1.244 4.309 4.309 0 0 0 3.024-1.244 4.227 4.227 0 0 0 1.256-2.995 4.223 4.223 0 0 0-1.255-2.997 4.305 4.305 0 0 0-3.025-1.242Zm-15.08 2.613a4.31 4.31 0 0 0-3.024 1.244 4.226 4.226 0 0 0-1.256 2.995 4.226 4.226 0 0 0 1.256 2.995 4.31 4.31 0 0 0 3.024 1.244 4.31 4.31 0 0 0 3.024-1.244 4.226 4.226 0 0 0 1.256-2.995 4.227 4.227 0 0 0-1.258-2.992 4.309 4.309 0 0 0-3.022-1.243v-.004Z" clip-rule="evenodd"/>
</svg>
